<svg viewBox="0 0 20 20" fill="none" xmlns="http://www.w3.org/2000/svg">
<path d="M5.28629 19.1431C4.63284 19.1431 4.22754 18.6881 4.22754 17.952V3.52649C4.22754 1.88874 5.08777 1.02023 6.70898 1.02023H13.2848C14.906 1.02023 15.7663 1.88874 15.7663 3.52649V17.952C15.7663 18.6881 15.3527 19.1431 14.6992 19.1431C14.2526 19.1431 13.9796 18.9032 13.26 18.2166L10.0672 15.0487C10.0258 15.0156 9.95968 15.0156 9.91832 15.0487L6.72553 18.2084C6.01418 18.9032 5.73295 19.1431 5.28629 19.1431ZM6.07208 16.4548L9.45512 13.1793C9.80252 12.8402 10.1913 12.8402 10.5387 13.1793L13.9217 16.4548C14.0292 16.5624 14.1616 16.5293 14.1616 16.3721V3.61748C14.1616 2.95576 13.8225 2.6249 13.1607 2.6249H6.83306C6.16307 2.6249 5.83221 2.95576 5.83221 3.61748V16.3721C5.83221 16.5293 5.95628 16.5624 6.07208 16.4548Z" fill="currentColor"/>
</svg>
