<svg viewBox="0 0 26 26" xmlns="http://www.w3.org/2000/svg">
<g clip-path="url(#clip0_239_18187)">
<path d="M21.784 16.4166C21.7581 16.2583 21.7149 16.1083 21.6458 15.9749C21.6804 15.8166 21.6804 15.6583 21.6631 15.4999C21.6631 15.4833 21.6631 15.4666 21.6717 15.4499C21.6717 15.4083 21.6717 15.3583 21.6717 15.3166C21.6804 15.2999 21.6976 15.2749 21.7063 15.2583C21.7408 15.1833 21.7754 15.0999 21.7926 15.0166C21.8963 14.8833 21.9567 14.7333 21.9308 14.5583C21.9136 14.4249 21.8445 14.3166 21.7581 14.2083C21.9222 14.0166 22.0345 13.7833 21.9567 13.5333C21.9222 13.4166 21.8445 13.3166 21.7495 13.2249C21.7495 13.1749 21.7408 13.1333 21.7322 13.0833C21.879 12.9083 21.974 12.6999 21.9049 12.4749C21.8876 12.4333 21.8617 12.3916 21.8358 12.3499C21.9136 12.2416 21.974 12.1166 21.9654 11.9749C21.9654 11.7916 21.8617 11.6166 21.7408 11.4666C21.6976 11.4166 21.6372 11.3749 21.594 11.3333C21.594 11.3249 21.594 11.3166 21.594 11.3083C21.7149 11.2249 21.8186 11.1083 21.8531 10.9499C21.879 10.8333 21.8531 10.7166 21.8272 10.5999C21.9567 10.4249 22.0345 10.2166 21.9654 9.99994C21.9222 9.86661 21.8272 9.75827 21.7235 9.65827C21.7235 9.60827 21.7235 9.56661 21.7235 9.51661C21.8704 9.38327 21.9827 9.21661 21.974 9.00828C21.974 8.90828 21.9395 8.81661 21.8963 8.72494C21.8876 8.64161 21.8617 8.54994 21.8186 8.47494C21.8876 8.36661 21.9308 8.24994 21.9222 8.11661C21.9222 8.09994 21.9136 8.08327 21.9049 8.06661C21.9049 7.93327 21.8876 7.79994 21.8013 7.68327C21.7754 7.64994 21.7322 7.62494 21.6976 7.59161C21.6804 7.52494 21.6717 7.44994 21.6372 7.38328C21.6544 7.32494 21.6804 7.26661 21.6976 7.21661C21.7667 6.95827 21.7754 6.65828 21.6285 6.44161C21.6285 6.40828 21.6285 6.37494 21.6285 6.34161C21.6631 6.18328 21.6717 6.02494 21.6544 5.86661C21.6544 5.84161 21.6372 5.81661 21.6372 5.79161C21.6717 5.66661 21.7063 5.53328 21.7149 5.41661C21.7235 5.29994 21.7149 5.17494 21.6976 5.04994C21.7495 4.99161 21.7926 4.93327 21.8186 4.86661C21.879 4.69994 21.8531 4.50828 21.8013 4.33328C21.8013 4.33328 21.8013 4.32494 21.8013 4.31661C21.8099 4.23328 21.8013 4.15828 21.7926 4.08328C21.9481 3.86661 22.0345 3.60828 21.9222 3.35828C21.8445 3.19161 21.689 3.05828 21.5249 2.96661C21.3781 2.88328 21.2139 2.82494 21.0498 2.79161C20.903 2.68328 20.7216 2.63328 20.5402 2.61661C20.5402 2.61661 20.523 2.61661 20.5143 2.61661C20.2984 2.54161 20.0738 2.53328 19.8579 2.59994C19.6592 2.50828 19.426 2.49161 19.1842 2.55828C19.1496 2.55828 19.1151 2.55828 19.0719 2.55828C18.9942 2.57494 18.9164 2.59994 18.8473 2.62494C18.6919 2.56661 18.5364 2.54994 18.3723 2.56661C18.1218 2.47494 17.8368 2.47494 17.5431 2.62494C17.379 2.59161 17.2063 2.59161 17.0508 2.62494C16.8781 2.58328 16.7053 2.57494 16.5326 2.59994C16.3253 2.49994 16.0748 2.47494 15.7984 2.55828C15.7293 2.58328 15.6688 2.61661 15.6084 2.64994C15.5047 2.64994 15.4011 2.64994 15.2974 2.66661C15.1247 2.55828 14.9088 2.49994 14.6496 2.53328C14.5028 2.54994 14.3819 2.59994 14.2696 2.66661C14.261 2.66661 14.2523 2.66661 14.2437 2.66661C14.1573 2.66661 14.0796 2.67494 14.0019 2.69161C13.9587 2.69161 13.9155 2.69161 13.8723 2.69161C13.5959 2.57494 13.3022 2.54994 13.0345 2.63328C13.0086 2.61661 12.9913 2.59161 12.9654 2.58328C12.7926 2.49994 12.5853 2.49161 12.3953 2.52494C12.3435 2.52494 12.3003 2.55828 12.2571 2.56661C12.1189 2.56661 11.9721 2.59994 11.8425 2.67494C11.6525 2.59994 11.4539 2.57494 11.2552 2.60828C11.0997 2.54994 10.9356 2.52494 10.7715 2.54161C10.5988 2.51661 10.4174 2.53328 10.2447 2.60828C10.2187 2.60828 10.1842 2.60828 10.1583 2.60828C10.1065 2.60828 10.0633 2.64161 10.0114 2.64994C9.92508 2.64994 9.84734 2.66661 9.76097 2.68328C9.58822 2.56661 9.37229 2.49161 9.10454 2.50828C8.94043 2.50828 8.80224 2.56661 8.68131 2.64161C8.44811 2.50828 8.18036 2.46661 7.89533 2.55828C7.52393 2.42494 7.1007 2.48328 6.77249 2.83328C6.69475 2.91661 6.64293 2.99994 6.59974 3.08328C6.44427 3.10828 6.2888 3.17494 6.1506 3.28328C6.05559 3.30828 5.95195 3.33328 5.85694 3.39161C5.67556 3.49161 5.56327 3.64161 5.49417 3.80828C5.45099 3.83328 5.4078 3.84994 5.37325 3.87494C5.32143 3.89994 5.26097 3.91661 5.21778 3.94994C5.11414 4.02494 5.02776 4.11661 4.95867 4.21661C4.88093 4.28328 4.8032 4.36661 4.74273 4.47494C4.665 4.61661 4.63909 4.76661 4.64773 4.90828C4.62181 4.94994 4.58726 4.99994 4.56999 5.04994C4.47498 5.14994 4.39725 5.28328 4.35406 5.44161C4.33678 5.49161 4.34542 5.54161 4.33678 5.59161C4.31087 5.63328 4.2936 5.67494 4.28496 5.71661C4.26769 5.73327 4.25041 5.74994 4.24177 5.76661C3.99993 6.11661 4.07767 6.50828 4.27632 6.84161C4.20723 7.03328 4.18995 7.24994 4.20723 7.45827C4.12949 7.62494 4.12949 7.79994 4.17268 7.96661C4.11222 8.12494 4.11222 8.27494 4.1554 8.42494C4.1554 8.44161 4.1554 8.45827 4.1554 8.46661C4.1554 8.48327 4.1554 8.49994 4.1554 8.51661C4.1554 8.54994 4.16404 8.58327 4.17268 8.62494C4.17268 8.66661 4.17268 8.70827 4.17268 8.74994C4.07767 8.88328 4.01721 9.03327 4.03448 9.22494C4.03448 9.31661 4.06903 9.39161 4.09494 9.46661C4.00857 9.66661 4.00857 9.88327 4.11222 10.0833C4.10358 10.1416 4.0863 10.1999 4.0863 10.2583C4.05176 10.3916 4.05176 10.5249 4.10358 10.6583C3.9913 10.8499 3.96538 11.0666 4.03448 11.2749C4.00857 11.3916 4.02584 11.5083 4.06039 11.6333C4.04312 11.6749 4.03448 11.7166 4.02584 11.7583C4.02584 11.7666 4.01721 11.7749 4.01721 11.7916C3.99993 11.8916 4.01721 11.9916 4.02584 12.0833C3.99993 12.1749 3.98266 12.2749 3.99993 12.3749C3.99993 12.4666 4.01721 12.5499 4.05176 12.6249C4.05176 12.6666 4.03448 12.6999 4.04312 12.7499C4.05176 12.8249 4.07767 12.8916 4.11222 12.9583C4.11222 12.9749 4.12949 12.9916 4.12949 13.0083C4.01721 13.1916 3.98266 13.4083 4.05176 13.6166C4.05176 13.6499 4.05176 13.6833 4.05176 13.7249C4.03448 13.8166 4.03448 13.8999 4.04312 13.9916C4.04312 13.9999 4.04312 14.0083 4.04312 14.0166C4.04312 14.0333 4.04312 14.0416 4.04312 14.0583C3.99993 14.1666 3.98266 14.2916 3.9913 14.4249C3.99993 14.5166 4.02584 14.5999 4.06903 14.6749C4.06903 14.7166 4.04312 14.7416 4.04312 14.7833C4.04312 14.7916 4.04312 14.8083 4.04312 14.8166C4.02584 14.9666 4.06039 15.1166 4.12949 15.2499C4.12085 15.2999 4.10358 15.3499 4.10358 15.3999C4.0863 15.4833 4.0863 15.5666 4.10358 15.6499C4.09494 15.7583 4.10358 15.8583 4.13813 15.9666C4.06039 16.0916 4.02584 16.2333 4.03448 16.3916C3.94811 16.5499 3.9222 16.7416 3.98266 16.9583C4.00857 17.0583 4.05176 17.1333 4.11222 17.2083C4.11222 17.2166 4.11222 17.2333 4.10358 17.2416C4.0863 17.2749 4.06903 17.2999 4.05176 17.3416C4.03448 17.3999 4.03448 17.4499 4.03448 17.5083C4.03448 17.5083 4.03448 17.5166 4.03448 17.5249C4.03448 17.6166 4.05176 17.6999 4.0863 17.7833C4.0863 17.7833 4.0863 17.7999 4.0863 17.8083C3.9913 17.9999 3.9913 18.2249 4.12085 18.4583C4.03448 18.6166 3.99993 18.7999 4.04312 18.9749C4.02584 19.0083 4.00857 19.0333 3.99993 19.0749C3.94811 19.3083 3.99993 19.5083 4.12085 19.6833C4.17268 19.8416 4.25905 19.9916 4.35406 20.1333C4.35406 20.1499 4.35406 20.1583 4.35406 20.1749C4.3627 20.2166 4.38861 20.2499 4.40588 20.2833C4.3627 20.4583 4.37133 20.6583 4.44907 20.8583C4.44907 20.9083 4.44907 20.9499 4.46634 20.9999C4.45771 21.4416 4.65636 21.8499 5.05368 22.0499C5.13141 22.2666 5.26961 22.4583 5.4769 22.5833C5.58918 22.6916 5.72738 22.7749 5.90012 22.8416C6.01241 22.8833 6.12469 22.8999 6.23698 22.8999C6.59974 23.3666 7.35118 23.5249 7.9126 23.4999C8.18899 23.4833 8.47402 23.4083 8.68131 23.2333C8.73314 23.2333 8.78496 23.2333 8.83678 23.2333C9.00089 23.3083 9.18227 23.3333 9.35502 23.2666C9.43275 23.3083 9.52776 23.3333 9.62277 23.3333C9.76097 23.3333 9.89916 23.2666 10.0114 23.1916C10.0287 23.1916 10.0374 23.1916 10.0546 23.1833C10.0892 23.1666 10.1151 23.1416 10.1496 23.1249C10.3138 23.2416 10.5038 23.3166 10.6938 23.2916C10.7802 23.3333 10.8752 23.3583 10.9875 23.3499C11.1602 23.3333 11.3157 23.2416 11.4452 23.1333C11.5057 23.1499 11.5662 23.1666 11.618 23.1833C11.7734 23.2166 11.9548 23.2249 12.1103 23.1916C12.1103 23.1916 12.1103 23.1916 12.1189 23.1916C12.1621 23.1999 12.2139 23.2083 12.2658 23.2083C12.3521 23.2666 12.4385 23.3166 12.5508 23.3249C12.7149 23.3416 12.8876 23.2749 13.0345 23.1916C13.0345 23.1916 13.0345 23.1916 13.0431 23.1833C13.2072 23.2416 13.3627 23.2499 13.5182 23.2166C13.5441 23.2249 13.5614 23.2416 13.5873 23.2499C13.7514 23.2999 13.9241 23.2666 14.0882 23.2166C14.1746 23.1833 14.2523 23.1333 14.3301 23.0916C14.4596 23.1083 14.5892 23.1166 14.7101 23.1083C14.7187 23.1083 14.7274 23.1083 14.7447 23.1083C14.7533 23.1083 14.7619 23.1083 14.7706 23.1083C14.7965 23.1083 14.8138 23.1083 14.8397 23.1083C14.8656 23.1166 14.8742 23.1333 14.9001 23.1416C14.9433 23.1583 14.9865 23.1583 15.0297 23.1666C15.2802 23.2666 15.5738 23.2999 15.7984 23.1666C15.9193 23.2333 16.0575 23.2749 16.213 23.2833C16.3685 23.3166 16.5412 23.3083 16.6794 23.2166C16.7053 23.1999 16.7226 23.1749 16.7399 23.1583C16.9212 23.2499 17.1285 23.2999 17.3186 23.2499C17.4395 23.2999 17.5604 23.3249 17.69 23.3249C17.8109 23.3499 17.9404 23.3583 18.07 23.2999C18.1218 23.2749 18.165 23.2333 18.2168 23.1999C18.2255 23.1999 18.2341 23.2083 18.2514 23.2083C18.355 23.2166 18.45 23.2083 18.545 23.1833C18.5796 23.2083 18.6055 23.2333 18.6487 23.2499C18.7782 23.2916 18.9251 23.2833 19.0633 23.2499C19.2274 23.2916 19.4001 23.2833 19.547 23.2083C19.6765 23.3083 19.8406 23.3749 20.0134 23.3499C20.1084 23.3416 20.1861 23.2999 20.2725 23.2583C20.4711 23.3749 20.7043 23.4333 20.9203 23.3333C21.0844 23.2583 21.2053 23.1166 21.2917 22.9666C21.3781 22.8166 21.4299 22.6583 21.4558 22.4916C21.4817 22.4583 21.5076 22.4249 21.5249 22.3749C21.5681 22.2333 21.5422 22.0833 21.499 21.9416C21.4731 21.8666 21.4299 21.7999 21.3867 21.7333C21.3262 21.5833 21.2485 21.4416 21.1448 21.3333C21.0671 21.2499 20.9807 21.1916 20.8857 21.1333C20.9203 20.9499 20.8944 20.7583 20.7475 20.6249C20.713 20.5916 20.6698 20.5749 20.6266 20.5583C20.6093 20.5166 20.5921 20.4749 20.5575 20.4333C20.5575 20.4249 20.5575 20.4083 20.5575 20.3999C20.5921 20.3499 20.618 20.2916 20.6266 20.2249C20.6439 20.0833 20.6007 19.9333 20.523 19.7999C20.4884 19.7416 20.4452 19.6999 20.4107 19.6499C20.4193 19.6166 20.428 19.5916 20.428 19.5583C20.523 19.4249 20.5921 19.2749 20.5748 19.1166C20.5748 19.0999 20.5834 19.0916 20.5921 19.0749C20.5921 19.0583 20.5921 19.0333 20.5921 19.0166C20.6352 18.9583 20.6525 18.8916 20.6612 18.8166C20.6871 18.7999 20.7216 18.7833 20.7389 18.7583C20.7648 18.7333 20.7734 18.7083 20.7994 18.6833C20.998 18.6833 21.188 18.6333 21.3003 18.4749C21.3867 18.3583 21.4126 18.1999 21.4126 18.0499C21.4126 18.0499 21.4126 18.0333 21.4126 18.0249C21.4903 17.9166 21.5508 17.7833 21.5853 17.6499C21.594 17.5916 21.5853 17.5333 21.594 17.4749C21.7581 17.3499 21.8876 17.1916 21.8963 16.9749C21.8963 16.7916 21.8186 16.5999 21.7149 16.4499C21.7149 16.4499 21.7063 16.4416 21.6976 16.4333L21.784 16.4166ZM17.4395 21.0249C17.3272 21.0083 17.2063 21.0249 17.094 21.0416C16.9471 20.9916 16.7917 20.9833 16.6448 21.0083C16.5412 21.0249 16.4462 21.0666 16.3512 21.0999C16.1352 21.0249 15.9107 21.0333 15.6947 21.1166C15.5997 21.1166 15.522 21.1416 15.4356 21.1749C15.1765 21.0583 14.8915 21.0416 14.641 21.1333C14.4855 21.0499 14.3042 21.0083 14.0882 21.0333C13.9673 21.0416 13.8637 21.0833 13.7686 21.1333C13.6477 21.1333 13.5268 21.1666 13.4059 21.1999C13.19 21.0249 12.8963 20.9499 12.5594 21.0583C12.5076 21.0749 12.4644 21.0999 12.4212 21.1249C12.3608 21.1249 12.309 21.1416 12.2485 21.1499C12.2226 21.1499 12.2053 21.1249 12.1794 21.1166C11.9807 21.0666 11.7821 21.0749 11.6007 21.1166C11.5402 21.1083 11.4884 21.1083 11.428 21.0999C11.2034 20.9749 10.9184 20.9499 10.6333 21.0749C10.5124 21.0416 10.3915 21.0333 10.2706 21.0499C10.1842 21.0333 10.0892 21.0249 9.99417 21.0333C9.79552 20.9749 9.57095 20.9749 9.33774 21.0833C9.32047 21.0916 9.3032 21.1083 9.28592 21.1166C9.26865 21.1166 9.25137 21.1166 9.2341 21.1166C8.99225 21.0083 8.7245 20.9916 8.47402 21.0999C8.36174 21.0749 8.24945 21.0749 8.14581 21.0916C8.04216 21.0249 7.92124 20.9749 7.79168 20.9583C7.75713 20.8583 7.70531 20.7666 7.61893 20.6916C7.5412 20.6249 7.44619 20.5749 7.34254 20.5416C7.32527 20.5166 7.30799 20.4916 7.29072 20.4666C7.31663 20.4083 7.35118 20.3499 7.35982 20.2833C7.38573 20.0749 7.31663 19.8666 7.21298 19.6833C7.17844 19.6249 7.13525 19.5833 7.09206 19.5249C7.11797 19.4583 7.13525 19.3916 7.15252 19.3166C7.27344 19.1416 7.35982 18.9416 7.34254 18.7416C7.46346 18.6916 7.57575 18.6249 7.67076 18.5416C7.83487 18.5833 8.00761 18.5916 8.17172 18.5166C8.2149 18.4999 8.24945 18.4583 8.29264 18.4333C8.33582 18.4166 8.37901 18.3833 8.41356 18.3583C8.41356 18.3583 8.4222 18.3583 8.43083 18.3583C8.61222 18.3833 8.81087 18.3249 8.97498 18.2416C8.99226 18.2333 9.00953 18.2166 9.0268 18.2083C9.08726 18.2083 9.13909 18.2083 9.19955 18.2083C9.37229 18.2499 9.5364 18.2416 9.70051 18.1916C9.71778 18.1999 9.73506 18.2083 9.75233 18.2249C9.94235 18.3749 10.1756 18.4749 10.426 18.4083C10.4951 18.3916 10.5556 18.3499 10.6161 18.3166C10.7629 18.3333 10.9184 18.3166 11.0566 18.2666C11.1257 18.2416 11.1861 18.1999 11.2552 18.1666C11.3934 18.1749 11.5402 18.1583 11.6784 18.1166C11.903 18.3166 12.188 18.4666 12.4903 18.3666C12.6458 18.4416 12.8186 18.4749 12.9999 18.4249C13.0086 18.4249 13.0172 18.4166 13.0258 18.4083C13.0258 18.4083 13.0345 18.4083 13.0431 18.4083C13.1381 18.4083 13.2245 18.3999 13.3195 18.3666C13.4663 18.4333 13.6218 18.4749 13.7946 18.4249C13.9068 18.3916 14.0105 18.3333 14.0969 18.2499C14.1141 18.2416 14.1314 18.2333 14.1487 18.2249C14.3819 18.3666 14.6583 18.4333 14.9088 18.3083C14.9433 18.2916 14.9692 18.2583 14.9951 18.2416C15.021 18.2416 15.047 18.2416 15.0729 18.2416C15.0988 18.2416 15.1333 18.2416 15.1592 18.2333C15.1765 18.2333 15.2024 18.2333 15.2197 18.2249C15.3838 18.3249 15.5738 18.3833 15.7725 18.3249C15.8329 18.3083 15.8934 18.2666 15.9452 18.2333C15.9539 18.2333 15.9711 18.2333 15.9798 18.2333C16.0316 18.2333 16.0748 18.2249 16.118 18.2166C16.3253 18.3333 16.5498 18.3999 16.7744 18.3499C16.9299 18.3666 17.1026 18.3499 17.2495 18.2916C17.2667 18.2916 17.2754 18.2749 17.284 18.2749C17.474 18.2833 17.6468 18.2499 17.7936 18.1666C18.0009 18.2833 18.2341 18.3583 18.4587 18.2999C18.6141 18.2999 18.7523 18.2749 18.8733 18.2166C18.8733 18.2166 18.8733 18.2166 18.8819 18.2166C18.8819 18.2416 18.8733 18.2749 18.8646 18.2999C18.7869 18.3916 18.7351 18.4999 18.7091 18.6166C18.6746 18.6833 18.6314 18.7333 18.6141 18.8166C18.5796 18.9666 18.5882 19.1083 18.64 19.2333C18.6055 19.3416 18.6055 19.4499 18.6228 19.5583C18.5278 19.7166 18.4846 19.9083 18.545 20.1333C18.5623 20.1833 18.5796 20.2249 18.6055 20.2666C18.5882 20.3916 18.5882 20.5249 18.6487 20.6749C18.6487 20.6833 18.6573 20.6916 18.666 20.6999C18.666 20.6999 18.666 20.7166 18.666 20.7249C18.666 20.8333 18.6832 20.9416 18.7178 21.0416C18.5796 21.0416 18.45 21.0833 18.3291 21.1583C18.2168 21.1249 18.0959 21.1083 17.9836 21.1083C17.7936 21.0166 17.5863 20.9833 17.379 21.0166L17.4395 21.0249ZM11.998 4.99994C12.1448 5.00828 12.2744 4.98328 12.3953 4.94161C12.6026 5.02494 12.8358 5.04994 13.0345 4.94161C13.1813 4.94994 13.3109 4.91661 13.4318 4.84161C13.4404 4.84161 13.4491 4.84994 13.4577 4.85828C13.6736 4.94994 13.9241 4.99161 14.1573 4.94161C14.1573 4.94161 14.166 4.94161 14.1746 4.94994C14.3473 4.99994 14.546 4.96661 14.7187 4.90828C14.736 4.90828 14.7447 4.89161 14.7533 4.89161C14.9951 4.95828 15.2283 4.93327 15.4529 4.84161C15.5566 4.94161 15.6861 5.01661 15.8416 5.03328C16.023 5.04994 16.213 4.97494 16.3685 4.88328C16.3944 4.86661 16.403 4.84994 16.4289 4.83328C16.6017 4.88328 16.7917 4.89994 16.9731 4.85828C16.999 4.85828 17.0249 4.87494 17.0508 4.88328C17.2149 4.91661 17.3876 4.92494 17.5518 4.89994C17.69 5.00828 17.8541 5.08328 18.0441 5.06661C18.1736 5.04994 18.2946 4.99161 18.4068 4.91661C18.5882 5.01661 18.7955 5.05828 18.9942 4.98328C19.0028 4.98328 19.0114 4.96661 19.0201 4.96661C19.1237 5.02494 19.2274 5.06661 19.3569 5.06661C19.3742 5.06661 19.3915 5.05827 19.4088 5.05827C19.3828 5.20828 19.3915 5.34994 19.4347 5.48327C19.4088 5.59161 19.4001 5.70828 19.4174 5.81661C19.4174 5.95828 19.4347 6.09994 19.4779 6.23328C19.4779 6.32494 19.4779 6.42494 19.4779 6.50828C19.4433 6.64161 19.4347 6.79161 19.4519 6.93328C19.3828 7.04161 19.331 7.17494 19.3138 7.32494C19.3138 7.38328 19.3138 7.44161 19.3138 7.49994C19.2706 7.63328 19.2619 7.79161 19.2878 7.94994V7.96661C19.2619 8.09161 19.2706 8.21661 19.3051 8.35827C19.2965 8.40828 19.2878 8.45827 19.2878 8.50828C19.2878 8.54994 19.2878 8.58327 19.2878 8.62494C19.2187 8.83327 19.2187 9.06661 19.3224 9.30827C19.3224 9.46661 19.3742 9.61661 19.4519 9.75827C19.2187 10.0583 19.1496 10.4416 19.3483 10.8083C19.3656 10.8666 19.3915 10.9249 19.426 10.9749C19.426 11.0166 19.4433 11.0499 19.4519 11.0916C19.4174 11.1916 19.4001 11.2999 19.4088 11.3999C19.2533 11.6333 19.2015 11.9166 19.3051 12.2249C19.2965 12.3249 19.3051 12.4249 19.331 12.5249C19.331 12.5499 19.3051 12.5666 19.2965 12.5916C19.236 12.8333 19.2792 13.0583 19.3828 13.2499C19.3828 13.2999 19.3828 13.3499 19.4001 13.3999C19.236 13.6749 19.2015 13.9999 19.3569 14.3083C19.2706 14.5249 19.2619 14.7666 19.3742 15.0166C19.3397 15.1499 19.3397 15.2749 19.3742 15.3999C19.3742 15.4749 19.3828 15.5416 19.4088 15.6166C19.4088 15.6416 19.4001 15.6666 19.4001 15.6833C19.3656 15.7499 19.3483 15.8166 19.331 15.8916C19.331 15.8916 19.3138 15.8916 19.3138 15.8999C19.1756 15.8666 19.0287 15.8499 18.8905 15.8666C18.7178 15.8833 18.545 15.9333 18.3896 16.0083C18.2255 15.9083 18.0268 15.8916 17.8281 15.9083C17.8109 15.9083 17.7936 15.9166 17.7763 15.9166C17.6036 15.8249 17.3876 15.7833 17.1458 15.8166C16.999 15.8333 16.8781 15.8916 16.7658 15.9583C16.6794 15.9249 16.593 15.9083 16.5066 15.9083C16.2648 15.8416 16.0143 15.8499 15.7898 15.9583C15.522 15.8583 15.2283 15.8749 14.9519 16.0499C14.8915 16.0249 14.8397 16.0083 14.7792 15.9916C14.5805 15.8916 14.3646 15.8499 14.1573 15.8749C14.045 15.8416 13.9241 15.8333 13.7946 15.8499C13.665 15.8083 13.5182 15.7999 13.38 15.8166C13.2504 15.8166 13.1209 15.8249 12.9827 15.8749C12.7667 15.7999 12.5249 15.7999 12.2917 15.8833C12.0757 15.8333 11.8512 15.8583 11.6439 15.9583C11.4711 15.8666 11.2638 15.8166 11.022 15.8416C10.9788 15.8416 10.9356 15.8666 10.8924 15.8749C10.7715 15.8416 10.6506 15.8249 10.5124 15.8333C10.4692 15.8333 10.4347 15.8499 10.3915 15.8583C10.1583 15.7999 9.9078 15.8249 9.66596 15.9499C9.57095 15.9499 9.47594 15.9499 9.38957 15.9833C9.27728 15.9083 9.13909 15.8666 8.99226 15.8499C8.99226 15.8249 8.99226 15.7916 8.98362 15.7666C8.97498 15.7333 8.94907 15.7083 8.92316 15.6749C8.97498 15.5999 9.00953 15.5166 8.99226 15.4166C8.97498 15.3166 8.92316 15.2249 8.84542 15.1416C8.84542 15.1333 8.84542 15.1166 8.84542 15.1083C8.94043 14.9833 9.00089 14.8416 8.98362 14.6916C9.00089 14.6499 9.0268 14.6166 9.0268 14.5666C9.04408 14.4499 9.00089 14.3333 8.94907 14.2333C8.97498 14.1833 8.98362 14.1333 8.98362 14.0749C8.98362 13.9583 8.92316 13.8499 8.85406 13.7499C8.85406 13.7166 8.8627 13.6916 8.87133 13.6583C8.88861 13.5416 8.87133 13.4083 8.83678 13.2999C8.83678 13.2916 8.83678 13.2833 8.83678 13.2666C8.83678 13.2416 8.83678 13.2166 8.83678 13.1999C8.85406 13.1749 8.87133 13.1583 8.87997 13.1333C8.91452 13.0416 8.91452 12.9499 8.89725 12.8499C8.89725 12.8499 8.89725 12.8333 8.89725 12.8249C8.91452 12.7999 8.94043 12.7666 8.94907 12.7333C8.98362 12.6166 8.96634 12.4833 8.92316 12.3666C8.92316 12.3666 8.91452 12.3499 8.91452 12.3416C8.94907 12.2333 8.93179 12.1249 8.88861 12.0166C8.92316 11.9666 8.95771 11.9083 8.96634 11.8416C8.96634 11.8083 8.96634 11.7666 8.95771 11.7333C8.96634 11.6833 8.97498 11.6416 8.97498 11.5916C9.00953 11.5083 9.0268 11.4249 9.00089 11.3333C8.98362 11.2833 8.95771 11.2416 8.93179 11.2083C8.94907 11.1249 8.93179 11.0416 8.90588 10.9666C8.90588 10.9333 8.88861 10.9083 8.88861 10.8749C8.98362 10.7666 9.04408 10.6416 9.01817 10.4999C9.01817 10.4583 8.98362 10.4249 8.96634 10.3833C8.99226 10.3249 9.00089 10.2583 8.99226 10.1916C8.99226 10.1499 8.96634 10.1166 8.94907 10.0749C8.98362 10.0083 9.00089 9.94161 8.99226 9.86661C8.99226 9.80827 8.96634 9.74994 8.93179 9.69161C9.00953 9.56661 9.06135 9.42494 9.00089 9.28327C8.97498 9.21661 8.93179 9.15827 8.87997 9.10827C8.96634 8.96661 9.00953 8.79161 8.93179 8.64161C8.93179 8.63328 8.91452 8.62494 8.91452 8.61661C8.91452 8.61661 8.91452 8.59994 8.91452 8.59161C9.00089 8.45827 9.04408 8.30827 8.97498 8.15828C8.94907 8.09994 8.90588 8.04994 8.8627 8.00828C8.85406 7.99161 8.84542 7.96661 8.83678 7.94994C8.92316 7.75828 8.95771 7.52494 8.7936 7.36661C8.7936 7.36661 8.78496 7.36661 8.77632 7.35827C8.77632 7.35827 8.77632 7.35828 8.77632 7.34994C8.81087 7.24161 8.83678 7.12494 8.85406 7.01661C8.8627 6.89994 8.85406 6.76661 8.81087 6.65828C8.81087 6.64161 8.81087 6.61661 8.81087 6.59994C8.81087 6.58328 8.7936 6.56661 8.7936 6.54994C8.7936 6.52494 8.80224 6.49994 8.80224 6.46661C8.80224 6.45828 8.81951 6.44994 8.81951 6.44161C8.87133 6.35828 8.87997 6.26661 8.87997 6.16661C8.91452 6.12494 8.93179 6.08328 8.94907 6.03328C8.96634 5.95828 8.94907 5.87494 8.93179 5.79994C8.96634 5.73328 8.99226 5.66661 8.98362 5.58328C8.98362 5.54161 8.95771 5.49161 8.94043 5.44994C8.95771 5.40828 8.97498 5.36661 8.97498 5.32494C8.97498 5.30828 8.97498 5.29994 8.97498 5.28328C9.00089 5.22494 9.0268 5.16661 9.01817 5.09161C9.01817 5.04994 9.00089 5.01661 8.99226 4.97494C9.00953 4.97494 9.0268 4.97494 9.04408 4.96661C9.10454 4.94994 9.15636 4.91661 9.21682 4.89161C9.51049 5.03328 9.86462 5.09994 10.1324 4.89161C10.1324 4.89161 10.141 4.87494 10.1496 4.87494C10.1756 4.86661 10.2015 4.85828 10.2187 4.84994C10.2274 4.84994 10.236 4.84994 10.2447 4.85828C10.2965 4.87494 10.3569 4.88328 10.4174 4.89161C10.6333 5.04994 10.9011 5.13328 11.1516 5.04994C11.3329 5.09161 11.5143 5.08328 11.6871 4.97494C11.7562 4.99161 11.8339 4.99994 11.903 4.99994C11.9289 4.99994 11.9548 5.00828 11.9807 5.01661L11.998 4.99994ZM7.26481 5.46661C7.26481 5.46661 7.26481 5.50828 7.26481 5.52494C7.26481 5.56661 7.26481 5.59994 7.26481 5.64161C7.26481 5.69994 7.24753 5.74994 7.26481 5.81661C7.26481 5.83328 7.27344 5.84161 7.28208 5.85828C7.28208 5.95828 7.30799 6.04994 7.35982 6.13328C7.34254 6.24994 7.35982 6.36661 7.39437 6.47494C7.39437 6.51661 7.39437 6.54994 7.39437 6.59161C7.32527 6.73327 7.32527 6.87494 7.36845 7.02494C7.31663 7.15828 7.31663 7.28328 7.35982 7.40828C7.35982 7.42494 7.35982 7.43328 7.35982 7.44994C7.35982 7.46661 7.35982 7.47494 7.35982 7.49161C7.35982 7.52494 7.36845 7.54994 7.37709 7.58327C7.37709 7.61661 7.37709 7.65828 7.37709 7.69161C7.29936 7.79994 7.24753 7.92494 7.25617 8.09161C7.25617 8.16661 7.28208 8.23327 7.30799 8.29161C7.2389 8.45827 7.2389 8.63328 7.32527 8.80828C7.31663 8.85827 7.30799 8.89994 7.30799 8.94994C7.28208 9.06661 7.28208 9.17494 7.32527 9.29161C7.2389 9.44994 7.21298 9.63327 7.28208 9.81661C7.26481 9.89994 7.28208 9.98327 7.29936 10.0749C7.29072 10.0999 7.29936 10.1249 7.29072 10.1499C7.29072 10.1749 7.26481 10.1999 7.25617 10.2249C7.2389 10.3083 7.25617 10.3916 7.26481 10.4666C7.26481 10.4916 7.26481 10.5166 7.26481 10.5416C7.26481 10.5499 7.25617 10.5583 7.25617 10.5749C7.23026 10.6999 7.25617 10.8083 7.29072 10.9166C7.29072 10.9499 7.27344 10.9833 7.29072 11.0166C7.29936 11.0833 7.31663 11.1333 7.34254 11.1916C7.34254 11.2083 7.35982 11.2249 7.36845 11.2416C7.28208 11.3833 7.24753 11.5499 7.29936 11.7166C7.29936 11.7499 7.29936 11.7833 7.29936 11.8249C7.28208 11.8999 7.28208 11.9749 7.29072 12.0416C7.29072 12.0416 7.29072 12.0583 7.29072 12.0666C7.29072 12.0749 7.29072 12.0916 7.29072 12.0999C7.25617 12.1916 7.2389 12.2916 7.24753 12.4083C7.24753 12.4833 7.28208 12.5499 7.30799 12.6166C7.30799 12.6499 7.29072 12.6749 7.29072 12.7083C7.29072 12.7166 7.29072 12.7249 7.29072 12.7333C7.27344 12.8583 7.30799 12.9833 7.36845 13.0916C7.35982 13.1333 7.35118 13.1749 7.35118 13.2166C7.33391 13.2916 7.33391 13.3583 7.35118 13.4249C7.35118 13.5166 7.35118 13.5999 7.38573 13.6916C7.31663 13.7999 7.29072 13.9249 7.30799 14.0666C7.2389 14.1999 7.21298 14.3416 7.25617 14.5166C7.28208 14.5999 7.31663 14.6666 7.35982 14.7249C7.35982 14.7333 7.35982 14.7416 7.35982 14.7583C7.35118 14.7833 7.32527 14.8083 7.31663 14.8416C7.30799 14.8916 7.29936 14.9333 7.29936 14.9833C7.29936 14.9833 7.29936 14.9916 7.29936 14.9999C7.29936 15.0749 7.31663 15.1499 7.34254 15.2166C7.34254 15.2166 7.34254 15.2249 7.34254 15.2333C7.27344 15.3749 7.27344 15.5499 7.35118 15.7166C7.14389 15.7499 6.94523 15.8499 6.76385 16.0166C6.58247 16.0749 6.40972 16.1833 6.28016 16.3333C6.26289 16.3499 6.25425 16.3749 6.23698 16.3916C6.23698 16.3916 6.23698 16.3999 6.22834 16.4083C6.19379 16.4083 6.15924 16.4166 6.13333 16.4249C6.11606 16.3083 6.06423 16.1916 5.99513 16.0999C5.99513 16.0666 6.01241 16.0249 6.01241 15.9916C6.02968 15.8499 6.01241 15.6916 5.96922 15.5583C5.96922 15.5499 5.96922 15.5333 5.97786 15.5249C5.97786 15.4999 5.97786 15.4666 5.97786 15.4416C5.99513 15.4166 6.02105 15.3916 6.03832 15.3583C6.08151 15.2499 6.07287 15.1333 6.05559 15.0166C6.05559 15.0083 6.05559 14.9999 6.05559 14.9833C6.08151 14.9499 6.10742 14.9166 6.12469 14.8749C6.16788 14.7333 6.14197 14.5749 6.09878 14.4416C6.09878 14.4333 6.09014 14.4249 6.08151 14.4166C6.11606 14.2916 6.09878 14.1499 6.05559 14.0249C6.09878 13.9666 6.13333 13.8916 6.1506 13.8083C6.1506 13.7666 6.1506 13.7166 6.13333 13.6749C6.1506 13.6166 6.1506 13.5666 6.1506 13.5083C6.19379 13.4083 6.21106 13.3083 6.18515 13.1999C6.16788 13.1416 6.13333 13.0916 6.10742 13.0416C6.12469 12.9416 6.10742 12.8416 6.08151 12.7499C6.08151 12.7166 6.06423 12.6833 6.05559 12.6416C6.16788 12.5166 6.24561 12.3583 6.20243 12.1916C6.19379 12.1416 6.16788 12.0999 6.14197 12.0499C6.16788 11.9749 6.18515 11.8999 6.17652 11.8166C6.17652 11.7666 6.14197 11.7249 6.12469 11.6833C6.16788 11.6083 6.19379 11.5249 6.18515 11.4333C6.18515 11.3583 6.1506 11.2916 6.11606 11.2249C6.21106 11.0749 6.27153 10.9083 6.20243 10.7333C6.17652 10.6499 6.11606 10.5833 6.05559 10.5249C6.15924 10.3499 6.21106 10.1499 6.11606 9.96661C6.11606 9.95827 6.09878 9.94994 6.09014 9.93327C6.09014 9.92494 6.09014 9.91661 6.09014 9.89994C6.19379 9.74161 6.24561 9.55827 6.16788 9.37494C6.13333 9.30827 6.09014 9.24161 6.02968 9.19161C6.02105 9.16661 6.00377 9.14161 5.99513 9.11661C6.09878 8.89161 6.14197 8.59994 5.95195 8.41661C5.95195 8.41661 5.93467 8.41661 5.93467 8.40828C5.93467 8.40828 5.93467 8.40828 5.93467 8.39994C5.97786 8.26661 6.01241 8.12494 6.02105 7.99994C6.03832 7.85827 6.02105 7.69994 5.96922 7.56661C5.96922 7.54161 5.96922 7.52494 5.96922 7.49994C6.03832 7.41661 6.09014 7.32494 6.13333 7.23327C6.18515 7.09994 6.21106 6.95828 6.22834 6.82494C6.31471 6.79161 6.39245 6.74161 6.45291 6.65828C6.55655 6.52494 6.5911 6.34994 6.5911 6.18328C6.5911 6.16661 6.5911 6.15828 6.5911 6.14994C6.60838 6.10828 6.62565 6.06661 6.63429 6.02494C6.66884 5.97494 6.69475 5.91661 6.72066 5.85828C6.82431 5.76661 6.89341 5.65828 6.92796 5.52494C7.05751 5.55828 7.18707 5.56661 7.31663 5.51661L7.26481 5.46661Z" fill="currentColor"/>
</g>
<defs>
<clipPath id="clip0_239_18187">
<rect width="18" height="21" fill="none" transform="translate(4 2.5)"/>
</clipPath>
</defs>
</svg>
