<svg viewBox="0 0 26 26" fill="currentColor" xmlns="http://www.w3.org/2000/svg">
<path d="M22.9562 12.7166C22.9562 12.5683 22.9206 12.4268 22.8708 12.292C22.8494 11.9955 22.7141 11.7327 22.4862 11.5642C22.4506 11.4092 22.3438 11.2677 22.2156 11.1599C22.1871 11.1329 22.1515 11.1195 22.1159 11.0992C22.066 11.0386 21.9948 10.9847 21.9236 10.9375C21.8809 10.8499 21.8239 10.769 21.7527 10.6949C21.6031 10.5399 21.4108 10.4321 21.2114 10.3512C21.1901 10.3175 21.1687 10.2906 21.1402 10.2636C21.1473 10.2367 21.1473 10.2097 21.1545 10.176C21.183 10.1154 21.2043 10.0615 21.2186 10.0008C21.2399 9.92669 21.2328 9.84583 21.2399 9.7717C21.2898 9.73127 21.3325 9.69083 21.3681 9.63018C21.4108 9.55606 21.4251 9.47519 21.4322 9.39432C21.4892 9.29998 21.5177 9.20564 21.539 9.10455C21.539 9.09108 21.5533 9.0776 21.5604 9.06412C21.5604 9.03717 21.5604 9.01021 21.5604 8.98325C21.5604 8.97652 21.5604 8.96978 21.5604 8.9563C21.5604 8.90239 21.5604 8.85522 21.5462 8.80131C21.5675 8.70696 21.5746 8.60588 21.5675 8.5048C21.5533 8.3498 21.5105 8.20155 21.4465 8.06677C21.5818 7.99265 21.6886 7.87809 21.7313 7.72983C21.774 7.5681 21.7384 7.39963 21.6743 7.24463C21.6672 7.21768 21.6459 7.2042 21.6387 7.17725C21.7028 7.10986 21.7598 7.03573 21.7812 6.93465C21.7954 6.86726 21.7954 6.79313 21.7812 6.72574C21.7883 6.69879 21.8097 6.67183 21.8168 6.64488C21.8453 6.48988 21.7954 6.32815 21.7171 6.18664C21.7171 6.1799 21.7028 6.17316 21.7028 6.16642C21.8666 5.97099 21.9734 5.72166 21.8595 5.4858C21.8381 5.44537 21.8097 5.41841 21.7812 5.38472C21.7883 5.35776 21.8025 5.32407 21.8097 5.29711C21.8524 5.13538 21.8595 4.94669 21.8168 4.78496C22.0447 4.62997 22.2298 4.40758 22.1942 4.13803C22.18 4.02347 22.1159 3.91565 22.0375 3.81457C22.0803 3.62588 22.066 3.43045 21.9307 3.2822C21.8168 3.15416 21.6459 3.08677 21.4749 3.04634C21.3752 3.02612 21.2827 3.02612 21.183 3.01938C21.1616 3.00591 21.1545 2.98569 21.1331 2.97221C20.9907 2.88461 20.8126 2.87113 20.6417 2.87787C20.5776 2.87787 20.5206 2.90482 20.4637 2.91156C20.3141 2.90482 20.1717 2.91156 20.0364 2.93852C19.9438 2.88461 19.8512 2.82396 19.7444 2.797C19.7159 2.79026 19.6874 2.78352 19.6518 2.77679C19.545 2.72288 19.4382 2.68918 19.3313 2.66896C19.1818 2.60831 19.018 2.58136 18.8542 2.60158C18.8043 2.60158 18.7545 2.5881 18.6975 2.58136C18.5978 2.58136 18.5052 2.60158 18.4126 2.62179C18.0637 2.43311 17.6364 2.44658 17.3159 2.78352C17.2305 2.87113 17.1806 2.96547 17.145 3.06656C17.088 3.14068 17.0311 3.21481 16.9955 3.31589C16.91 3.53154 16.9314 3.7337 17.0097 3.92239C17.0026 3.95608 16.9883 3.98978 16.9883 4.02347C16.9242 4.14477 16.8815 4.29302 16.8815 4.4615C16.8815 4.4615 16.8815 4.4615 16.8815 4.46823C16.8388 4.59627 16.8245 4.73779 16.853 4.89278C16.8032 5.02756 16.7889 5.17581 16.8174 5.34428C16.8174 5.37798 16.8388 5.40493 16.8459 5.43863C16.8459 5.47906 16.8245 5.51949 16.8245 5.55319C16.8103 5.53971 16.796 5.53297 16.7818 5.51949C16.7676 5.45884 16.7676 5.39145 16.7391 5.3308C16.6963 5.22972 16.6394 5.14212 16.5682 5.06125C16.5824 4.913 16.561 4.77148 16.4542 4.64344C16.3545 4.52214 16.2121 4.45476 16.0554 4.40085C16.0483 4.29976 16.0198 4.19868 15.9486 4.10434C15.8418 3.96956 15.6708 3.88869 15.507 3.84152C15.4145 3.81457 15.3219 3.81457 15.2222 3.80109C15.2079 3.77413 15.1937 3.74718 15.1723 3.72022C15.1794 3.45741 15.1082 3.18785 14.859 3.05982C14.7094 2.97895 14.5243 2.97221 14.3533 2.99243C14.3177 2.99243 14.2821 3.01265 14.2465 3.01938C14.1824 2.99243 14.1183 2.97221 14.0471 2.95873C13.9973 2.93178 13.9545 2.89135 13.8976 2.87113C13.4703 2.71614 13.0002 2.80374 12.7439 3.16764C12.4447 3.20133 12.1741 3.33611 12.0175 3.56523C11.9818 3.59219 11.9462 3.62588 11.9106 3.66631C11.7112 3.7337 11.5474 3.86848 11.4406 4.05716C11.4192 4.07738 11.3907 4.09086 11.3694 4.11108C11.3551 4.12455 11.3409 4.14477 11.3267 4.16499C11.2056 4.2189 11.0916 4.29976 11.0062 4.41432C10.8424 4.47497 10.7 4.58953 10.586 4.75127C10.5077 4.79844 10.4293 4.84561 10.3652 4.91974C10.2869 5.0006 10.2299 5.08821 10.1943 5.18255C10.1017 5.25668 10.0234 5.33754 9.97355 5.43189C9.84536 5.49254 9.73142 5.58014 9.64596 5.68796C9.50353 5.73513 9.36109 5.816 9.2329 5.95078C9.15457 6.03164 9.11184 6.11925 9.07623 6.20685C9.0335 6.24055 8.99077 6.27424 8.95516 6.31468C8.76288 6.39554 8.59196 6.5438 8.49226 6.77965C8.47801 6.80661 8.47801 6.82683 8.47089 6.85378C8.39256 6.92791 8.33558 7.00878 8.28573 7.09638C8.27149 7.10986 8.243 7.1166 8.22876 7.12334C8.19315 7.15029 8.16466 7.17725 8.13618 7.2042C8.09345 7.21768 8.05784 7.22442 8.01511 7.24463C7.72312 7.29181 7.47387 7.4468 7.33856 7.70961C7.33144 7.71635 7.32432 7.72309 7.31719 7.72983C7.08218 7.80396 6.88278 7.97917 6.76883 8.24872C6.64776 8.30263 6.5267 8.39024 6.42699 8.51154C6.38426 8.56545 6.35578 8.6261 6.32729 8.68001C6.23471 8.74066 6.15637 8.82152 6.0994 8.90913C6.0994 8.90913 6.09228 8.90913 6.08516 8.90913C5.9 9.00347 5.78605 9.13825 5.71483 9.29998C5.49406 9.36063 5.3089 9.50215 5.20208 9.72453C4.9457 9.7717 4.71781 9.90648 4.5825 10.1356C4.53977 10.1693 4.49704 10.203 4.45431 10.2502C4.33324 10.3041 4.23354 10.3917 4.14096 10.4995C4.09111 10.5264 4.04838 10.5669 4.01277 10.6073C3.94868 10.6545 3.88458 10.7084 3.82761 10.7758C3.75639 10.8567 3.71366 10.9375 3.67806 11.0251C3.42168 11.0925 3.19379 11.261 3.0656 11.5508C2.9659 11.7799 2.98726 12.0023 3.07984 12.2044C3.07984 12.5009 3.20803 12.784 3.54275 12.9726C3.73503 13.0805 3.93443 13.1074 4.12672 13.0805C4.17657 13.1007 4.22642 13.1142 4.28339 13.1276C4.36885 13.1816 4.46855 13.2287 4.5825 13.2287C4.72493 13.2287 4.86024 13.1748 4.98131 13.1074C5.03828 13.1209 5.09525 13.1276 5.15935 13.1276C5.28754 13.1276 5.40148 13.1007 5.50119 13.0603C5.5724 13.1411 5.65786 13.2085 5.77181 13.2422C5.94272 13.2894 6.12789 13.2557 6.2988 13.2018C6.31305 13.2624 6.33441 13.3163 6.3629 13.3702C6.34866 13.3972 6.32017 13.4174 6.30593 13.4444C6.2632 13.5387 6.23471 13.6331 6.22047 13.7274C6.13501 13.9498 6.14925 14.1924 6.30593 14.435C6.30593 14.4619 6.30593 14.4889 6.30593 14.5158C6.1991 14.6708 6.14213 14.8528 6.15637 15.0415C6.15637 15.0617 6.15637 15.0819 6.15637 15.1021C6.15637 15.1358 6.17062 15.1628 6.17062 15.1897C6.08516 15.4188 6.0994 15.6817 6.27032 15.9243C6.14213 16.0658 6.06379 16.2612 6.05667 16.4903C6.05667 16.6049 6.07804 16.706 6.12076 16.807C6.05667 16.9486 6.03531 17.1103 6.07091 17.272C6.05667 17.3394 6.05667 17.4135 6.07091 17.4809C6.07091 17.4944 6.07091 17.5011 6.07091 17.5146C6.07091 17.5955 6.08516 17.6764 6.11364 17.7505C6.07091 17.8853 6.05667 18.0268 6.09228 18.1952C5.97833 18.4109 5.97121 18.6737 6.10652 18.9433C6.08516 19.0241 6.06379 19.1117 6.07091 19.2061C6.07091 19.2061 6.07091 19.2128 6.07091 19.2195C6.06379 19.2802 6.07091 19.3408 6.07091 19.4015C5.97121 19.6037 5.95697 19.8395 6.07091 20.0889C6.08516 20.1226 6.10652 20.1428 6.12076 20.1697C5.97121 20.4325 5.94985 20.7425 6.10652 21.0053C5.95697 21.376 6.02818 21.7803 6.39851 22.0431C6.39851 22.0499 6.39851 22.0566 6.40563 22.0633C6.40563 22.2183 6.44124 22.3868 6.54094 22.5485C6.64064 22.7103 6.76883 22.8113 6.92551 22.8855C6.9896 23.0203 7.09642 23.1348 7.2531 23.1955C7.40977 23.2561 7.59494 23.2359 7.75873 23.1955C7.77298 23.1955 7.78722 23.182 7.80858 23.1752C7.85844 23.1752 7.90829 23.1752 7.95102 23.1752C8.16466 23.3437 8.43529 23.4583 8.69878 23.3505C8.72727 23.337 8.74864 23.3168 8.77 23.3033C8.95516 23.3774 9.15457 23.3976 9.33261 23.3033C9.37534 23.2763 9.41094 23.2426 9.44655 23.2089C9.53201 23.2292 9.63171 23.2359 9.72429 23.2359C9.84536 23.3707 9.99492 23.465 10.1872 23.4718C10.3652 23.4718 10.5362 23.4044 10.6857 23.31C10.7213 23.31 10.7569 23.3033 10.7854 23.2965C10.8068 23.2965 10.8281 23.2965 10.8566 23.2965C10.935 23.3572 11.0275 23.4044 11.1344 23.4111C11.2768 23.4246 11.4192 23.3774 11.5545 23.31C11.5759 23.3235 11.5902 23.337 11.6186 23.3437C11.754 23.3841 11.9035 23.3707 12.0459 23.3437C12.1385 23.3976 12.2382 23.4313 12.3593 23.4246C12.4447 23.4246 12.5231 23.3976 12.5943 23.3639C12.6798 23.4044 12.7652 23.4313 12.8649 23.4246C12.9219 23.4246 12.9717 23.3976 13.0216 23.3841C13.0786 23.4044 13.1427 23.4111 13.1996 23.4111C13.2851 23.4448 13.3777 23.4583 13.4774 23.4448C13.5272 23.4381 13.5771 23.4111 13.6269 23.3909C13.6625 23.3841 13.7053 23.3774 13.7409 23.3639C13.926 23.465 14.1254 23.5054 14.3248 23.4448C14.3676 23.4583 14.4032 23.4785 14.4459 23.4852C14.5599 23.4987 14.6738 23.465 14.7806 23.4246C14.9302 23.4987 15.1011 23.5257 15.2649 23.465C15.3432 23.4381 15.4216 23.3909 15.4857 23.337C15.6708 23.3976 15.8774 23.4111 16.0554 23.337C16.1622 23.3639 16.2619 23.3774 16.3687 23.3639C16.4186 23.3774 16.4685 23.3909 16.5254 23.3976C16.7248 23.4246 16.8957 23.3841 17.0524 23.31C17.1664 23.31 17.2874 23.2898 17.3943 23.2561C17.4512 23.2696 17.5082 23.2696 17.5723 23.2696C17.729 23.4178 17.9284 23.5189 18.1563 23.4718C18.1705 23.4718 18.1848 23.4583 18.2061 23.4515C18.2845 23.4852 18.3628 23.5054 18.4554 23.4987C18.5978 23.4987 18.7331 23.4313 18.8613 23.3505C18.9539 23.3572 19.0465 23.3505 19.1319 23.3302C19.3242 23.4313 19.5379 23.4785 19.7444 23.3841C19.8512 23.337 19.9367 23.2494 20.0079 23.1483C20.2358 23.1348 20.4637 23.0539 20.5705 22.8518C20.6488 22.717 20.656 22.5485 20.6346 22.3935C20.6488 22.3733 20.6702 22.3531 20.6844 22.3329C20.834 22.1375 20.9408 21.8746 20.8767 21.6388C20.9764 21.4231 21.012 21.1805 20.8625 20.9784C20.8625 20.9716 20.8411 20.9649 20.834 20.9514C20.834 20.9177 20.834 20.884 20.8269 20.8436C20.8411 20.8167 20.8625 20.7897 20.8696 20.756C20.9052 20.6077 20.8696 20.446 20.8126 20.2978C20.8197 20.1495 20.7841 20.0013 20.6844 19.88C20.6488 19.7519 20.599 19.6374 20.5278 19.5295C20.5278 19.5161 20.5278 19.5093 20.5278 19.4958C20.7058 19.3678 20.8411 19.1926 20.8269 18.9769C20.8197 18.8152 20.7272 18.6602 20.6203 18.5254C20.6203 18.5187 20.6061 18.512 20.599 18.5052C20.6203 18.3907 20.6275 18.2694 20.6132 18.1548C20.7272 17.9796 20.7841 17.7707 20.6987 17.5753C20.6987 17.5618 20.6773 17.5551 20.6702 17.5416C20.6488 17.454 20.6203 17.3596 20.5776 17.2788C20.5847 17.2451 20.6061 17.2181 20.6132 17.1777C20.6203 17.0766 20.5919 16.9755 20.5491 16.8812C20.6488 16.7531 20.7058 16.6049 20.6773 16.4431C20.6631 16.3421 20.6061 16.2477 20.542 16.1601C20.5705 16.0995 20.599 16.0321 20.599 15.9647C20.6061 15.803 20.5349 15.6345 20.4352 15.4997C20.4352 15.4997 20.4352 15.4997 20.4352 15.493C20.4637 15.4121 20.4779 15.3312 20.485 15.2504C20.485 15.2369 20.4922 15.2302 20.4922 15.2167C20.4922 15.1628 20.4779 15.1089 20.4637 15.0549C20.4637 15.0415 20.4637 15.0213 20.4565 15.0078C20.4281 14.9269 20.3853 14.846 20.3355 14.7719C20.307 14.7315 20.2714 14.7045 20.2358 14.6708C20.25 14.6371 20.2643 14.6034 20.2785 14.5765C20.2856 14.5563 20.2856 14.5293 20.2928 14.5091C20.3497 14.4485 20.3925 14.3743 20.4209 14.2867C20.4423 14.1991 20.4423 14.1115 20.4281 14.0239C20.4708 13.8757 20.4637 13.7274 20.3996 13.5926C20.5349 13.66 20.6916 13.687 20.8482 13.6465C20.9551 13.6128 21.0476 13.5522 21.1331 13.4713C21.1972 13.5387 21.2755 13.5994 21.3824 13.6263C21.4037 13.6263 21.4251 13.6263 21.4536 13.6263C21.6102 13.7004 21.7883 13.7341 21.9663 13.6735C22.1088 13.6263 22.2156 13.5185 22.3082 13.4039C22.5361 13.4039 22.7568 13.3365 22.885 13.1546C22.9776 13.0198 23.0061 12.8446 22.999 12.6761L22.9562 12.7166ZM15.2435 21.2682C15.1652 21.2345 15.0797 21.2075 14.9943 21.194C14.8234 21.1469 14.6382 21.1401 14.4317 21.194C14.3605 21.2142 14.3035 21.2479 14.2465 21.2749C14.2465 21.2749 14.2394 21.2749 14.2323 21.2749C14.0186 21.1738 13.7765 21.1469 13.5486 21.2075C13.4275 21.1805 13.2922 21.1873 13.164 21.221C13.1355 21.221 13.1142 21.221 13.0857 21.221C12.986 21.2008 12.8792 21.2008 12.7723 21.221C12.7439 21.221 12.7225 21.221 12.7011 21.221C12.6726 21.221 12.6513 21.2277 12.6228 21.2345C12.5658 21.221 12.5017 21.2075 12.4376 21.2075C12.3522 21.1873 12.2596 21.1805 12.1528 21.1873C12.0246 21.194 11.9177 21.2345 11.818 21.2816C11.6258 21.1805 11.3907 21.1469 11.1273 21.2277C11.056 21.2142 10.9848 21.2142 10.9065 21.2142C10.8709 21.2142 10.8424 21.2277 10.8068 21.2345C10.586 21.1199 10.3154 21.0862 10.0163 21.194C9.90233 21.2345 9.80975 21.3018 9.73142 21.3692C9.68869 21.3692 9.64596 21.3895 9.60323 21.3962C9.55338 21.376 9.51065 21.3423 9.4608 21.3288C9.33261 21.2951 9.20442 21.2884 9.08335 21.2951C8.90531 21.221 8.71303 21.194 8.52787 21.2277C8.46377 21.2008 8.39256 21.1873 8.32134 21.1738C8.37831 21.0053 8.38543 20.8301 8.3071 20.6684C8.4068 20.4999 8.44953 20.3112 8.39256 20.1293C8.42816 20.0619 8.44953 19.9878 8.44953 19.9069C8.44953 19.7721 8.38543 19.6374 8.31422 19.5228C8.31422 19.4689 8.3071 19.4082 8.28573 19.3543C8.28573 19.3543 8.28573 19.3476 8.28573 19.3408C8.32846 19.2869 8.36407 19.2195 8.37831 19.1454C8.39256 19.0915 8.37831 19.0376 8.37831 18.9837C8.47089 18.8691 8.53499 18.7411 8.52074 18.5861C8.51362 18.4918 8.47089 18.4041 8.42104 18.3233C8.42104 18.2626 8.42104 18.2087 8.4068 18.1481C8.4068 18.0942 8.4068 18.0335 8.4068 17.9796C8.41392 17.8718 8.4068 17.764 8.37831 17.6629C8.47089 17.5483 8.52074 17.4135 8.52074 17.272C8.54211 17.1979 8.54923 17.117 8.53499 17.0362C8.52074 16.9486 8.47801 16.8744 8.42816 16.8003C8.42816 16.7801 8.42816 16.7666 8.42816 16.7464C8.4068 16.6655 8.36407 16.5847 8.33558 16.5105C8.45665 16.2882 8.5065 16.0321 8.34983 15.8232C8.51362 15.6547 8.62045 15.4391 8.54923 15.2099C8.53499 15.1695 8.51362 15.1426 8.49226 15.1089C8.54923 14.9943 8.57772 14.873 8.53499 14.7382C8.49938 14.6237 8.42104 14.5293 8.32134 14.4417C8.49938 14.2867 8.62045 14.0846 8.5706 13.8554C8.55635 13.7813 8.52074 13.7072 8.47089 13.6465C8.5065 13.532 8.52074 13.4174 8.51362 13.3028C8.52074 13.3028 8.53499 13.3028 8.54211 13.3028C8.59908 13.3096 8.65605 13.3163 8.72015 13.3163C8.85546 13.4107 9.01926 13.4646 9.19017 13.4376C9.22578 13.4376 9.25427 13.4107 9.28988 13.3972C9.35397 13.4107 9.42519 13.4107 9.4964 13.3972C9.59611 13.377 9.68869 13.3231 9.77415 13.2624C9.84536 13.2826 9.91658 13.2961 10.002 13.2961C10.1943 13.3028 10.3652 13.2557 10.5077 13.1681C10.529 13.1816 10.5575 13.195 10.5789 13.2018H10.5931C10.7356 13.3568 10.9207 13.4713 11.1415 13.4511C11.2341 13.4444 11.3267 13.4039 11.4121 13.3568C11.4477 13.3433 11.4905 13.3365 11.5261 13.3231C11.5617 13.3096 11.5902 13.2826 11.6258 13.2624C11.7397 13.3231 11.8679 13.3568 12.0175 13.3702C12.1385 13.377 12.2453 13.3568 12.3522 13.3231C12.3807 13.3231 12.402 13.3365 12.4305 13.3433C12.4875 13.35 12.5302 13.3433 12.5872 13.3433C12.7652 13.377 12.9433 13.377 13.0999 13.3096C13.1498 13.3163 13.1996 13.3163 13.2495 13.3231C13.4845 13.4578 13.7622 13.5252 14.0044 13.3905C14.0329 13.3702 14.0542 13.3433 14.0827 13.3231C14.097 13.3231 14.1041 13.3096 14.1183 13.3028C14.1682 13.3028 14.218 13.2961 14.2679 13.2894C14.4174 13.3231 14.5812 13.3231 14.745 13.2894C14.9088 13.4578 15.1225 13.5724 15.3646 13.532C15.4002 13.5454 15.4358 13.5657 15.4785 13.5724C15.6495 13.5926 15.8346 13.532 15.9842 13.4511C16.0269 13.4241 16.0625 13.3905 16.1053 13.3635C16.1836 13.3635 16.2619 13.35 16.3403 13.3298C16.3616 13.3298 16.3901 13.3298 16.4115 13.3298C16.4542 13.35 16.4898 13.377 16.5397 13.3905C16.6465 13.4309 16.7533 13.4444 16.8601 13.4444C16.8601 13.4444 16.8673 13.4444 16.8744 13.4444C17.1236 13.5185 17.3515 13.4781 17.5581 13.377C17.5581 13.377 17.5723 13.3837 17.5794 13.3905C17.7076 13.4646 17.8643 13.5185 18.0138 13.5387C18.0138 13.5589 18.0138 13.5791 18.0138 13.6061C17.9854 13.7207 17.9711 13.842 17.9925 13.9835C18.0067 14.0576 18.0281 14.125 18.0566 14.1924C18.0352 14.3608 18.0637 14.5361 18.1491 14.691C18.1563 14.7382 18.1705 14.7787 18.1919 14.8258C18.1278 15.001 18.1207 15.2032 18.2061 15.4188C18.2061 15.4323 18.2204 15.4458 18.2275 15.4593C18.1278 15.6547 18.0993 15.8906 18.199 16.1466C18.2132 16.1871 18.2417 16.2208 18.2631 16.2612C18.1705 16.4566 18.1563 16.6857 18.2489 16.9149C18.2489 17.0294 18.2631 17.144 18.3129 17.2518C18.2702 17.4001 18.256 17.5685 18.3129 17.7505C18.3272 17.7977 18.3557 17.8381 18.377 17.8785C18.3058 18.1076 18.3272 18.357 18.4839 18.5794C18.3486 18.8017 18.3272 19.078 18.4696 19.3745C18.491 19.415 18.5195 19.4487 18.548 19.4824C18.5124 19.5632 18.491 19.6441 18.4767 19.7384C18.4625 19.8665 18.4839 19.981 18.5266 20.0889C18.4839 20.2169 18.4696 20.3652 18.4981 20.5201C18.5195 20.6347 18.5622 20.729 18.6192 20.8099C18.6192 20.9649 18.6405 21.1132 18.7189 21.2412C18.5693 21.2142 18.4126 21.2277 18.2489 21.2816C18.0423 21.221 17.8144 21.2412 17.5865 21.349C17.5794 21.3423 17.5723 21.3288 17.5581 21.3221C17.4085 21.2412 17.2162 21.2277 17.0382 21.2412C16.9883 21.2412 16.9456 21.2682 16.8957 21.2749C16.8459 21.2749 16.796 21.2749 16.7462 21.2749C16.5895 21.2951 16.44 21.3423 16.2975 21.4029C16.0768 21.3018 15.8418 21.2682 15.621 21.3153C15.507 21.2816 15.386 21.2682 15.272 21.2682H15.2435ZM7.30295 10.4658C7.35992 10.4321 7.40977 10.3984 7.45963 10.3647C7.58069 10.3782 7.70176 10.3715 7.80858 10.3108C7.90117 10.2636 7.97238 10.1828 8.02935 10.0952C8.13618 10.0278 8.20739 9.94017 8.25725 9.82561C8.43529 9.82561 8.6062 9.77844 8.72727 9.64366C8.79137 9.57627 8.83409 9.50215 8.86258 9.41454C8.90531 9.38085 8.94804 9.35389 8.98365 9.30672C8.99789 9.2865 8.99789 9.26629 9.01213 9.23933C9.18305 9.20564 9.33973 9.13151 9.43231 8.98325C9.48216 8.90913 9.51065 8.81478 9.52489 8.72718C9.69581 8.6261 9.824 8.47784 9.84536 8.28242C10.0163 8.28915 10.1872 8.25546 10.3154 8.12742C10.3795 8.06003 10.4293 7.97917 10.4578 7.89156C10.4792 7.88482 10.5005 7.89156 10.5219 7.87809C10.643 7.82417 10.7284 7.72309 10.8068 7.62201C10.9207 7.54788 11.0133 7.45354 11.0489 7.3255C11.0632 7.28507 11.0489 7.2379 11.056 7.19746C11.113 7.17725 11.17 7.15703 11.2198 7.13007C11.2341 7.13007 11.2412 7.1166 11.2554 7.10986C11.4406 7.06942 11.6044 6.98182 11.7041 6.8403C11.8109 6.76618 11.9035 6.67183 11.9676 6.56401C11.9676 6.55727 11.9747 6.5438 11.9818 6.53032C12.0958 6.51684 12.2097 6.48988 12.3023 6.41576C12.402 6.33489 12.459 6.22033 12.5088 6.09903C12.6085 6.07208 12.7011 6.03164 12.7723 5.95752C12.8649 5.86317 12.9077 5.7284 12.9361 5.60036C12.9717 5.59362 13.0002 5.58014 13.0358 5.56666C13.2281 5.53971 13.4133 5.46558 13.513 5.29711C13.5557 5.22298 13.5842 5.14212 13.5984 5.06125C13.6127 5.06125 13.6341 5.04777 13.6483 5.04103C13.6697 5.04777 13.691 5.06125 13.7124 5.06799C13.7124 5.07473 13.7266 5.08147 13.7338 5.08821C13.7836 5.31059 13.926 5.51949 14.1895 5.66775C14.2038 5.67449 14.2251 5.68122 14.2394 5.68796C14.2964 5.89687 14.4388 6.09229 14.6881 6.22707C14.745 6.25403 14.7949 6.27424 14.8518 6.28772C14.9159 6.44945 15.0085 6.60444 15.151 6.69205C15.2151 6.78639 15.2934 6.86726 15.3788 6.93465C15.3931 6.95486 15.4145 6.97508 15.4358 6.9953C15.4999 7.17725 15.6281 7.35246 15.8489 7.47375C15.9058 7.50745 15.9557 7.52093 16.0127 7.54114C16.0768 7.71635 16.1693 7.88482 16.326 7.98591C16.4044 8.18807 16.5397 8.36328 16.7676 8.41045C16.796 8.41719 16.8317 8.41045 16.8601 8.41045C16.8957 8.45089 16.9314 8.49132 16.967 8.53175C16.9741 8.54523 16.9812 8.55197 16.9883 8.56545C17.0311 8.80131 17.1521 9.01021 17.3729 9.14499C17.4156 9.1989 17.4584 9.25281 17.5224 9.30672C17.5224 9.30672 17.5367 9.31346 17.5438 9.3202C17.6222 9.52236 17.7717 9.69083 17.9782 9.79192C18.0138 9.88626 18.0637 9.97386 18.1349 10.048C18.2061 10.1423 18.2987 10.2165 18.4055 10.2704C18.4696 10.3849 18.5551 10.486 18.6761 10.5467C18.7331 10.7017 18.8328 10.8432 18.9824 10.951C19.0465 11.0116 19.1106 11.0723 19.2031 11.1262C19.2388 11.1464 19.2744 11.1532 19.31 11.1666C19.3598 11.2542 19.4239 11.3418 19.5023 11.416C19.4382 11.416 19.3741 11.4092 19.31 11.416C19.2103 11.4227 19.1177 11.4564 19.0251 11.4834C18.7474 11.2879 18.377 11.2408 18.0138 11.4429C18.0138 11.4429 18.0067 11.4497 17.9996 11.4564C17.7361 11.3486 17.4512 11.3418 17.202 11.4564C17.0667 11.4631 16.9385 11.4901 16.8103 11.5305C16.7248 11.5103 16.6394 11.5036 16.5539 11.4968C16.5041 11.4901 16.4471 11.4766 16.3972 11.4766C16.1765 11.2677 15.856 11.1599 15.4785 11.261C15.4501 11.2677 15.4287 11.2812 15.4002 11.2947C15.215 11.2408 15.0228 11.2475 14.8234 11.3284C14.7023 11.3284 14.5883 11.3351 14.4744 11.3688C14.3177 11.2745 14.1254 11.2273 13.8976 11.2542C13.805 11.261 13.7195 11.2879 13.6412 11.3216C13.4489 11.2475 13.2352 11.2205 13.0358 11.2745C13.0074 11.2745 12.9717 11.2745 12.9433 11.2745C12.9148 11.2745 12.8934 11.2879 12.8649 11.2879C12.8578 11.2879 12.8507 11.2745 12.8364 11.2677C12.6869 11.1936 12.5017 11.1936 12.3308 11.2205C12.2809 11.2273 12.2382 11.2542 12.1884 11.261C12.0958 11.261 12.0103 11.2745 11.9249 11.2947C11.754 11.1801 11.5403 11.1329 11.291 11.1666C11.1201 11.1262 10.9278 11.1464 10.7356 11.2205C10.5931 11.1599 10.4222 11.1599 10.2655 11.1869C10.1445 11.2071 10.0305 11.2542 9.91658 11.3014C9.88809 11.3014 9.86673 11.3014 9.83824 11.3014C9.68869 11.1869 9.51065 11.1195 9.31836 11.106C9.16881 11.0588 9.00501 11.0521 8.84122 11.0858C8.74151 11.0656 8.63469 11.0588 8.52074 11.0656C8.46377 11.0656 8.41392 11.0925 8.35695 11.106C8.23588 11.0723 8.09345 11.0656 7.94389 11.0925C7.90829 11.0925 7.88692 11.1127 7.85844 11.1195C7.62342 11.0656 7.38841 11.0992 7.17476 11.2205C7.1534 11.2205 7.13915 11.2071 7.11779 11.2003C7.06082 11.1869 7.01096 11.2003 6.95399 11.1869C6.93975 11.1734 6.92551 11.1666 6.91126 11.1532C6.97536 11.1195 7.03233 11.079 7.08218 11.0184C7.17476 10.8971 7.21037 10.7421 7.21037 10.5938C7.23886 10.5534 7.26734 10.513 7.28871 10.4658H7.30295ZM19.7301 4.8793C19.7301 4.8793 19.7871 4.88604 19.8156 4.89278C19.8156 4.96017 19.8156 5.0343 19.8156 5.10168C19.7942 5.14886 19.7515 5.19603 19.7373 5.24994C19.7017 5.35776 19.6874 5.47232 19.6874 5.58688C19.6233 5.70818 19.5877 5.83622 19.5877 5.97099C19.5379 6.07208 19.5094 6.18664 19.5094 6.30794C19.4738 6.42924 19.4666 6.56401 19.4951 6.71227C19.4951 6.73248 19.5094 6.73922 19.5094 6.75944C19.3883 6.92791 19.3242 7.13681 19.3598 7.38615C19.3741 7.46702 19.3954 7.54114 19.431 7.60853C19.3883 7.66244 19.3527 7.72983 19.3171 7.79722C19.2744 7.76353 19.2388 7.72309 19.1818 7.70288C19.1462 7.6894 19.0963 7.68266 19.0536 7.67592C19.0465 7.62201 19.0251 7.58158 19.0037 7.5344C19.1177 7.39289 19.196 7.23116 19.1533 7.04921C19.1319 6.96834 19.0892 6.88748 19.0394 6.82009C19.075 6.70553 19.0892 6.59097 19.0821 6.47641C19.0821 6.44945 19.0678 6.4225 19.0607 6.39554C19.196 6.24729 19.2886 6.07208 19.2459 5.86991C19.2388 5.82274 19.2103 5.78905 19.1889 5.74187C19.2031 5.71492 19.2245 5.6947 19.2316 5.66775C19.2672 5.52623 19.2316 5.37798 19.1818 5.2432C19.2388 5.16233 19.2886 5.07473 19.2957 4.96691C19.2957 4.95343 19.2886 4.93321 19.2886 4.91974C19.3242 4.91974 19.3598 4.90626 19.4026 4.89952C19.5094 4.92647 19.6233 4.93321 19.7301 4.90626V4.8793Z" fill="currentColor"/>
</svg>
