<svg viewBox="0 0 26 26" fill="currentColor" xmlns="http://www.w3.org/2000/svg">
<g clip-path="url(#clip0_239_18190)">
<path d="M22.9893 11.6189C22.9653 11.4901 22.8983 11.3733 22.8146 11.2716C22.7832 11.2056 22.7476 11.1418 22.7078 11.0812C22.8114 10.9255 22.8669 10.7448 22.8188 10.5522C22.7874 10.4289 22.7162 10.3197 22.6283 10.2266C22.5958 10.1715 22.5529 10.1206 22.4996 10.0774C22.4734 10.0568 22.4451 10.0384 22.4148 10.0233C22.4043 9.96269 22.3844 9.90536 22.3572 9.85019C22.2756 9.48023 22.037 9.17625 21.6958 9.07998C21.6236 8.9361 21.5179 8.81495 21.385 8.7284C21.3703 8.71002 21.3557 8.69163 21.3379 8.67432C21.2657 8.604 21.1757 8.55749 21.0794 8.52612C21.0281 8.43849 20.959 8.36385 20.8628 8.31301C20.8397 8.30111 20.8157 8.29137 20.7906 8.28272C20.7623 8.25784 20.7319 8.23404 20.6974 8.21457C20.5467 8.12695 20.3604 8.11505 20.1867 8.1356C20.1679 8.13776 20.149 8.14209 20.1302 8.14426C19.9701 7.98632 19.7566 7.89004 19.5064 7.89653C19.4562 7.86083 19.4018 7.82946 19.3442 7.80567C19.1977 7.70723 19.0156 7.65206 18.8 7.66287C18.7927 7.66287 18.7864 7.66504 18.7791 7.66504C18.6567 7.51792 18.4997 7.40974 18.3155 7.36323C18.2328 7.30914 18.1397 7.26911 18.0455 7.24207C18.0381 7.23991 18.0308 7.23882 18.0224 7.23666C17.9774 7.0387 17.8791 6.86237 17.6938 6.77042C17.6049 6.72607 17.5055 6.70876 17.405 6.7066C17.4029 6.70552 17.4008 6.70335 17.3998 6.70227C17.3516 6.56489 17.2543 6.44481 17.1454 6.34746C17.0827 6.24902 17.0063 6.16247 16.9152 6.09541C16.8221 5.87797 16.6651 5.70165 16.4547 5.60861C16.3982 5.52207 16.3344 5.44202 16.2622 5.37063C16.1868 5.25813 16.0979 5.15752 15.9984 5.07098C15.9796 5.0104 15.9576 4.95199 15.9294 4.89465C15.9199 4.87518 15.9095 4.85787 15.899 4.83948C15.8435 4.62854 15.7284 4.44464 15.5631 4.31591C15.5327 4.25966 15.494 4.20774 15.4438 4.16122C15.315 4.04439 15.1361 3.99355 14.9634 3.97732C14.9477 3.97624 14.932 3.97516 14.9163 3.97516C14.7803 3.83345 14.6128 3.73393 14.4276 3.69823C14.2884 3.60195 14.1147 3.54678 13.9074 3.55111C13.7703 3.55436 13.65 3.58897 13.5432 3.64739C13.5296 3.65171 13.5171 3.65712 13.5045 3.66253C13.1581 3.43536 12.7154 3.42563 12.3575 3.78044C12.3334 3.80424 12.3136 3.82912 12.2937 3.854C12.0927 3.854 11.8928 3.92973 11.7223 4.09956C11.582 4.13418 11.4439 4.20666 11.3151 4.32673C11.1571 4.39488 11.0137 4.51388 10.8997 4.69669C10.8243 4.81677 10.7835 4.94009 10.7689 5.06557C10.593 5.1413 10.4444 5.27219 10.3513 5.45609C10.2498 5.53289 10.1587 5.63566 10.0855 5.77088C10.0363 5.86066 10.007 5.95261 9.99127 6.04348C9.99127 6.04348 9.99022 6.04348 9.98918 6.04456C9.79452 6.12245 9.63021 6.262 9.52975 6.46212C9.50567 6.49457 9.4837 6.53135 9.46277 6.56922C9.39788 6.61465 9.33509 6.66982 9.27544 6.73689C9.23462 6.78232 9.20218 6.82992 9.17392 6.8786C9.02636 6.97596 8.90705 7.11875 8.83484 7.30697C8.65379 7.32753 8.48111 7.40541 8.33773 7.55145C8.32203 7.55902 8.30843 7.56984 8.29378 7.5785C8.19226 7.56984 8.09179 7.57741 7.99447 7.60121C7.80818 7.6077 7.62294 7.67694 7.46073 7.81973C7.29537 7.84677 7.13316 7.92682 6.9856 8.0707C6.9856 8.0707 6.9856 8.0707 6.98455 8.0707C6.88304 8.07935 6.79199 8.10639 6.70931 8.14534C6.61303 8.15291 6.51361 8.17671 6.41105 8.21998C6.26034 8.2838 6.14627 8.38224 6.06045 8.50124C5.96417 8.53261 5.87417 8.57696 5.79358 8.63537C5.68265 8.67756 5.58114 8.73706 5.49532 8.81386C5.30171 8.83766 5.10915 8.93178 4.93961 9.11135C4.90088 9.15245 4.86844 9.19681 4.83914 9.24224C4.64762 9.35582 4.49901 9.54513 4.43412 9.81124C4.36191 9.8967 4.30017 10.0006 4.25517 10.126C4.20912 10.2558 4.19447 10.3813 4.20389 10.5025C4.05423 10.6929 3.98202 10.9482 4.04062 11.25C4.04376 11.264 4.04795 11.277 4.05109 11.2911C4.03853 11.3473 4.03016 11.4047 4.02493 11.4609C3.97679 11.6654 3.99876 11.859 4.07097 12.0343C4.10132 12.1662 4.15888 12.2896 4.24261 12.3945C4.19656 12.5838 4.21226 12.7947 4.31482 13.0132C4.33156 13.05 4.35145 13.0825 4.37133 13.1149C4.39854 13.2134 4.44459 13.3118 4.51052 13.4092C4.53041 13.4384 4.55238 13.4643 4.57541 13.4903C4.63192 13.6547 4.74076 13.8062 4.90926 13.9252C4.93751 14.2064 5.05054 14.4942 5.31845 14.5969C5.32683 14.6002 5.33415 14.6024 5.34252 14.6045C5.35822 14.6424 5.37497 14.6802 5.39381 14.717C5.39381 14.7203 5.3959 14.7246 5.39694 14.7278C5.39694 14.73 5.39799 14.7322 5.39904 14.7343C5.40113 14.7408 5.40218 14.7473 5.40427 14.7538C5.41892 14.8187 5.43881 14.8836 5.46706 14.9507C5.54974 15.1443 5.68056 15.2785 5.83754 15.3682C5.87522 15.4029 5.91603 15.4353 5.95894 15.4645C5.96208 15.4786 5.96417 15.4926 5.96731 15.5067C5.97464 15.537 5.98301 15.5684 5.99138 15.5997C6.00185 15.7944 6.05313 15.9935 6.16615 16.1406C6.16825 16.2672 6.19546 16.384 6.24465 16.4922C6.23941 16.556 6.24046 16.6198 6.24883 16.6826C6.24569 16.8232 6.26976 16.9617 6.32314 17.0882C6.23209 17.2667 6.20069 17.4831 6.25616 17.7286C6.26244 17.7546 6.27081 17.7784 6.27813 17.8022C6.26034 17.866 6.24988 17.9331 6.24778 18.0034C6.23523 18.0672 6.22581 18.1332 6.22476 18.2046C6.22267 18.3106 6.23732 18.408 6.26558 18.4988C6.25197 18.6535 6.27604 18.819 6.35244 18.99C6.35767 19.0008 6.36395 19.0105 6.36918 19.0213C6.34093 19.1414 6.33569 19.2658 6.35558 19.3859C6.33779 19.6195 6.41105 19.8619 6.6057 20.075C6.62768 20.0988 6.6507 20.1193 6.67477 20.1399C6.6507 20.2859 6.66012 20.446 6.71664 20.6158C6.73861 20.6808 6.76687 20.7381 6.79931 20.7922C6.82548 20.9014 6.87152 21.0118 6.94269 21.121C7.0149 21.2314 7.10281 21.3147 7.19909 21.3774C7.29224 21.5299 7.43457 21.6576 7.63027 21.742C7.69829 21.8263 7.78516 21.9031 7.8919 21.968C7.89504 21.9702 7.89818 21.9713 7.90132 21.9735C8.01435 22.1076 8.17029 22.2125 8.37436 22.2688C8.4539 22.2904 8.53134 22.2991 8.60669 22.2991C8.64228 22.3218 8.67995 22.3412 8.72286 22.3564C8.84531 22.3975 8.97926 22.3921 9.10694 22.3618C9.11845 22.365 9.12997 22.3672 9.14148 22.3694C9.28904 22.4776 9.46172 22.536 9.64591 22.4884C9.65219 22.4862 9.65847 22.484 9.66475 22.4819C9.73905 22.4819 9.81336 22.4711 9.88662 22.4527C9.94522 22.4754 10.0091 22.4895 10.0771 22.4895C10.2121 22.4895 10.344 22.4386 10.4633 22.365C10.5062 22.3661 10.5501 22.3629 10.5951 22.3531C10.682 22.3326 10.7626 22.2893 10.8348 22.2342C10.9949 22.3045 11.1697 22.325 11.3371 22.2471C11.4208 22.2082 11.4931 22.1487 11.5569 22.0784C11.7066 22.1076 11.8583 22.0914 11.9933 21.9994C12.0875 21.9356 12.1608 21.8415 12.2173 21.7376C12.368 21.7658 12.5291 21.7322 12.6757 21.676C12.7678 21.6403 12.8557 21.5938 12.9373 21.5407C13.1906 21.6835 13.5087 21.7625 13.7578 21.6013C13.8216 21.6154 13.8855 21.6208 13.9483 21.6165C14.0571 21.6944 14.189 21.7506 14.3449 21.7766C14.4757 21.7982 14.5961 21.7896 14.7091 21.7571C14.7415 21.7701 14.775 21.782 14.8096 21.7917C14.8661 21.8382 14.9299 21.8804 15.0021 21.9172C15.0953 21.9648 15.1884 21.9897 15.2805 22.0005C15.3349 22.0643 15.4019 22.1173 15.4856 22.1509C15.6395 22.2125 15.8163 22.1985 15.9775 22.1552C15.9953 22.1509 16.012 22.1444 16.0298 22.139C16.1052 22.2569 16.2098 22.3477 16.3511 22.3856C16.4359 22.4083 16.5248 22.4072 16.6128 22.3932C16.6546 22.4116 16.6996 22.4245 16.7488 22.431C16.8901 22.4494 17.0356 22.4062 17.1653 22.3402C17.2941 22.325 17.4207 22.2807 17.54 22.2179C17.6185 22.2536 17.7043 22.2807 17.8006 22.2937C17.9345 22.312 18.057 22.298 18.17 22.259C18.2652 22.2569 18.3594 22.2439 18.4473 22.2147C18.6357 22.2417 18.8251 22.2093 18.9717 22.0697C19.0972 21.9497 19.1642 21.7733 19.1977 21.5992C19.1998 21.5883 19.2009 21.5775 19.2029 21.5667C19.3788 21.5916 19.5546 21.5635 19.6948 21.4369C19.7953 21.3471 19.8591 21.2205 19.902 21.0875C20.0255 20.9534 20.1072 20.7868 20.0925 20.5931C20.1187 20.5682 20.1427 20.5412 20.1647 20.5098C20.2621 20.3703 20.2934 20.1864 20.2934 20.0122C20.2934 19.9982 20.2924 19.9841 20.2914 19.97C20.4128 19.8889 20.509 19.7753 20.5488 19.6206C20.5771 19.5114 20.5708 19.3945 20.5467 19.282C20.553 19.1912 20.5404 19.0981 20.5007 19.0073C20.4923 18.9889 20.4829 18.9705 20.4735 18.9532C20.5111 18.8526 20.5404 18.7444 20.5519 18.6362C20.5676 18.5919 20.5802 18.5464 20.5896 18.501C20.598 18.4718 20.6053 18.4404 20.6095 18.408C20.6147 18.3647 20.6137 18.3204 20.6095 18.276C20.6043 18.1786 20.5802 18.0845 20.53 17.998C20.5279 17.9947 20.5268 17.9904 20.5247 17.9872C20.5467 17.8952 20.554 17.7979 20.553 17.7027C20.5509 17.588 20.5362 17.4744 20.5101 17.3652C20.5362 17.1878 20.5289 17.0082 20.4965 16.8362C20.4965 16.8026 20.4965 16.7691 20.4965 16.7356C20.6775 16.6047 20.8157 16.4186 20.8115 16.1817C20.8094 16.0757 20.778 15.9729 20.7299 15.8767C20.9099 15.7166 21.0564 15.4991 21.048 15.259C21.2699 15.1584 21.4802 14.9929 21.5462 14.757C21.6906 14.69 21.812 14.584 21.8748 14.4217C21.9124 14.3243 21.9229 14.2183 21.9166 14.1123C21.948 14.0333 21.9679 13.949 21.9794 13.8646C22.0579 13.8386 22.1322 13.7964 22.1961 13.7305C22.3164 13.6082 22.3771 13.4319 22.4054 13.2588C22.42 13.1723 22.4253 13.0857 22.4242 13.0003C22.5917 12.9029 22.7246 12.7569 22.7539 12.5524C22.7643 12.481 22.7601 12.4096 22.7476 12.3382C22.8177 12.2787 22.8753 12.2052 22.9119 12.1111C22.9286 12.0689 22.9402 12.0256 22.9464 11.9802C22.9946 11.8698 23.0145 11.7498 22.9893 11.6221V11.6189ZM9.90022 20.0155C9.82173 20.0252 9.75057 20.0468 9.68359 20.0739C9.55172 20.0252 9.41044 20.0079 9.26706 20.0317C9.25346 20.0295 9.2409 20.0285 9.22729 20.0274C9.19904 19.9527 9.15613 19.8846 9.09543 19.824C8.99496 19.7256 8.861 19.6704 8.72286 19.6401C8.71867 19.5319 8.70193 19.4227 8.66739 19.3231C8.68623 19.2225 8.68309 19.1187 8.64437 19.0159C8.63495 18.9889 8.62239 18.964 8.60879 18.9391C8.61297 18.9056 8.61507 18.8731 8.61402 18.8396C8.63181 18.7812 8.64123 18.7184 8.63914 18.6514C8.636 18.5583 8.60879 18.4675 8.56902 18.382C8.58262 18.3377 8.59204 18.2911 8.59414 18.2425C8.59937 18.1321 8.57111 18.0218 8.52611 17.9179C8.5303 17.9017 8.53448 17.8855 8.53658 17.8682C8.55437 17.7578 8.53867 17.6443 8.50413 17.5361C8.52088 17.3879 8.50309 17.2408 8.42983 17.1142C8.46436 16.9444 8.45808 16.7702 8.37959 16.6231C8.37959 16.5906 8.37959 16.5582 8.3775 16.5268C8.3775 16.5171 8.37541 16.5084 8.37436 16.4998C8.4696 16.2196 8.48634 15.8896 8.27075 15.6733C8.21424 15.616 8.14517 15.5738 8.07086 15.5413C8.0604 15.5132 8.04889 15.4851 8.03633 15.458C8.02063 15.378 7.99761 15.299 7.96621 15.2244C7.95888 15.1822 7.94946 15.14 7.93691 15.0989C7.93691 15.0837 7.93691 15.0686 7.93691 15.0534C7.94633 14.7895 7.87411 14.5374 7.7276 14.3471C7.6962 14.2822 7.65748 14.2194 7.61562 14.1621C7.50154 14.0052 7.35817 13.8743 7.20014 13.7759C7.19386 13.7326 7.18444 13.6904 7.17398 13.6493C7.20328 13.5271 7.19909 13.3994 7.14467 13.2761C7.07665 13.1225 6.9406 13.0078 6.79827 12.9235C6.78989 12.9181 6.78048 12.9137 6.7721 12.9094C6.76059 12.8759 6.74803 12.8423 6.73338 12.8099C6.74699 12.6714 6.72292 12.534 6.63919 12.4129C6.56803 12.3101 6.46337 12.2355 6.3493 12.1814C6.32104 12.1457 6.29069 12.1121 6.26034 12.0797C6.27395 11.9358 6.26348 11.7844 6.21953 11.6513C6.25406 11.5961 6.27918 11.5345 6.29279 11.4642C6.31058 11.369 6.30325 11.2705 6.28127 11.1743C6.37337 11.1277 6.45395 11.0596 6.51256 10.9622C6.5764 10.8551 6.60466 10.7286 6.61094 10.5998C6.62035 10.5998 6.62873 10.602 6.63919 10.602C6.80664 10.602 6.96885 10.522 7.107 10.4203C7.152 10.3867 7.19386 10.351 7.23363 10.3132C7.34561 10.2732 7.44817 10.2137 7.52561 10.1282C7.6962 10.2245 7.88772 10.2645 8.074 10.1823C8.14203 10.152 8.20273 10.1066 8.25715 10.0536C8.39215 10.0838 8.53134 10.0741 8.66216 10.0006C8.71867 9.96918 8.76995 9.92699 8.81496 9.87831C8.94996 9.86858 9.07764 9.82206 9.18229 9.71821C9.21997 9.68035 9.25032 9.63708 9.27753 9.59057C9.44602 9.62194 9.61766 9.6003 9.75999 9.48455C9.8908 9.37854 9.96825 9.21303 10.0153 9.04644C10.0185 9.03346 10.0216 9.02156 10.0248 9.00858C10.0781 8.98154 10.1315 8.95125 10.1817 8.91663C10.256 8.92745 10.3314 8.9242 10.4067 8.90473C10.6255 8.88526 10.8337 8.7998 10.9499 8.59535C10.9876 8.52936 11.0117 8.45688 11.0253 8.38116C11.0682 8.34979 11.1069 8.31085 11.1404 8.26433C11.1749 8.21565 11.2011 8.16156 11.221 8.10423C11.2429 8.06853 11.2618 8.03067 11.2785 7.99173C11.4208 7.93764 11.5433 7.84461 11.6145 7.69424C11.6459 7.62826 11.6626 7.55794 11.671 7.48438C11.6731 7.48222 11.6752 7.48114 11.6773 7.48006C11.7756 7.40001 11.8447 7.28642 11.8918 7.1631C11.9201 7.11659 11.9431 7.06682 11.9609 7.0149C12.0027 6.99435 12.0435 6.97271 12.0833 6.94675C12.1901 6.89591 12.2811 6.81802 12.3408 6.70227C12.346 6.69254 12.3491 6.6828 12.3544 6.67306C12.3774 6.63088 12.3952 6.58544 12.4077 6.53676C12.4077 6.53676 12.4088 6.53676 12.4098 6.53568C12.4967 6.47402 12.5637 6.38424 12.616 6.28688C12.6464 6.25118 12.6746 6.21332 12.7008 6.17329C12.7625 6.16572 12.8232 6.14733 12.8829 6.11488C12.9321 6.08783 12.9771 6.05214 13.0168 6.01211C13.0346 6.00454 13.0524 5.99588 13.0702 5.98723C13.1906 6.02401 13.3182 6.02725 13.4449 5.97533C13.5118 5.94829 13.5725 5.90718 13.628 5.8585C13.6678 5.90934 13.7138 5.95586 13.7662 5.99913C13.8352 6.07377 13.9137 6.13543 14.0006 6.17654C14.0634 6.31825 14.1617 6.43832 14.3104 6.50215C14.3805 6.53244 14.4558 6.5465 14.5333 6.54974C14.5615 6.57895 14.5929 6.60708 14.6254 6.63196C14.7248 6.72932 14.842 6.80396 14.9718 6.83208C14.9739 6.83316 14.976 6.83533 14.977 6.83641C15.0074 6.89807 15.0398 6.95757 15.0743 7.01382C15.0754 7.11983 15.0963 7.22909 15.1403 7.33726C15.1936 7.5666 15.3056 7.78728 15.5055 7.89112C15.5777 8.08584 15.6981 8.25676 15.8844 8.33032C15.9158 8.35953 15.9482 8.38765 15.9848 8.4147C16.011 8.43308 16.0372 8.44823 16.0633 8.46337C16.1523 8.72624 16.3386 8.94151 16.6159 9.03779C16.6735 9.09404 16.7404 9.14488 16.8189 9.19032C16.8869 9.22926 16.955 9.25414 17.023 9.27253C17.113 9.35799 17.2114 9.41857 17.316 9.45535C17.4259 9.66413 17.5944 9.83396 17.832 9.85668C17.8979 9.86317 17.9649 9.85668 18.0298 9.84153C18.0873 9.90536 18.1564 9.95728 18.2422 9.98974C18.3134 10.0168 18.3898 10.0265 18.4662 10.0254C18.5635 10.1195 18.6818 10.1834 18.8241 10.1909C18.911 10.2861 19.0188 10.3565 19.1538 10.3781C19.2281 10.39 19.3045 10.3857 19.3788 10.3705C19.4834 10.43 19.6038 10.4722 19.744 10.4884C19.7545 10.4895 19.7639 10.4884 19.7744 10.4895C19.812 10.5036 19.8508 10.5144 19.8905 10.523C19.9512 10.7134 20.0643 10.8779 20.2537 10.9514C20.3112 10.9741 20.3719 10.986 20.4347 10.9893C20.4598 11.1277 20.5174 11.2684 20.6158 11.4036C20.6158 11.409 20.6158 11.4155 20.6158 11.4209C20.5676 11.5302 20.5404 11.647 20.5362 11.7681C20.5352 11.7844 20.5352 11.7995 20.5342 11.8147C20.4954 11.898 20.4693 11.9877 20.4588 12.0851C20.44 12.1197 20.4222 12.1565 20.4065 12.1954C20.3698 12.2852 20.35 12.3739 20.3426 12.4605C20.284 12.5005 20.2296 12.5492 20.1815 12.6065C20.0789 12.6833 19.9868 12.7872 19.9115 12.9224C19.8989 12.9451 19.8895 12.9689 19.879 12.9916C19.7168 13.1333 19.6038 13.3335 19.5734 13.5887C19.5535 13.6309 19.5368 13.6764 19.5242 13.7229C19.3673 13.8484 19.2511 14.015 19.1988 14.2075C19.1799 14.2497 19.1642 14.2941 19.1506 14.3395C19.0868 14.4466 19.0449 14.5667 19.0198 14.6943C18.8 14.8955 18.6692 15.1724 18.6849 15.4623C18.5133 15.6473 18.4159 15.8918 18.4432 16.1644C18.4296 16.2347 18.4222 16.305 18.4243 16.3754C18.372 16.5419 18.3689 16.7042 18.4044 16.8578C18.3846 16.9097 18.3678 16.9638 18.3552 17.0222C18.3207 17.1856 18.3322 17.337 18.3751 17.4766C18.3427 17.6042 18.3385 17.7265 18.3573 17.8444C18.3113 18.0002 18.3082 18.1765 18.3605 18.368C18.3668 18.3896 18.3751 18.4101 18.3825 18.4307C18.3395 18.54 18.3134 18.6525 18.305 18.765C18.2694 18.8612 18.2495 18.9662 18.2475 19.0819C18.214 19.1522 18.1857 19.2279 18.1658 19.3134C18.1533 19.3675 18.148 19.4194 18.1449 19.4703C18.1177 19.5157 18.0926 19.5633 18.0706 19.6163C18.0507 19.665 18.0361 19.7137 18.0256 19.7623C17.9544 19.7926 17.8833 19.8327 17.8142 19.8857C17.7933 19.9019 17.7765 19.9192 17.7577 19.9354C17.6289 19.9754 17.5096 20.0468 17.4071 20.1518C17.2501 20.075 17.0638 20.0501 16.8587 20.0955C16.8137 20.0944 16.7676 20.0955 16.7195 20.102C16.5657 19.956 16.3574 19.8673 16.0968 19.8738C16.0612 19.8738 16.0267 19.8792 15.9932 19.8835C15.877 19.8694 15.7609 19.8705 15.6457 19.8835C15.629 19.8792 15.6112 19.8738 15.5945 19.8705C15.5505 19.7613 15.4804 19.6671 15.3747 19.599C15.2313 19.507 15.0492 19.4876 14.8797 19.4995C14.7666 19.507 14.6568 19.5298 14.5511 19.5633C14.4286 19.5114 14.3009 19.4778 14.1722 19.4605C14.0623 19.4335 13.9514 19.4237 13.8436 19.4335C13.6741 19.3578 13.493 19.3286 13.3203 19.3556C13.1309 19.2788 12.93 19.2572 12.7416 19.2983C12.684 19.2961 12.6233 19.2972 12.5605 19.3048C12.2979 19.3394 12.1032 19.4811 11.963 19.6747C11.8499 19.6866 11.738 19.7126 11.6333 19.7569C11.626 19.7602 11.6186 19.7645 11.6113 19.7677C11.3758 19.6736 11.1205 19.6704 10.8944 19.7807C10.6841 19.7602 10.4685 19.8175 10.2759 19.97C10.1723 19.9635 10.0624 19.9776 9.94941 20.0133C9.93476 20.0144 9.92115 20.0144 9.90545 20.0166L9.90022 20.0155Z" fill="currentColor"/>
</g>
<defs>
<clipPath id="clip0_239_18190">
<rect width="19" height="19" fill="currentColor" transform="translate(4 3.5)"/>
</clipPath>
</defs>
</svg>
