<svg  viewBox="0 0 22 22" fill="none" xmlns="http://www.w3.org/2000/svg">
<path d="M9.98818 21.7811C9.23022 21.7811 8.64369 21.3209 8.48127 20.608L8.11131 19.0109L7.86768 18.9206L6.47807 19.7779C5.85545 20.1659 5.11553 20.0756 4.58314 19.5432L3.31986 18.28C2.77846 17.7476 2.69725 17.0077 3.08525 16.385L3.9515 15.0045L3.86127 14.7789L2.27314 14.4089C1.56029 14.2375 1.1001 13.6419 1.1001 12.902V11.1244C1.1001 10.3845 1.55127 9.79793 2.27314 9.61746L3.84322 9.23848L3.94248 9.00387L3.07623 7.62328C2.68822 7.00066 2.76943 6.26074 3.31084 5.71934L4.57412 4.45605C5.09748 3.9327 5.8374 3.83344 6.46904 4.22145L7.85865 5.06965L8.11131 4.97039L8.48127 3.37324C8.64369 2.66039 9.23022 2.2002 9.98818 2.2002H11.8109C12.5599 2.2002 13.1464 2.66039 13.3178 3.37324L13.6878 4.97039L13.9404 5.06965L15.3301 4.22145C15.9527 3.83344 16.6926 3.9327 17.216 4.45605L18.4792 5.71934C19.0297 6.26074 19.1019 7.00066 18.7138 7.62328L17.8566 9.00387L17.9469 9.23848L19.526 9.61746C20.2388 9.79793 20.699 10.3845 20.699 11.1244V12.902C20.699 13.6419 20.2298 14.2375 19.526 14.4089L17.9288 14.7789L17.8476 15.0045L18.7048 16.385C19.0928 17.0077 19.0116 17.7476 18.4702 18.28L17.2069 19.5432C16.6836 20.0756 15.9437 20.1659 15.312 19.7779L13.9224 18.9206L13.6878 19.0109L13.3178 20.608C13.1464 21.3209 12.5599 21.7811 11.8109 21.7811H9.98818ZM10.2047 20.1478H11.5944C11.7478 20.1478 11.8199 20.0846 11.838 19.9403L12.3794 17.7205C12.9749 17.5852 13.4893 17.3596 13.9314 17.0798L15.8805 18.28C15.9888 18.3521 16.1061 18.3521 16.2144 18.2348L17.1708 17.2693C17.2701 17.1791 17.2701 17.0708 17.1979 16.9535L16.0068 15.0045C16.2504 14.5804 16.4941 14.0389 16.6294 13.4705L18.8582 12.9381C18.9936 12.911 19.0658 12.8388 19.0658 12.6854V11.3319C19.0658 11.1695 19.0026 11.1063 18.8582 11.0702L16.6385 10.5469C16.5031 9.9423 16.2324 9.38285 16.0158 8.99484L17.2069 7.0548C17.2881 6.92848 17.2881 6.8202 17.1799 6.72094L16.2144 5.77348C16.1061 5.6652 16.0158 5.65617 15.8805 5.72836L13.9404 6.91043C13.4983 6.65777 12.9659 6.41414 12.3794 6.27879L11.838 4.04098C11.8199 3.8966 11.7478 3.83344 11.5944 3.83344H10.2047C10.0513 3.83344 9.97916 3.90562 9.95209 4.04098L9.41971 6.26074C8.85123 6.40512 8.25568 6.65777 7.84963 6.90141L5.90959 5.71934C5.77424 5.64715 5.684 5.6652 5.5667 5.76445L4.61021 6.71191C4.50193 6.8202 4.50193 6.92848 4.58314 7.0548L5.77424 8.99484C5.55768 9.38285 5.296 9.9423 5.16064 10.5469L2.93186 11.0702C2.7965 11.1063 2.73334 11.1695 2.73334 11.3319V12.6854C2.73334 12.8388 2.7965 12.911 2.93186 12.9381L5.16064 13.4705C5.296 14.0389 5.53963 14.5804 5.79229 15.0045L4.59217 16.9535C4.51096 17.0708 4.51998 17.1791 4.61924 17.2784L5.57572 18.2348C5.684 18.3521 5.80131 18.3521 5.90959 18.28L7.85865 17.0798C8.3008 17.3596 8.84221 17.5852 9.41971 17.7205L9.95209 19.9403C9.97916 20.0756 10.0513 20.1478 10.2047 20.1478ZM10.8996 15.4105C9.00463 15.4105 7.47064 13.8855 7.47064 11.9906C7.47064 10.0957 9.00463 8.57074 10.8996 8.57074C12.7854 8.57074 14.3194 10.0957 14.3194 11.9906C14.3194 13.8855 12.7854 15.4105 10.8996 15.4105ZM10.8996 13.8585C11.9282 13.8585 12.7674 13.0283 12.7674 11.9906C12.7674 10.9529 11.9282 10.1137 10.8996 10.1137C9.86186 10.1137 9.02268 10.9529 9.02268 11.9906C9.02268 13.0283 9.86186 13.8585 10.8996 13.8585Z" fill="currentColor"/>
</svg>
