<svg viewBox="0 0 38 38" fill="none" xmlns="http://www.w3.org/2000/svg">
<path d="M19 30.3408C12.877 30.3408 7.90332 25.3672 7.90332 19.2441C7.90332 13.1211 12.877 8.14746 19 8.14746C25.123 8.14746 30.0967 13.1211 30.0967 19.2441C30.0967 25.3672 25.123 30.3408 19 30.3408ZM19 28.1494C23.9307 28.1494 27.916 24.1748 27.916 19.2441C27.916 14.3135 23.9307 10.3281 19 10.3281C14.0693 10.3281 10.084 14.3135 10.084 19.2441C10.084 24.1748 14.0693 28.1494 19 28.1494ZM18.7529 21.3818C18.1084 21.3818 17.7432 21.0703 17.7432 20.4688V20.3506C17.7432 19.373 18.3018 18.8145 19.0645 18.2881C19.9775 17.6543 20.4287 17.3213 20.4287 16.6445C20.4287 15.9141 19.8379 15.3984 18.9678 15.3984C18.3232 15.3984 17.8076 15.71 17.4531 16.3008L17.2812 16.5156C17.0664 16.8057 16.8086 16.9668 16.4111 16.9668C15.9814 16.9668 15.5732 16.6445 15.5732 16.1289C15.5732 15.9355 15.6055 15.7529 15.6699 15.5703C16.0029 14.5605 17.2598 13.7227 19.0967 13.7227C20.998 13.7227 22.6094 14.7432 22.6094 16.5371C22.6094 17.7832 21.9219 18.3955 20.8691 19.0938C20.1709 19.5449 19.7842 19.9209 19.752 20.4795C19.752 20.5117 19.752 20.5654 19.752 20.6084C19.7197 21.0488 19.3438 21.3818 18.7529 21.3818ZM18.7422 24.6797C18.0547 24.6797 17.4854 24.1748 17.4854 23.498C17.4854 22.832 18.0439 22.3271 18.7422 22.3271C19.4297 22.3271 19.999 22.8213 19.999 23.498C19.999 24.1748 19.4297 24.6797 18.7422 24.6797Z" fill="currentColor"/>
</svg>
