<svg viewBox="0 0 17 18" fill="none" xmlns="http://www.w3.org/2000/svg">
<path d="M4.42268 4.85981C5.42871 3.76083 6.89401 3.05005 8.50147 3.05005C11.3883 3.05005 13.7941 5.27534 14.1166 8.04739H14.8821C15.3031 8.04739 15.4179 8.35904 15.1719 8.69803L13.8706 10.5297C13.6683 10.803 13.3676 10.803 13.1708 10.5297L11.8695 8.69256C11.6289 8.35357 11.7437 8.04739 12.1593 8.04739H12.9849C12.6841 5.86584 10.8142 4.16543 8.50147 4.16543C7.19473 4.16543 6.01374 4.72312 5.19907 5.60886C4.93663 5.86037 4.61951 5.86037 4.39534 5.65807C4.17664 5.4667 4.16024 5.12225 4.42268 4.85981ZM1.8256 8.70349L3.13234 6.87186C3.32917 6.59849 3.62989 6.59849 3.82672 6.87186L5.128 8.70896C5.36857 9.04795 5.25375 9.35413 4.83822 9.35413H4.01808C4.3188 11.5412 6.19417 13.2361 8.50147 13.2361C9.81915 13.2361 11.0001 12.6784 11.8093 11.7872C12.0772 11.5357 12.3889 11.5302 12.6131 11.7325C12.8318 11.9293 12.8482 12.2738 12.5912 12.5362C11.5797 13.6407 10.1144 14.3515 8.50147 14.3515C5.61461 14.3515 3.20889 12.1262 2.89177 9.35413H2.11538C1.69438 9.35413 1.58502 9.04248 1.8256 8.70349Z" fill="currentColor"/>
</svg>
