<svg  viewBox="0 0 51 51" fill="none" xmlns="http://www.w3.org/2000/svg">
<path d="M47.5187 35.4893C47.2392 35.7037 46.9597 35.8896 46.6509 36.0611C46.8862 38.3482 46.4302 40.621 44.7387 42.4079C43.2678 43.966 41.1056 44.8236 38.9434 45.2954C36.6635 48.4116 33.0451 50.3985 28.456 50.1412C27.441 50.47 26.4114 50.713 25.3524 50.8559C19.3364 51.6278 13.4235 49.2835 10.8053 44.1661C10.6582 43.9946 10.4964 43.8516 10.364 43.6658C9.15789 42.1649 8.42244 40.5782 8.05472 38.9343C7.86351 38.6341 7.67229 38.3482 7.49578 38.0194C7.2016 37.4763 6.96627 36.9188 6.77505 36.3756C5.59834 35.375 4.61284 34.2457 3.84798 32.9735C0.920909 30.0002 -0.417597 25.7547 1.18567 20.8803C1.59752 19.5938 2.2153 18.4931 2.95074 17.5211C3.18608 15.0339 4.08332 12.7038 5.61305 10.8313C6.46616 7.858 8.54012 5.15633 12.0261 3.28375C12.6292 2.95498 13.247 2.69767 13.85 2.48325C14.7914 1.84 15.8504 1.26822 17.0566 0.810795C21.1015 -0.704426 24.9405 0.038887 28.2942 1.92577C28.5589 1.84 28.8384 1.78282 29.1326 1.72564C31.4272 1.3254 33.8541 1.96865 35.9869 2.95498C36.0752 2.99786 36.1634 3.04074 36.237 3.08362C36.4723 3.09791 36.7076 3.12651 36.9577 3.15509C39.3111 3.54105 41.4145 4.98479 43.1207 6.64296C47.3569 10.7884 49.4455 16.5919 49.0337 22.0239C49.2396 22.5385 49.4455 23.0531 49.6073 23.5677C50.9459 27.5701 51.1665 32.6447 47.504 35.4607L47.5187 35.4893Z" fill="#135000"/>
</svg>
