<svg viewBox="0 0 37 51" fill="none" xmlns="http://www.w3.org/2000/svg">
<path d="M35.9012 33.2224C36.1153 32.7967 36.1678 32.3016 36.1503 31.8108C36.1241 30.9378 36.1546 30.0084 35.9186 29.1484C35.7613 27.9627 35.7657 26.751 35.6346 25.5479C35.5297 24.9833 35.3286 24.5099 35.3723 23.9496C35.3417 23.094 35.1844 22.234 35.1494 21.3654C34.8217 20.475 34.5551 19.5021 34.0699 18.6726C33.7028 18.1644 33.2483 17.7041 32.9817 17.1307C32.6758 16.2056 32.466 15.2588 31.9372 14.4336C31.6269 13.6996 31.133 13.0264 30.9625 12.2403C30.8489 11.237 30.425 10.3988 29.835 9.57355C29.4547 8.91772 28.7729 8.43562 28.3272 7.87101C28.0169 7.47143 27.9513 6.91984 27.6978 6.47249C25.8666 3.46698 23.4191 -0.159608 19.4289 0.00543436C18.38 0.0358369 17.5234 0.68732 16.6187 1.03478C15.7708 1.37355 15.0322 1.93382 14.381 2.56359C13.0611 3.89262 12.2176 5.5387 10.889 6.77651C10.3952 7.34548 10.1635 8.09251 9.69151 8.62673C9.3681 9.00024 8.97913 9.31295 8.68194 9.71253C7.83407 11.0025 6.89442 12.1751 5.86736 13.2957C5.42158 14.2946 5.41284 15.4282 4.95394 16.4358C4.4863 17.3392 3.95747 18.2643 3.73458 19.2502C2.59389 22.6249 0.972449 25.9649 1.01615 29.5828C0.876299 30.4731 0.802001 31.4634 0.920003 32.4058C0.718962 33.6784 0.933115 35.0465 1.47505 36.2149C1.71543 36.8663 1.55372 37.5569 1.77661 38.2214C1.9864 38.8468 2.02573 39.4723 2.23551 40.089C2.9916 41.2573 3.36309 42.6081 4.26778 43.6635C4.7966 44.3019 5.1069 45.1054 5.70566 45.7004C6.27819 46.252 6.61908 47.0078 7.27028 47.4508C8.04385 47.8721 8.83928 48.3715 9.54292 48.8363C10.1766 49.2054 10.9458 49.4617 11.5927 49.9481C12.8994 50.9514 14.6432 50.6387 16.1467 50.8732C16.5662 50.9775 16.9989 51.0513 17.4316 50.9557C18.7253 50.7342 20.1063 51.06 21.4087 50.7125C22.2216 50.3564 23.1788 49.9785 23.8824 49.4964C24.2539 49.188 24.6647 48.9665 25.1105 48.7668C26.0152 48.3846 26.6227 47.7374 27.5536 47.4247C28.0868 47.2293 28.6418 46.9904 29.0964 46.656C29.5465 46.3128 29.8568 45.8568 30.189 45.4138C30.7003 44.6668 31.3996 43.9632 31.6269 43.0294C31.7711 42.4908 31.8629 41.8828 32.3218 41.5092C33.5979 40.8187 33.7859 39.3593 34.4545 38.1867C35.0008 37.47 34.8391 36.5536 35.1494 35.7632C35.604 34.9987 35.5166 34.0346 35.888 33.2875L35.9186 33.218L35.9012 33.2224Z" fill="#43372B"/>
</svg>
