<svg viewBox="0 0 32 32" fill="none" xmlns="http://www.w3.org/2000/svg">
<path d="M25.8533 20.2246C25.9777 19.9758 26.0082 19.6864 25.998 19.3995C25.9828 18.8892 26.0006 18.3459 25.8635 17.8432C25.7721 17.1501 25.7746 16.4417 25.6984 15.7385C25.6375 15.4084 25.5207 15.1317 25.5461 14.8042C25.5283 14.304 25.4369 13.8013 25.4166 13.2936C25.2262 12.7731 25.0713 12.2044 24.7895 11.7195C24.5763 11.4225 24.3122 11.1533 24.1574 10.8182C23.9796 10.2774 23.8578 9.72397 23.5506 9.24159C23.3703 8.81252 23.0834 8.419 22.9844 7.95947C22.9184 7.373 22.6721 6.88301 22.3294 6.40063C22.1085 6.01726 21.7125 5.73545 21.4535 5.4054C21.2732 5.17183 21.2351 4.84939 21.0879 4.58789C20.0241 2.83101 18.6024 0.711083 16.2844 0.807559C15.6751 0.825331 15.1775 1.20616 14.6519 1.40926C14.1594 1.60729 13.7303 1.9348 13.352 2.30294C12.5853 3.07982 12.0953 4.04204 11.3235 4.76561C11.0366 5.0982 10.9021 5.53488 10.6279 5.84716C10.44 6.0655 10.214 6.2483 10.0414 6.48187C9.54887 7.2359 9.00301 7.92139 8.40639 8.57641C8.14743 9.16035 8.14235 9.82298 7.87577 10.412C7.60411 10.9401 7.29691 11.4808 7.16743 12.0572C6.5048 14.0298 5.56289 15.9822 5.58827 18.0971C5.50703 18.6175 5.46387 19.1964 5.53242 19.7473C5.41563 20.4912 5.54004 21.2909 5.85485 21.9739C5.99449 22.3547 5.90055 22.7584 6.03003 23.1468C6.1519 23.5124 6.17475 23.878 6.29661 24.2385C6.73583 24.9215 6.95163 25.711 7.47717 26.328C7.78437 26.7012 7.96463 27.1709 8.31245 27.5187C8.64504 27.8411 8.84307 28.2829 9.22136 28.5419C9.67073 28.7881 10.1328 29.0801 10.5416 29.3517C10.9097 29.5675 11.3565 29.7173 11.7323 30.0017C12.4914 30.5882 13.5044 30.4054 14.3777 30.5425C14.6215 30.6034 14.8728 30.6466 15.1242 30.5907C15.8757 30.4612 16.6779 30.6516 17.4345 30.4485C17.9067 30.2403 18.4627 30.0195 18.8715 29.7376C19.0873 29.5574 19.3259 29.4279 19.5849 29.3111C20.1104 29.0877 20.4633 28.7094 21.0041 28.5266C21.3139 28.4124 21.6363 28.2727 21.9003 28.0772C22.1618 27.8767 22.3421 27.6101 22.535 27.3511C22.8321 26.9145 23.2383 26.5032 23.3703 25.9573C23.4541 25.6425 23.5074 25.2871 23.774 25.0687C24.5153 24.665 24.6245 23.812 25.0129 23.1265C25.3303 22.7076 25.2364 22.1719 25.4166 21.7098C25.6807 21.263 25.6299 20.6994 25.8457 20.2627L25.8635 20.2221L25.8533 20.2246Z" fill="#43372B"/>
<g clip-path="url(#clip0_213_25508)">
<path d="M12.4583 16.5483C12.7978 16.5621 13.2228 16.5621 13.5651 16.4572C13.9377 16.333 14.1862 15.8527 14.0178 15.4939C13.8246 15.0688 13.7086 14.5416 13.2256 14.3595C12.5908 14.0062 11.8924 14.5941 11.6771 15.182C11.5308 15.7175 11.8786 16.4103 12.4113 16.54L12.4555 16.5483H12.4583Z" fill="#D0B79C"/>
<path d="M18.9995 15.4998C18.9719 15.1934 18.859 15.0473 18.6299 14.8099C18.3953 14.556 18.1055 14.3186 17.7494 14.2441C17.178 14.1116 16.4742 14.6057 16.4355 15.1936C16.477 15.7595 16.4889 16.221 16.9995 16.4998C17.8938 16.9221 18.9995 16.4998 19.005 15.5467L18.9995 15.5025V15.4998Z" fill="#D0B79C"/>
<path d="M17.4529 18.9694C17.2647 18.572 16.6836 18.5278 16.3326 18.7347C15.884 18.9671 15.7585 19.5505 15.268 19.6017C14.1779 19.7109 14.3034 18.6394 13.4782 18.4371C12.2417 18.3163 12.5229 20.2223 13.269 20.6918C14.0779 21.3984 15.361 21.6518 16.3 21.1102C16.9718 20.6593 17.6435 19.869 17.4646 19.0043L17.4506 18.9694H17.4529Z" fill="#D0B79C"/>
</g>
<defs>
<clipPath id="clip0_213_25508">
<rect width="8.8811" height="7.97717" fill="white" transform="translate(11 14)"/>
</clipPath>
</defs>
</svg>
