<svg viewBox="0 0 24 24" fill="none" xmlns="http://www.w3.org/2000/svg">
<path d="M19.3902 15.1684C19.4835 14.9818 19.5064 14.7648 19.4988 14.5496C19.4873 14.1669 19.5007 13.7594 19.3978 13.3824C19.3293 12.8625 19.3312 12.3313 19.2741 11.8038C19.2284 11.5563 19.1408 11.3488 19.1598 11.1031C19.1465 10.728 19.0779 10.351 19.0627 9.97017C18.9199 9.57982 18.8037 9.1533 18.5924 8.78961C18.4324 8.56682 18.2344 8.36499 18.1183 8.11364C17.985 7.70806 17.8936 7.29296 17.6632 6.93118C17.528 6.60938 17.3128 6.31424 17.2386 5.96959C17.189 5.52974 17.0043 5.16224 16.7473 4.80045C16.5816 4.51293 16.2846 4.30157 16.0904 4.05403C15.9552 3.87885 15.9266 3.63703 15.8162 3.4409C15.0183 2.12325 13.952 0.533297 12.2136 0.605654C11.7566 0.618983 11.3834 0.904602 10.9892 1.05693C10.6198 1.20546 10.298 1.45109 10.0143 1.72719C9.43923 2.30985 9.07174 3.03152 8.49288 3.57419C8.27771 3.82363 8.1768 4.15115 7.97115 4.38535C7.83024 4.54911 7.66078 4.68621 7.53129 4.86139C7.16189 5.42691 6.75251 5.94103 6.30503 6.43229C6.11081 6.87024 6.10701 7.36722 5.90707 7.80898C5.70333 8.20504 5.47293 8.61062 5.37582 9.04286C4.87884 10.5224 4.17241 11.9866 4.19145 13.5728C4.13052 13.9631 4.09815 14.3973 4.14956 14.8105C4.06197 15.3684 4.15527 15.9682 4.39138 16.4804C4.49611 16.766 4.42566 17.0688 4.52277 17.3601C4.61417 17.6343 4.6313 17.9085 4.7227 18.1789C5.05212 18.6911 5.21397 19.2833 5.60812 19.746C5.83852 20.0259 5.97372 20.3781 6.23458 20.639C6.48402 20.8808 6.63255 21.2122 6.91626 21.4064C7.25329 21.5911 7.59984 21.8101 7.90641 22.0138C8.18251 22.1756 8.51763 22.288 8.79945 22.5012C9.36878 22.9411 10.1285 22.804 10.7835 22.9068C10.9663 22.9525 11.1549 22.9849 11.3434 22.943C11.907 22.8459 12.5087 22.9887 13.0761 22.8364C13.4303 22.6802 13.8473 22.5146 14.1539 22.3032C14.3157 22.168 14.4947 22.0709 14.6889 21.9833C15.0831 21.8158 15.3478 21.532 15.7533 21.395C15.9856 21.3093 16.2275 21.2045 16.4255 21.0579C16.6216 20.9075 16.7568 20.7076 16.9015 20.5133C17.1243 20.1858 17.429 19.8774 17.528 19.468C17.5908 19.2319 17.6308 18.9653 17.8307 18.8015C18.3867 18.4988 18.4686 17.859 18.76 17.3449C18.998 17.0307 18.9275 16.6289 19.0627 16.2824C19.2607 15.9472 19.2227 15.5245 19.3845 15.197L19.3978 15.1665L19.3902 15.1684Z" fill="#43372B"/>
<g clip-path="url(#clip0_533_8963)">
<path d="M9.3437 12.4112C9.59833 12.4215 9.91713 12.4215 10.1738 12.3429C10.4533 12.2497 10.6396 11.8895 10.5133 11.6204C10.3684 11.3016 10.2815 10.9062 9.9192 10.7695C9.44306 10.5046 8.91931 10.9455 8.75784 11.3864C8.64812 11.7881 8.90896 12.3077 9.3085 12.405L9.34163 12.4112H9.3437Z" fill="#D0B79C"/>
<path d="M14.2499 11.6248C14.2292 11.395 14.1445 11.2854 13.9727 11.1074C13.7967 10.9169 13.5793 10.7389 13.3123 10.683C12.8838 10.5836 12.3559 10.9542 12.3269 11.3951C12.358 11.8195 12.3669 12.1657 12.7499 12.3748C13.4206 12.6915 14.2499 12.3748 14.254 11.6599L14.2499 11.6268V11.6248Z" fill="#D0B79C"/>
<path d="M13.09 14.2271C12.9487 13.929 12.5129 13.8958 12.2497 14.051C11.9132 14.2253 11.8191 14.6629 11.4513 14.7012C10.6337 14.7832 10.7278 13.9795 10.1089 13.8279C9.18149 13.7372 9.39243 15.1667 9.95203 15.5188C10.5587 16.0488 11.521 16.2388 12.2253 15.8326C12.7291 15.4944 13.2329 14.9017 13.0987 14.2532L13.0882 14.2271H13.09Z" fill="#D0B79C"/>
</g>
<defs>
<clipPath id="clip0_533_8963">
<rect width="6.66082" height="5.98288" fill="white" transform="translate(8.25 10.5)"/>
</clipPath>
</defs>
</svg>
