<svg viewBox="0 0 44 44" fill="none" xmlns="http://www.w3.org/2000/svg">
<g clip-path="url(#clip0_533_8947)">
<path d="M34.772 17.4292C34.8794 17.1039 34.8899 16.7482 34.669 16.473C34.5661 16.3454 34.4243 16.2541 34.2721 16.1888C34.2303 15.9957 34.1587 15.8148 34.0587 15.6567C34.0736 15.3542 34.0169 15.0411 33.8304 14.8192C33.7856 14.6656 33.7095 14.5273 33.5976 14.4179C33.626 14.2659 33.6185 14.1078 33.5543 13.9527C33.4618 13.7232 33.2649 13.5453 33.0574 13.4146C33.047 13.4085 33.0365 13.4024 33.0246 13.3964C33.0425 13.1273 32.9813 12.8628 32.7769 12.6728C32.7471 12.6454 32.7142 12.6241 32.6799 12.6013C32.6754 12.3095 32.5844 12.0283 32.3412 11.8504C32.2561 11.7881 32.1606 11.747 32.0591 11.7182C32.0457 11.6999 32.0338 11.6817 32.0203 11.6634C31.9651 11.3853 31.8428 11.1344 31.6667 10.9399C31.6533 10.914 31.6383 10.8897 31.6234 10.8654C31.7264 10.6571 31.7667 10.4261 31.6921 10.1905C31.616 9.95181 31.4309 9.75572 31.231 9.60523C31.1026 9.50946 30.9639 9.4289 30.8191 9.36657C30.6699 8.99719 30.4237 8.67949 30.1178 8.45907C29.8148 8.18545 29.4433 8.00608 29.0538 7.97112C28.9822 7.96504 28.9121 7.96504 28.8419 7.96656C28.5136 7.80087 28.1406 7.77047 27.7929 7.92552C27.393 7.7203 26.9289 7.70662 26.5245 7.96656C26.4633 7.97416 26.4021 7.9848 26.3425 7.99848C26.1291 7.89055 25.8993 7.83735 25.6695 7.85407C25.3934 7.72942 25.0786 7.70662 24.7547 7.82367C24.607 7.76895 24.4414 7.74006 24.2563 7.74158C23.8967 7.74462 23.6087 7.89359 23.3804 8.12009C23.1909 8.06233 22.9954 8.038 22.8014 8.04864C22.4731 7.76743 22.0374 7.6519 21.5703 7.81607C21.3495 7.73854 21.1122 7.7203 20.8795 7.77351C20.7481 7.75374 20.6094 7.75222 20.4586 7.77503C20.3363 7.79327 20.2244 7.82975 20.1214 7.87839C19.9856 7.86623 19.8513 7.87535 19.72 7.91032C19.5693 7.89815 19.4201 7.90728 19.2783 7.94224C19.238 7.94224 19.1977 7.94224 19.1589 7.94528C18.9097 7.77959 18.6038 7.70662 18.2621 7.76743C18.1591 7.76743 18.0562 7.77959 17.9577 7.79935C17.7816 7.83431 17.6115 7.89207 17.4533 7.9696C17.3474 7.94376 17.2414 7.93008 17.1355 7.92856C17.0698 7.91032 17.0042 7.89815 16.9385 7.88903C16.6878 7.75831 16.3834 7.71422 16.0417 7.79783C15.8805 7.83735 15.7432 7.90576 15.6224 7.9924C15.3702 7.94072 15.115 7.9544 14.8852 8.03648C14.8569 8.038 14.827 8.04104 14.7987 8.0456C14.7763 8.038 14.7539 8.02736 14.73 8.02128C14.3823 7.91336 14.0197 7.924 13.7123 8.05472C13.6303 8.02432 13.5452 8 13.4616 7.98328C13.1334 7.73854 12.7125 7.64886 12.2664 7.81759C11.7874 7.76895 11.3099 7.9696 11.0099 8.49251C10.907 8.67189 10.8562 8.8543 10.8428 9.03671C10.7831 9.15072 10.7413 9.27081 10.7145 9.39849C10.4399 9.57939 10.2325 9.87124 10.1549 10.2802C10.1385 10.3653 10.134 10.4474 10.134 10.5279C10.1161 10.6283 10.1116 10.7286 10.1176 10.8289C9.88181 10.9809 9.69678 11.2044 9.60575 11.4932C9.52965 11.627 9.47295 11.7805 9.44012 11.9583C9.42221 12.0556 9.42072 12.1468 9.4237 12.238C9.40281 12.2988 9.3864 12.3596 9.37595 12.4235C9.17003 12.6333 9.06408 12.8871 9.03125 13.1577C8.96708 13.2215 8.90739 13.2945 8.85368 13.3781C8.70893 13.5058 8.58358 13.6761 8.49256 13.8904C8.40153 14.1017 8.37617 14.3099 8.39556 14.5121C8.32991 14.6322 8.28216 14.7584 8.25679 14.8906C8.10607 15.0639 7.99565 15.263 7.93895 15.4743C7.90462 15.5123 7.87329 15.5534 7.84195 15.5975C7.67482 15.83 7.61066 16.0824 7.61215 16.3347C7.59872 16.3499 7.5838 16.3621 7.57186 16.3773C7.52859 16.4305 7.49277 16.4867 7.46144 16.546C7.17045 16.9215 7.06301 17.4018 7.2391 17.8548C7.26596 17.9673 7.30774 18.0783 7.36892 18.1832C7.38235 18.2896 7.40921 18.3975 7.45248 18.5054C7.47337 18.6559 7.52113 18.811 7.6032 18.9675C7.69422 19.1439 7.81509 19.2776 7.95536 19.3795C7.98819 19.4722 8.02549 19.5588 8.06429 19.6425C8.11801 19.9328 8.27619 20.2094 8.56418 20.4314C8.59104 20.4511 8.6179 20.4679 8.64476 20.4846C8.75519 20.6032 8.87904 20.6883 9.00887 20.7491C9.04617 20.7749 9.08348 20.7977 9.12227 20.8205C9.13123 20.8798 9.14316 20.9406 9.16107 21.0014C9.14018 21.1489 9.14317 21.307 9.1745 21.4772C9.20435 21.6353 9.26105 21.7706 9.33566 21.8922C9.20435 22.0989 9.12974 22.3558 9.1372 22.6599C9.14018 22.7951 9.16406 22.9183 9.20285 23.0338C9.18942 23.1964 9.20882 23.3667 9.26851 23.54C9.18345 23.7786 9.16704 24.0355 9.24016 24.2894C9.14913 24.5448 9.12526 24.8138 9.18495 25.0723C9.17898 25.0966 9.17003 25.1194 9.16406 25.1452C9.10288 25.4188 9.13272 25.6712 9.22225 25.8992C9.11034 26.1819 9.09989 26.5148 9.23867 26.869C9.24911 26.8964 9.26254 26.9192 9.27448 26.945C9.21927 27.1441 9.20882 27.3509 9.24911 27.5515C9.08646 27.8449 9.03871 28.2052 9.16256 28.5943C9.11183 28.8026 9.11332 29.0321 9.18345 29.2753C9.17301 29.3878 9.17599 29.4988 9.1939 29.6052C9.19092 29.6219 9.18644 29.6386 9.18345 29.6569C9.15809 29.8438 9.1745 30.0187 9.22076 30.1783C9.21479 30.2011 9.20733 30.2239 9.20136 30.2482C9.15809 30.4428 9.16256 30.6267 9.20136 30.7969C9.1357 30.9626 9.0984 31.1527 9.10138 31.3639C9.10735 31.709 9.23867 31.9887 9.44012 32.2106C9.4431 32.2547 9.44907 32.2988 9.45355 32.3414C9.45355 32.5253 9.46996 32.7032 9.49831 32.8643C9.50577 32.9023 9.51323 32.9388 9.52219 32.9768C9.54905 33.1105 9.59381 33.2382 9.65649 33.3553C9.65798 33.3583 9.65947 33.3614 9.66096 33.3644C9.66992 33.3796 9.67738 33.3963 9.68633 33.4115C9.7878 33.5939 9.92807 33.7459 10.1146 33.8265C10.2579 33.9071 10.4235 33.9648 10.6145 33.9876C10.6966 33.9983 10.7757 33.9968 10.8532 33.9907C10.8861 34.0059 10.9189 34.0196 10.9562 34.0302C11.1815 34.0971 11.4307 34.053 11.6531 33.9724C11.7635 33.9314 11.8694 33.8812 11.9709 33.822C12.1276 33.8676 12.2903 33.8828 12.4559 33.8706C12.6409 33.9147 12.8454 33.9344 13.0379 33.9101C13.1184 33.9208 13.1975 33.9238 13.2736 33.9162C13.3915 33.939 13.5124 33.9496 13.6303 33.942C13.6392 33.9436 13.6467 33.9466 13.6541 33.9496C13.6795 33.9557 13.7034 33.9572 13.7287 33.9618C13.9287 34.164 14.1794 34.2977 14.4719 34.2643C14.6151 34.2476 14.7524 34.1913 14.8778 34.1138C14.921 34.1108 14.9643 34.1062 15.0076 34.0971C15.1195 34.1579 15.2448 34.1929 15.3836 34.1898C15.5687 34.1853 15.7462 34.1138 15.9074 34.012C15.9626 34.0317 16.0193 34.0484 16.076 34.0606C16.3849 34.2141 16.7356 34.2719 17.04 34.0804C17.0847 34.0515 17.1265 34.018 17.1668 33.9816C17.1728 33.9816 17.1788 33.9816 17.1847 33.9816C17.3713 34.1168 17.5876 34.1913 17.8264 34.1442C17.9652 34.1168 18.0935 34.0484 18.2084 33.9603C18.2755 33.9405 18.3382 33.9147 18.3979 33.8797C18.474 33.8873 18.5516 33.8888 18.6307 33.8858C18.9187 34.1138 19.2813 34.2567 19.6275 34.1016C19.6872 34.0758 19.7424 34.0408 19.7946 33.9998C20.0856 34.1959 20.4348 34.3023 20.7631 34.1457C20.8511 34.1032 20.9302 34.0454 21.0003 33.977C21.1018 33.9816 21.2018 33.974 21.2958 33.9527C21.4734 34.0621 21.6703 34.1351 21.8673 34.132C22.0135 34.2111 22.1747 34.2506 22.3523 34.2263C22.4821 34.2096 22.6045 34.1579 22.7194 34.088C22.8954 34.1138 23.0805 34.094 23.2536 34.05C23.267 34.0469 23.2804 34.0424 23.2939 34.0378C23.5326 34.0758 23.7729 34.0408 23.9698 33.8767C24.0191 33.8356 24.0624 33.7885 24.0997 33.7368C24.1295 33.7323 24.1593 33.7277 24.1892 33.7216C24.3339 33.7475 24.4787 33.7611 24.6204 33.7642C24.8189 34.0393 25.0965 34.2506 25.4441 34.2278C25.5964 34.2172 25.7426 34.1625 25.8769 34.0834C26.1201 34.2339 26.3992 34.3069 26.6782 34.202C26.7618 34.1701 26.8394 34.1244 26.9095 34.0697C26.9393 34.0606 26.9692 34.05 26.999 34.0393C27.1005 34.0484 27.2035 34.0484 27.302 34.0332C27.5392 34.1184 27.7914 34.1305 28.0182 34.0074C28.1182 34.0196 28.2182 34.0226 28.3137 34.012C28.4345 34.1108 28.5793 34.1777 28.7464 34.1929C28.918 34.2081 29.0911 34.1625 29.2508 34.0895C29.3209 34.0895 29.3896 34.0834 29.4567 34.0712C29.5104 34.0788 29.5671 34.0849 29.6253 34.088C29.8551 34.0971 30.0581 34.0454 30.2371 33.9512C30.2879 33.9664 30.3401 33.98 30.3908 33.9907C30.4938 34.0728 30.6132 34.1321 30.7535 34.1549C30.9922 34.1944 31.2414 34.1168 31.4593 34.0059C31.5279 33.9709 31.5936 33.9314 31.6562 33.8888C31.9204 33.8448 32.1606 33.7216 32.3024 33.4754C32.3874 33.3264 32.4218 33.1501 32.4277 32.9737C32.4367 32.9646 32.4456 32.9555 32.4546 32.9449C32.5949 32.7716 32.653 32.539 32.671 32.3125C32.8008 32.0708 32.8918 31.7835 32.8649 31.5144C32.8828 31.3335 32.85 31.1451 32.7948 30.9702C32.7769 30.9125 32.7545 30.8562 32.7321 30.8C32.7262 30.7559 32.7172 30.7118 32.7083 30.6693C32.8426 30.5279 32.9336 30.3546 32.9425 30.1448C32.9425 30.1418 32.9425 30.1372 32.9425 30.1342C32.9888 29.9305 32.9783 29.7207 32.8709 29.5246C32.8694 29.5216 32.8664 29.5185 32.8649 29.5155C32.8605 29.4653 32.853 29.4137 32.844 29.365C32.8082 29.172 32.7456 28.988 32.662 28.8147C32.668 28.6247 32.6516 28.4347 32.6098 28.2523C32.6187 28.2204 32.6262 28.19 32.6336 28.1596C32.6366 28.1565 32.6381 28.1535 32.6411 28.1489C32.7769 27.9407 32.8127 27.6731 32.8023 27.4208C32.7918 27.1441 32.7277 26.8766 32.6202 26.6304C32.7157 26.5452 32.7933 26.4403 32.8396 26.3081C32.9216 26.077 32.8948 25.8156 32.8276 25.5769C32.8053 25.4979 32.7769 25.4204 32.7471 25.3459C32.7262 25.2121 32.6918 25.0814 32.6471 24.9552C32.6814 24.8549 32.7112 24.7545 32.7336 24.6573C32.7471 24.598 32.759 24.5372 32.7665 24.4764C32.9202 24.2484 33.0022 23.9808 32.9142 23.7042C32.9037 23.6707 32.8903 23.6403 32.8769 23.6084C33.0127 23.3561 33.0694 23.0718 32.9545 22.7951C32.9261 22.7283 32.8888 22.6675 32.8455 22.6097C32.9694 22.3999 33.0276 22.1613 32.9545 21.9135C32.95 21.8998 32.9455 21.8876 32.9396 21.874C32.9545 21.8177 32.9634 21.76 32.9664 21.7007C33.0351 21.5259 33.0545 21.3389 33.0007 21.1489C33.0634 21.1124 33.1216 21.0653 33.1753 21.0075C33.341 20.8281 33.4171 20.5743 33.4484 20.328C33.4499 20.3143 33.4499 20.3007 33.4514 20.287C33.6722 20.1866 33.8423 19.986 33.9677 19.7717C34.1259 19.5011 34.2199 19.2016 34.2527 18.8976C34.5288 18.6453 34.7645 18.2865 34.7168 17.9111C34.772 17.759 34.7824 17.5934 34.766 17.4277L34.772 17.4292ZM27.9123 30.9079C27.8421 30.8988 27.772 30.8958 27.7019 30.8973C27.6974 30.8973 27.6914 30.8958 27.6869 30.8942C27.4482 30.7468 27.1527 30.6784 26.808 30.7301C26.72 30.7437 26.6409 30.7681 26.5633 30.7969C26.3186 30.6951 26.0515 30.6677 25.7888 30.7316C25.6232 30.689 25.4456 30.6829 25.2606 30.7179C25.2531 30.6799 25.2427 30.6419 25.2278 30.6069C25.271 30.4686 25.2875 30.3242 25.2621 30.1874C25.2696 30.0536 25.2502 29.9153 25.2143 29.7861C25.1755 29.6493 25.1203 29.5201 25.0517 29.4C25.0517 29.3741 25.0517 29.3468 25.0517 29.3209C25.0547 29.2723 25.0547 29.2252 25.0517 29.1765C25.0487 29.1309 25.0442 29.0868 25.0383 29.0428C25.0651 28.8679 25.0666 28.6901 25.0427 28.5168C25.0487 28.4499 25.0517 28.3846 25.0502 28.3177C25.2949 28.1216 25.4829 27.8464 25.4337 27.5227C25.4277 27.4786 25.4158 27.436 25.4009 27.395C25.4337 27.2749 25.4397 27.1472 25.4009 27.018C25.3785 26.9389 25.3412 26.8644 25.2949 26.796C25.3158 26.6851 25.3203 26.5741 25.2994 26.4662C25.3039 26.4479 25.3098 26.4297 25.3128 26.4099C25.3233 26.3279 25.3173 26.2458 25.3024 26.1652C25.3382 26.0831 25.3591 25.995 25.3576 25.8977C25.3561 25.6955 25.2606 25.5024 25.1412 25.3383C25.1278 25.32 25.1129 25.3033 25.0994 25.2851C25.0994 25.2835 25.0994 25.2805 25.0994 25.279C25.1144 25.2455 25.1293 25.2136 25.1397 25.1756C25.1935 24.9704 25.1517 24.7469 25.0771 24.5463C25.0383 24.4414 24.9875 24.3411 24.9308 24.2468C24.9278 24.2164 24.9219 24.186 24.9129 24.1556C24.8607 23.9641 24.7219 23.8045 24.5697 23.6783C24.4339 23.5674 24.2817 23.4807 24.1235 23.4184C23.94 23.2299 23.7191 23.087 23.4804 23.008C23.3088 22.8879 23.1103 22.8195 22.9029 22.8195C22.6522 22.7465 22.3702 22.7708 22.0852 22.9335C22.0643 22.9456 22.0479 22.9593 22.0285 22.9715C21.8598 22.9487 21.6942 22.9578 21.5375 22.9958C21.451 22.9487 21.3614 22.9107 21.2689 22.8863C21.1645 22.8453 21.0511 22.8225 20.9302 22.821C20.7123 22.7419 20.4601 22.7359 20.19 22.8331C20.1319 22.8544 20.0781 22.8803 20.0274 22.9091C19.9259 22.9091 19.8274 22.9198 19.7319 22.9426C19.532 22.8058 19.2783 22.7389 18.9799 22.7754C18.6948 22.8119 18.4755 22.9517 18.3113 23.1478C17.9487 23.2344 17.6458 23.4989 17.5384 23.9474C17.4727 24.0264 17.4175 24.1115 17.3757 24.2043C17.2205 24.3608 17.1131 24.5752 17.0818 24.8473C17.0042 25.019 16.9698 25.2212 16.9937 25.4508C17.0146 25.659 17.0907 25.8323 17.1996 25.9782C17.2071 26.0132 17.2161 26.0466 17.2265 26.0801C17.1549 26.2777 17.1265 26.4829 17.1459 26.679C16.9624 26.9663 16.9131 27.3326 17.0788 27.7172C17.0221 27.9133 17.0146 28.117 17.0653 28.3116C17.0489 28.3709 17.0355 28.4317 17.0265 28.497C16.9982 28.7175 17.037 28.9166 17.1221 29.0899C17.1041 29.134 17.0892 29.1811 17.0758 29.2297C17.0101 29.476 17.037 29.7055 17.1235 29.9123C16.9863 30.195 16.9713 30.5279 17.1385 30.8593C17.1385 30.8608 17.1385 30.8623 17.1385 30.8638C16.9758 30.8517 16.8161 30.8669 16.6639 30.9064C16.3849 30.7635 16.079 30.7073 15.7865 30.7605C15.6373 30.7255 15.4761 30.7209 15.3105 30.7513C15.2016 30.7468 15.0882 30.7544 14.9688 30.7787C14.9568 30.7817 14.9464 30.7848 14.9345 30.7878C14.5853 30.6237 14.1704 30.6176 13.7481 30.8547C13.6706 30.8988 13.6034 30.9505 13.5392 31.0037C13.4467 31.0022 13.3542 31.0082 13.2647 31.0219C12.9856 30.9216 12.6932 30.9034 12.4275 30.9748C12.4007 30.9687 12.3753 30.9611 12.3484 30.955C12.3186 30.9353 12.2873 30.9186 12.2559 30.9018C12.2947 30.7802 12.3097 30.6495 12.3097 30.5203C12.4469 30.2345 12.4977 29.9107 12.338 29.6265C12.4484 29.4866 12.5186 29.3225 12.523 29.1294C12.5245 29.0124 12.5007 28.8953 12.4604 28.7843C12.5201 28.6734 12.5574 28.5502 12.5603 28.4134C12.5663 28.1641 12.4559 27.9209 12.3156 27.7142C12.3141 27.7111 12.3126 27.7096 12.3111 27.7081C12.3604 27.5333 12.3843 27.3494 12.3634 27.1745C12.3992 27.0879 12.4246 26.9982 12.438 26.907C12.4857 26.8067 12.5141 26.6972 12.5156 26.5772C12.5186 26.3583 12.4305 26.1439 12.3111 25.9569C12.2962 25.7928 12.2619 25.6332 12.2127 25.4796C12.4246 25.2319 12.5603 24.9233 12.4663 24.5965C12.4633 24.5873 12.4604 24.5797 12.4574 24.5706C12.5395 24.3411 12.5589 24.0963 12.4648 23.8699C12.4992 23.727 12.4992 23.578 12.4484 23.4275C12.4439 23.4153 12.4395 23.4047 12.4335 23.3925C12.4633 23.2953 12.4768 23.1919 12.4633 23.0824C12.4469 22.935 12.3887 22.7967 12.3082 22.669C12.2634 22.5398 12.2067 22.4166 12.1395 22.2996C12.2873 22.181 12.3977 22.0244 12.4395 21.8238C12.4648 21.6961 12.4589 21.5654 12.432 21.4362C12.7215 21.4787 13.0423 21.462 13.2945 21.3267C13.5557 21.3389 13.8108 21.272 14.0003 21.0668C14.163 20.8905 14.2391 20.6412 14.2719 20.3995C14.2868 20.3934 14.3018 20.3888 14.3167 20.3827C14.3734 20.3569 14.4286 20.325 14.4793 20.2885C14.5644 20.4466 14.6868 20.594 14.8539 20.7232C14.8957 20.7552 14.9389 20.7825 14.9822 20.8084C15.0986 20.9224 15.2254 21.006 15.3597 21.0607C15.4179 21.0972 15.4776 21.1306 15.5403 21.1595C15.6373 21.4118 15.8044 21.6277 16.0715 21.7098C16.2491 21.7645 16.4431 21.7493 16.6281 21.7022C16.6759 21.7265 16.7251 21.7493 16.7788 21.7706C16.837 21.7934 16.8952 21.8101 16.9534 21.8238C16.9639 21.8299 16.9743 21.836 16.9848 21.842C17.4309 22.0594 17.8741 21.9652 18.2591 21.7265C18.2905 21.7159 18.3218 21.7052 18.3531 21.6931C18.4591 21.725 18.5635 21.7524 18.665 21.7706C18.9545 21.8238 19.2843 21.8223 19.5499 21.6991C19.8349 21.7265 20.1184 21.6672 20.3229 21.4453C20.4527 21.3039 20.5258 21.1185 20.5676 20.9269C20.6243 20.9163 20.681 20.8996 20.7377 20.8737C20.957 20.7764 21.1272 20.5804 21.254 20.3691C21.26 20.3736 21.2659 20.3797 21.2719 20.3843C21.3361 20.4329 21.4002 20.4724 21.4674 20.5059C21.5942 20.6168 21.733 20.6898 21.8807 20.7354C21.9031 20.7476 21.9255 20.7612 21.9479 20.7734C22.0419 21.0485 22.2135 21.2872 22.4985 21.3754C22.685 21.4331 22.891 21.4134 23.0835 21.3602C23.1237 21.3799 23.1655 21.3997 23.2103 21.4164C23.2774 21.4422 23.3446 21.4605 23.4103 21.4727C23.4132 21.4727 23.4162 21.4757 23.4177 21.4772C23.6878 21.6079 23.9564 21.6247 24.2131 21.5654C24.4011 21.5699 24.5921 21.5304 24.7756 21.4605C24.8875 21.4955 24.9965 21.5228 25.1024 21.5426C25.38 21.5943 25.6948 21.5943 25.956 21.4863C26.2529 21.5228 26.5529 21.4681 26.7663 21.237C26.8379 21.1595 26.8901 21.0653 26.9319 20.9665C27.0617 20.9786 27.1945 20.9634 27.3258 20.9057C27.5228 20.819 27.678 20.6533 27.8004 20.4694C27.8093 20.4755 27.8183 20.4815 27.8272 20.4861C27.8272 20.4861 27.8272 20.4876 27.8287 20.4891C27.9451 20.6168 28.0764 20.708 28.2167 20.7704C28.2913 20.8205 28.3704 20.8661 28.4539 20.9041C28.5524 21.1458 28.7166 21.351 28.9747 21.4316C29.1463 21.4848 29.3329 21.4727 29.5119 21.4286C29.5448 21.4468 29.5806 21.462 29.6164 21.4787C29.5865 21.6657 29.6 21.8588 29.6597 22.0488C29.6597 22.0853 29.6597 22.1233 29.6641 22.1613C29.6641 22.1689 29.6611 22.1749 29.6611 22.1825C29.6611 22.1886 29.6582 22.1962 29.6582 22.2023C29.6238 22.4334 29.6552 22.6751 29.7671 22.9107C29.603 23.2405 29.5642 23.6145 29.6999 23.9671C29.6641 24.148 29.6701 24.3365 29.7223 24.5235C29.697 24.5965 29.6761 24.6725 29.6611 24.7545C29.6403 24.8731 29.6373 24.9871 29.6477 25.0966C29.6209 25.2182 29.6074 25.3489 29.6134 25.4903C29.6224 25.7001 29.6805 25.884 29.7716 26.0451C29.7611 26.0907 29.7537 26.1348 29.7492 26.1804C29.6985 26.2899 29.6567 26.4099 29.6313 26.5452C29.5612 26.9146 29.6537 27.2399 29.8357 27.5151C29.6761 27.816 29.6537 28.1261 29.7223 28.4256C29.6507 28.5837 29.6044 28.7631 29.594 28.9683C29.585 29.1735 29.6224 29.3589 29.6925 29.5246C29.6373 29.7162 29.6283 29.9275 29.6791 30.1524C29.6791 30.1539 29.6791 30.1555 29.6791 30.1585C29.6477 30.3044 29.6462 30.4428 29.6626 30.575C29.6626 30.5933 29.6656 30.61 29.6686 30.6282C29.6567 30.6936 29.6492 30.7605 29.6462 30.8319C29.3732 30.6981 29.0449 30.6662 28.6837 30.7833C28.6509 30.7939 28.6226 30.8091 28.5912 30.8213C28.3555 30.7954 28.1212 30.8274 27.9108 30.9186L27.9123 30.9079ZM19.5186 28.3222C19.5275 28.3116 19.5365 28.3009 19.5454 28.2903C19.6991 28.0942 19.8274 27.8449 19.8424 27.5971C19.8767 27.509 19.8946 27.4147 19.8886 27.3129C19.8782 27.1046 19.7707 26.9085 19.6409 26.7459C19.6409 26.7459 19.6409 26.7444 19.6394 26.7428C19.6708 26.5741 19.6812 26.3932 19.6484 26.2245C19.7036 26.1576 19.7484 26.0801 19.7752 25.9874C19.82 25.8323 19.8095 25.6651 19.7692 25.504C19.7916 25.4888 19.8125 25.4736 19.8334 25.4553C19.9602 25.5967 20.1214 25.6955 20.3199 25.7061C20.4557 25.7137 20.5915 25.6773 20.7183 25.618C20.8108 25.6043 20.9018 25.5739 20.9884 25.5344C21.2092 25.6499 21.4569 25.6955 21.6867 25.5754C21.7882 25.5222 21.8718 25.4401 21.9449 25.3474C21.9568 25.3504 21.9688 25.3535 21.9822 25.3565C22.1284 25.5389 22.3165 25.6818 22.5418 25.7046C22.5388 25.7776 22.5418 25.8536 22.5552 25.9296C22.5448 26.0542 22.5552 26.188 22.594 26.3279C22.6164 26.4145 22.6507 26.492 22.691 26.5635C22.6955 26.5984 22.7015 26.6349 22.7089 26.6699C22.6806 26.7322 22.6567 26.7976 22.6388 26.8629C22.5433 27.0408 22.4925 27.2384 22.5015 27.4406C22.4523 27.6823 22.4866 27.9468 22.6313 28.2113C22.6268 28.3374 22.6433 28.4621 22.6791 28.5852C22.6253 28.7691 22.6268 28.9546 22.6686 29.134C22.5836 29.2981 22.5373 29.4942 22.5492 29.7207C22.5552 29.8499 22.5851 29.967 22.6313 30.0734C22.6462 30.1311 22.6641 30.1889 22.688 30.2452C22.5865 30.382 22.5179 30.5431 22.491 30.7255C22.2657 30.6784 22.0225 30.6981 21.7763 30.7985C21.6778 30.7909 21.5808 30.7939 21.4853 30.8076C21.2868 30.7939 21.0854 30.8319 20.8959 30.9262C20.6631 30.7377 20.3646 30.648 20.0438 30.7194C20.0229 30.7194 20.0035 30.724 19.9826 30.7255C19.8841 30.7255 19.7842 30.7361 19.6857 30.7605C19.814 30.5917 19.8886 30.3926 19.8468 30.1722C19.8289 30.0734 19.7872 29.9807 19.7334 29.894C19.7767 29.7283 19.7812 29.5565 19.7185 29.4C19.7946 29.1887 19.808 28.9607 19.6887 28.7585C19.6633 28.7144 19.632 28.6749 19.5961 28.6369C19.5857 28.608 19.5753 28.5791 19.5633 28.5502C19.5529 28.4727 19.538 28.3952 19.5186 28.3192V28.3222ZM18.8127 11.0356C19.0037 11.104 19.2112 11.1451 19.4096 11.1329C19.4126 11.1998 19.4216 11.2621 19.4335 11.3245C19.4305 11.5282 19.4783 11.7151 19.5618 11.8854C19.538 12.0252 19.5305 12.1666 19.5409 12.3034C19.4559 12.5284 19.4335 12.7731 19.4917 13.0148C19.3947 13.2595 19.3649 13.5256 19.4216 13.784C19.4216 13.9102 19.4395 14.0348 19.4753 14.1549C19.4066 14.3586 19.3902 14.5775 19.4365 14.7964C19.432 14.8313 19.429 14.8663 19.426 14.9013C19.335 15.1825 19.3365 15.485 19.4574 15.7799C19.4574 15.7936 19.4574 15.8057 19.4574 15.8179C19.3171 15.7784 19.1634 15.7799 19.0037 15.8361C18.8694 15.789 18.7277 15.7784 18.5859 15.8103C18.5068 15.7981 18.4233 15.7981 18.3322 15.8103C18.2576 15.8209 18.1905 15.8437 18.1293 15.8726C18.0472 15.865 17.9666 15.8711 17.8861 15.8908C17.795 15.8832 17.7055 15.8893 17.619 15.9106C17.5951 15.9106 17.5712 15.9106 17.5458 15.9121C17.3936 15.8103 17.2041 15.7662 16.9952 15.8072C16.937 15.8072 16.8788 15.8133 16.8221 15.824C16.7162 15.8452 16.6162 15.8817 16.5222 15.9273C16.4804 15.9167 16.4401 15.9106 16.3983 15.906C16.4416 15.7768 16.4595 15.6415 16.4386 15.5032C16.5878 15.2798 16.6654 15.0183 16.5849 14.7477C16.5789 14.7264 16.5699 14.7052 16.5625 14.6854C16.8072 14.4239 17.0057 14.0743 16.9654 13.7217C17.0042 13.6578 17.037 13.5925 17.0639 13.524C17.0833 13.4997 17.1012 13.4754 17.1191 13.448C17.1937 13.3295 17.2355 13.1942 17.2564 13.0528C17.3369 12.9722 17.4026 12.875 17.4444 12.7564C17.5264 12.5253 17.4996 12.2639 17.4324 12.0252C17.4309 12.0176 17.428 12.01 17.425 12.0024C17.522 11.9431 17.6085 11.8626 17.6757 11.7577C17.7891 11.5844 17.8309 11.3701 17.8368 11.1588C17.9219 11.2013 18.0144 11.2302 18.1159 11.2393C18.3576 11.2591 18.5993 11.1649 18.8097 11.0356H18.8127ZM23.3013 11.0812C23.5296 11.1755 23.7952 11.1572 24.037 11.098C24.0713 11.0888 24.1041 11.0782 24.137 11.0691C24.1937 11.1633 24.2608 11.2515 24.3369 11.3351C24.3086 11.5616 24.325 11.7866 24.3847 11.9948C24.4056 12.2289 24.4847 12.4311 24.6055 12.5998C24.6398 12.6834 24.6831 12.761 24.7339 12.837C24.7145 13.1136 24.7637 13.3857 24.8831 13.6183C24.901 13.7733 24.9517 13.9299 25.0383 14.0819C24.9995 14.4285 25.1039 14.7873 25.3874 15.0989C25.368 15.3178 25.4068 15.5427 25.5173 15.7632C25.5202 15.7829 25.5247 15.8027 25.5277 15.8224C25.5053 15.8224 25.4829 15.8255 25.4606 15.8285C25.3233 15.7966 25.1726 15.8057 25.0144 15.8665C24.8055 15.7905 24.5787 15.7951 24.3802 15.903C24.3504 15.906 24.3205 15.9106 24.2907 15.9182C24.2862 15.9182 24.2802 15.9167 24.2757 15.9152C24.0758 15.8164 23.84 15.8088 23.6087 15.9364C23.6013 15.9364 23.5938 15.9364 23.5863 15.9364C23.5654 15.9334 23.5431 15.9288 23.5222 15.9273C23.4789 15.9243 23.4371 15.9228 23.3938 15.9243C23.1954 15.824 22.97 15.8057 22.7611 15.9C22.697 15.8665 22.6298 15.8422 22.5597 15.827C22.5373 15.7936 22.5119 15.7616 22.4851 15.7312C22.7223 15.4546 22.8775 15.1034 22.7567 14.7432C22.7492 14.7188 22.7388 14.696 22.7283 14.6732C22.7358 14.6155 22.7388 14.5562 22.7343 14.4969C22.7641 14.3662 22.7656 14.2309 22.7238 14.091C22.6895 13.9755 22.6283 13.8691 22.5522 13.7733C22.7567 13.4845 22.8745 13.1334 22.7328 12.7929C22.7223 12.7686 22.7104 12.7442 22.697 12.7199C22.7432 12.5694 22.7507 12.4098 22.6985 12.2472C22.6746 12.1696 22.6373 12.0982 22.5925 12.0313C22.6074 12.0024 22.6239 11.9751 22.6358 11.9431C22.7179 11.7121 22.691 11.4506 22.6239 11.212C22.6045 11.142 22.5806 11.0736 22.5537 11.0068C22.5716 10.9931 22.5895 10.9794 22.6074 10.9642C22.6806 10.9034 22.7477 10.8365 22.8104 10.7666C22.8581 10.7787 22.9059 10.7863 22.9551 10.7924C23.0417 10.914 23.1536 11.0144 23.3013 11.0752V11.0812ZM10.9846 18.1816C10.8995 18.1163 10.8055 18.0615 10.71 18.0144C10.7145 17.9795 10.7145 17.9445 10.7145 17.908C10.7697 17.9126 10.8279 17.908 10.8846 17.8898C10.9174 17.8791 10.9487 17.8639 10.9786 17.8472C11.0786 17.8883 11.1875 17.9019 11.2994 17.8685C11.3681 17.8472 11.4292 17.8107 11.4859 17.7651C11.5009 17.759 11.5158 17.7514 11.5307 17.7438C11.6307 17.8381 11.7516 17.9004 11.8963 17.8943C11.9829 17.8913 12.0649 17.8609 12.1425 17.8199C12.2246 17.8138 12.3007 17.7955 12.3723 17.7651C12.3813 17.7682 12.3902 17.7727 12.3992 17.7758C12.3529 17.8974 12.3261 18.0235 12.3171 18.1528C12.3171 18.1528 12.3171 18.1528 12.3171 18.1543C12.1485 18.1832 11.9888 18.2455 11.8456 18.3412C11.7933 18.2972 11.7351 18.2576 11.6695 18.2288C11.4606 18.1345 11.2159 18.1391 10.9875 18.1832L10.9846 18.1816ZM11.5591 14.7401C11.5591 14.7401 11.571 14.7295 11.577 14.7249C11.8172 14.4908 12.0291 14.1716 12.05 13.8387C12.0649 13.8205 12.0784 13.8007 12.0918 13.7825C12.2141 13.7201 12.3216 13.6289 12.4022 13.5028C12.4663 13.4009 12.5066 13.2854 12.5305 13.1638C12.6335 13.0756 12.7185 12.9677 12.7693 12.8263C12.8334 12.6439 12.8304 12.4433 12.7931 12.2487C12.8036 12.2289 12.8125 12.2061 12.8215 12.1848C12.9558 12.1225 13.0752 12.0283 13.1647 11.8915C13.3005 11.6832 13.3363 11.4157 13.3259 11.1633C13.3259 11.1253 13.3199 11.0888 13.3169 11.0524C13.3229 11.0478 13.3303 11.0448 13.3363 11.0387C13.3796 11.0052 13.4169 10.9657 13.4527 10.9262C13.4587 10.9262 13.4646 10.9262 13.4706 10.9262C13.7944 11.0387 14.1704 11.0706 14.451 10.8776C14.4987 10.8928 14.545 10.9064 14.5898 10.9201C14.4047 11.101 14.2749 11.3397 14.2301 11.633C14.1988 11.7182 14.1719 11.8079 14.154 11.9051C14.1212 12.086 14.1302 12.2563 14.1675 12.4144C14.16 12.4585 14.1555 12.5041 14.1525 12.5497C14.0406 12.6971 13.969 12.8613 13.9317 13.0346C13.8899 13.1425 13.8616 13.2535 13.8511 13.3675C13.8108 13.4237 13.772 13.483 13.7377 13.5499C13.7362 13.5529 13.7347 13.556 13.7332 13.559C13.6392 13.6669 13.5571 13.7961 13.4915 13.9497C13.3885 14.1899 13.3676 14.4255 13.402 14.652C13.3303 14.7994 13.2871 14.956 13.2751 15.1186C13.2721 15.1247 13.2706 15.1323 13.2677 15.1384C13.1304 15.3375 13.0423 15.5625 13.0185 15.7951C12.917 15.7905 12.8125 15.8057 12.7066 15.8498C12.6872 15.8498 12.6678 15.8544 12.6484 15.8574C12.5603 15.8392 12.4678 15.8376 12.3783 15.8468C12.329 15.8528 12.2813 15.8635 12.2335 15.8741C12.0724 15.8027 11.8859 15.789 11.6889 15.8604C11.6546 15.8589 11.6202 15.8574 11.5859 15.8604C11.4964 15.8635 11.4098 15.8802 11.3248 15.9015C11.3069 15.8939 11.289 15.8863 11.2711 15.8802C11.3352 15.751 11.3785 15.6081 11.4039 15.4652C11.4084 15.4424 11.4098 15.4196 11.4143 15.3953C11.5367 15.1977 11.6023 14.9742 11.5546 14.7416L11.5591 14.7401ZM31.4309 18.1102C31.2339 18.1543 31.0504 18.2455 30.8922 18.3838C30.7579 18.399 30.6266 18.434 30.5057 18.4857C30.4699 18.4568 30.4326 18.4294 30.3938 18.4036C30.2789 18.2379 30.1058 18.1147 29.9223 18.0266C29.9223 18.0266 29.9223 18.0251 29.9223 18.0235C29.9312 17.9536 29.9283 17.8807 29.9163 17.8062C30.0775 17.8913 30.2595 17.9278 30.4267 17.8609C30.5222 17.8533 30.6147 17.8138 30.6982 17.7606C30.7326 17.7636 30.7654 17.7636 30.7997 17.7606C30.9161 17.8503 31.0534 17.9035 31.2056 17.8731C31.2175 17.87 31.228 17.8655 31.2399 17.8624C31.2683 17.8715 31.2966 17.8791 31.328 17.8822C31.3757 17.8867 31.4235 17.8822 31.4712 17.8731C31.4593 17.9308 31.4503 17.9886 31.4458 18.0479C31.4414 18.0691 31.4354 18.0904 31.4324 18.1117L31.4309 18.1102ZM24.507 18.513C24.3742 18.4978 24.2429 18.4963 24.1131 18.5069C24.0489 18.4416 23.9773 18.3853 23.8997 18.3367C23.7758 18.1604 23.5834 18.0327 23.3864 17.943C23.3804 17.9399 23.3744 17.9384 23.367 17.9354C23.367 17.9156 23.367 17.8959 23.3655 17.8746C23.3998 17.8685 23.4341 17.8579 23.4699 17.8427C23.5371 17.8123 23.5953 17.7666 23.6475 17.7119C23.7744 17.8275 23.9295 17.9019 24.1041 17.867C24.1877 17.8503 24.2653 17.8077 24.3339 17.7545C24.4503 17.7818 24.5742 17.791 24.6906 17.7712C24.8413 17.8624 25.0159 17.9202 25.1815 17.8913C25.192 17.8913 25.2024 17.8943 25.2129 17.8943C25.2949 17.8928 25.3755 17.867 25.4516 17.829C25.4844 17.8214 25.5173 17.8107 25.5501 17.7986C25.5859 17.829 25.6232 17.8563 25.6635 17.8776C25.5411 18.0083 25.4561 18.1512 25.4009 18.3017C25.1159 18.2835 24.8383 18.3488 24.604 18.5069C24.5712 18.5069 24.5399 18.5085 24.507 18.5115V18.513ZM17.6667 18.8246C17.61 18.7699 17.5488 18.7198 17.4817 18.6787C17.3608 18.5069 17.1773 18.3823 16.9863 18.2926C16.9922 18.2227 16.9892 18.1512 16.9743 18.0767C16.9624 18.0144 16.9415 17.9551 16.9161 17.8974C16.9191 17.8974 16.9221 17.8974 16.9251 17.8989C17.0698 17.9111 17.2176 17.8533 17.3429 17.7758C17.5264 17.8411 17.7354 17.8639 17.907 17.7834C17.9487 17.8107 17.995 17.8351 18.0472 17.8487C18.1472 17.8746 18.2517 17.8639 18.3531 17.8381C18.4352 17.8472 18.5158 17.8381 18.5934 17.8062C18.7187 17.8928 18.8605 17.9491 19.0067 17.9323C18.865 18.1102 18.7829 18.3078 18.7501 18.513C18.5292 18.5313 18.3173 18.6042 18.1338 18.735C17.9711 18.7395 17.8129 18.7699 17.6667 18.8246ZM28.2122 11.0904C28.2406 11.1056 28.2689 11.1192 28.2988 11.1314C28.354 11.2895 28.439 11.4461 28.5644 11.5966C28.7076 11.7668 28.8762 11.8808 29.0568 11.9523C29.1105 12.0343 29.1672 12.1134 29.2284 12.1894C29.2389 12.2061 29.2493 12.2228 29.2612 12.2396C29.2941 12.4235 29.3403 12.5998 29.3985 12.7594C29.403 12.7944 29.406 12.8309 29.412 12.8643C29.4567 13.1471 29.5627 13.448 29.7537 13.6563C29.7895 13.9254 29.8999 14.1762 30.0879 14.3707C30.1088 14.4711 30.1402 14.5684 30.1849 14.6596C30.1879 14.9757 30.3088 15.298 30.5833 15.5777C30.6117 15.6598 30.646 15.7434 30.6908 15.827C30.7087 15.8589 30.7281 15.8848 30.7475 15.9136C30.5908 15.8376 30.4073 15.8224 30.2133 15.8878C30.0163 15.8057 29.8014 15.7981 29.6059 15.8832C29.5179 15.8878 29.4328 15.9045 29.3538 15.9349C29.3433 15.9349 29.3329 15.9349 29.3224 15.938C29.215 15.865 29.0941 15.8179 28.9703 15.7996C29.0001 15.6598 28.9971 15.5139 28.9479 15.3649C28.9315 15.3162 28.9106 15.2706 28.8852 15.2266C28.8643 15.1597 28.836 15.0943 28.7986 15.0335C28.7882 14.9849 28.7733 14.9347 28.7524 14.8861C28.7375 14.8526 28.7211 14.8222 28.7031 14.7903C28.7002 14.7751 28.6972 14.7614 28.6927 14.7462C28.633 14.544 28.4927 14.3723 28.3316 14.2339C28.4375 14.0029 28.4733 13.7475 28.3689 13.4997C28.3182 13.3812 28.2406 13.2763 28.148 13.1851C28.1451 13.1197 28.1346 13.0543 28.1137 12.989C28.0481 12.7822 27.8959 12.6105 27.7257 12.4752C27.8168 12.0313 27.7824 11.5008 27.39 11.2317C27.578 11.2819 27.7735 11.2804 27.963 11.1892C28.0227 11.1603 28.0779 11.1238 28.1301 11.0828C28.157 11.0858 28.1839 11.0873 28.2107 11.0873L28.2122 11.0904Z" fill="currentColor"/>
</g>
<defs>
<clipPath id="clip0_533_8947">
<rect width="32" height="32" fill="white" transform="translate(6 6)"/>
</clipPath>
</defs>
</svg>
