<svg viewBox="0 0 31 30" fill="none" xmlns="http://www.w3.org/2000/svg">
<path d="M30.769 12.8919C30.731 12.6954 30.6252 12.517 30.493 12.3618C30.4435 12.2611 30.3873 12.1637 30.3245 12.0713C30.4881 11.8335 30.5757 11.5578 30.4997 11.2639C30.4501 11.0756 30.3377 10.9089 30.1989 10.7669C30.1477 10.6827 30.0799 10.6051 29.9957 10.539C29.9543 10.5077 29.9097 10.4796 29.8618 10.4565C29.8453 10.364 29.8139 10.2765 29.7709 10.1923C29.642 9.62762 29.2653 9.16366 28.7266 9.01671C28.6126 8.79711 28.4457 8.61219 28.2358 8.4801C28.2127 8.45203 28.1895 8.42396 28.1615 8.39754C28.0474 8.29022 27.9053 8.21923 27.7533 8.17134C27.6723 8.0376 27.5633 7.92368 27.4112 7.84608C27.3749 7.82791 27.3369 7.81305 27.2972 7.79984C27.2526 7.76187 27.2047 7.72555 27.1502 7.69583C26.9122 7.56209 26.6181 7.54392 26.3438 7.57529C26.314 7.5786 26.2843 7.5852 26.2545 7.5885C26.0017 7.34744 25.6646 7.20049 25.2697 7.2104C25.1904 7.15591 25.1044 7.10803 25.0136 7.07171C24.7822 6.92146 24.4947 6.83725 24.1543 6.85376C24.1427 6.85376 24.1328 6.85706 24.1212 6.85706C23.9279 6.63251 23.68 6.4674 23.3892 6.39641C23.2587 6.31385 23.1116 6.25276 22.9629 6.21148C22.9513 6.20818 22.9398 6.20653 22.9265 6.20323C22.8555 5.90107 22.7001 5.63195 22.4077 5.4916C22.2672 5.42391 22.1102 5.39749 21.9516 5.39419C21.9483 5.39253 21.945 5.38923 21.9433 5.38758C21.8673 5.17789 21.7136 4.99462 21.5418 4.84602C21.4426 4.69577 21.322 4.56368 21.1783 4.46131C21.0312 4.12944 20.7833 3.86031 20.4512 3.71832C20.3619 3.58623 20.2611 3.46405 20.1471 3.35507C20.0282 3.18336 19.8877 3.0298 19.7307 2.89772C19.701 2.80525 19.6663 2.71609 19.6217 2.62859C19.6068 2.59887 19.5903 2.57245 19.5737 2.54438C19.4862 2.22241 19.3044 1.94173 19.0433 1.74525C18.9954 1.65939 18.9342 1.58013 18.8549 1.50914C18.6517 1.33082 18.3691 1.25322 18.0965 1.22845C18.0717 1.2268 18.0469 1.22515 18.0221 1.22515C17.8073 1.00885 17.5429 0.856951 17.2504 0.802465C17.0306 0.655517 16.7563 0.57131 16.4291 0.577915C16.2127 0.582868 16.0226 0.635703 15.8541 0.724863C15.8326 0.731467 15.8128 0.739723 15.793 0.747978C15.246 0.401246 14.547 0.386386 13.9819 0.927949C13.9439 0.964273 13.9125 1.00225 13.8811 1.04022C13.5638 1.04022 13.2482 1.1558 12.9789 1.41502C12.7574 1.46786 12.5393 1.57848 12.3361 1.76176C12.0865 1.86578 11.8602 2.0474 11.68 2.32643C11.5611 2.50971 11.4966 2.69793 11.4735 2.88946C11.1959 3.00504 10.9612 3.20482 10.8142 3.48551C10.6539 3.60274 10.5101 3.75959 10.3944 3.96598C10.3168 4.10302 10.2705 4.24337 10.2457 4.38206C10.2457 4.38206 10.2441 4.38206 10.2424 4.38371C9.93507 4.50259 9.67564 4.71558 9.517 5.02104C9.479 5.07057 9.44429 5.12671 9.41125 5.1845C9.30879 5.25384 9.20965 5.33805 9.11546 5.44042C9.05101 5.50976 8.99979 5.58241 8.95517 5.65671C8.72218 5.80531 8.5338 6.02326 8.41978 6.31055C8.13391 6.34192 7.86126 6.4608 7.63488 6.6837C7.61009 6.69526 7.58861 6.71177 7.56547 6.72498C7.40519 6.71177 7.24655 6.72332 7.09288 6.75965C6.79874 6.76956 6.50626 6.87523 6.25013 7.09317C5.98905 7.13445 5.73292 7.25663 5.49993 7.47623C5.49993 7.47623 5.49993 7.47623 5.49827 7.47623C5.33799 7.48944 5.19423 7.53071 5.06368 7.59015C4.91166 7.60171 4.75468 7.63804 4.59274 7.70408C4.35479 7.8015 4.17467 7.95175 4.03917 8.13337C3.88715 8.18125 3.74504 8.24895 3.6178 8.33811C3.44264 8.4025 3.28236 8.49331 3.14686 8.61054C2.84116 8.64686 2.53711 8.79051 2.26941 9.06459C2.20827 9.12733 2.15705 9.19503 2.11078 9.26437C1.80838 9.43774 1.57374 9.72668 1.47128 10.1329C1.35727 10.2633 1.25977 10.4218 1.18872 10.6133C1.11601 10.8115 1.09288 11.003 1.10775 11.1879C0.87145 11.4785 0.757432 11.8682 0.849968 12.3288C0.854925 12.3503 0.861535 12.3701 0.866493 12.3916C0.846663 12.4774 0.833444 12.5649 0.825182 12.6508C0.749169 12.9628 0.783871 13.2584 0.897889 13.5259C0.945809 13.7273 1.03669 13.9155 1.16889 14.0757C1.09618 14.3646 1.12097 14.6866 1.28291 15.0201C1.30935 15.0763 1.34074 15.1258 1.37214 15.1753C1.4151 15.3256 1.48781 15.4758 1.59191 15.6244C1.62331 15.669 1.65801 15.7086 1.69436 15.7483C1.7836 15.9992 1.95545 16.2304 2.22149 16.412C2.26611 16.8413 2.44457 17.2805 2.86759 17.4373C2.88081 17.4423 2.89238 17.4456 2.9056 17.4489C2.93039 17.5067 2.95683 17.5645 2.98657 17.6206C2.98657 17.6256 2.98987 17.6322 2.99153 17.6371C2.99153 17.6404 2.99318 17.6437 2.99483 17.647C2.99814 17.6569 2.99979 17.6668 3.00309 17.6768C3.02623 17.7758 3.05762 17.8749 3.10224 17.9773C3.23278 18.2728 3.43934 18.4775 3.6872 18.6146C3.74669 18.6674 3.81114 18.7169 3.87889 18.7615C3.88384 18.783 3.88715 18.8045 3.89211 18.8259C3.90367 18.8722 3.91689 18.92 3.93011 18.9679C3.94664 19.2651 4.02761 19.5689 4.20607 19.7935C4.20937 19.9866 4.25234 20.165 4.33 20.3301C4.32174 20.4275 4.32339 20.5249 4.33661 20.6207C4.33165 20.8353 4.36966 21.0467 4.45393 21.2398C4.31017 21.5123 4.2606 21.8425 4.34818 22.2173C4.35809 22.2569 4.37131 22.2932 4.38288 22.3296C4.35479 22.427 4.33826 22.5293 4.33496 22.6367C4.31513 22.7341 4.30026 22.8348 4.2986 22.9438C4.2953 23.1056 4.31843 23.2542 4.36305 23.3929C4.34157 23.629 4.37957 23.8816 4.5002 24.1425C4.50846 24.159 4.51838 24.1738 4.52664 24.1904C4.48203 24.3736 4.47376 24.5635 4.50516 24.7468C4.47707 25.1034 4.59274 25.4733 4.90009 25.7985C4.93479 25.8349 4.97115 25.8662 5.00915 25.8976C4.97115 26.1205 4.98602 26.3649 5.07525 26.6241C5.10995 26.7232 5.15457 26.8107 5.20579 26.8932C5.2471 27.06 5.31981 27.2284 5.43218 27.3952C5.5462 27.5636 5.685 27.6907 5.83702 27.7865C5.98409 28.0193 6.20882 28.2141 6.51783 28.3429C6.62524 28.4717 6.76239 28.5889 6.93094 28.688C6.93589 28.6913 6.94085 28.6929 6.94581 28.6962C7.12427 28.901 7.37049 29.0611 7.69271 29.147C7.8183 29.18 7.94058 29.1932 8.05955 29.1932C8.11574 29.2279 8.17522 29.2576 8.24297 29.2807C8.43631 29.3435 8.64782 29.3352 8.84942 29.289C8.86759 29.2939 8.88577 29.2972 8.90395 29.3005C9.13694 29.4656 9.40959 29.5548 9.70042 29.4821C9.71034 29.4788 9.72025 29.4755 9.73017 29.4722C9.84749 29.4722 9.96481 29.4557 10.0805 29.4277C10.173 29.4623 10.2738 29.4838 10.3812 29.4838C10.5944 29.4838 10.8026 29.4062 10.991 29.2939C11.0587 29.2956 11.1281 29.2906 11.1992 29.2758C11.3363 29.2444 11.4636 29.1783 11.5776 29.0941C11.8304 29.2015 12.1064 29.2328 12.3708 29.114C12.503 29.0545 12.617 28.9637 12.7178 28.8564C12.9541 28.901 13.1937 28.8762 13.4068 28.7358C13.5556 28.6384 13.6712 28.4948 13.7605 28.3363C13.9984 28.3792 14.2529 28.328 14.4842 28.2422C14.6296 28.1877 14.7684 28.1167 14.8973 28.0358C15.2972 28.2537 15.7996 28.3743 16.1928 28.1282C16.2936 28.1497 16.3944 28.158 16.4936 28.1514C16.6654 28.2702 16.8737 28.3561 17.1199 28.3957C17.3264 28.4287 17.5165 28.4155 17.6949 28.366C17.7461 28.3858 17.799 28.404 17.8535 28.4188C17.9428 28.4898 18.0436 28.5542 18.1576 28.6104C18.3047 28.683 18.4517 28.721 18.5971 28.7375C18.6831 28.8349 18.7888 28.9158 18.921 28.967C19.1639 29.0611 19.4432 29.0397 19.6977 28.9736C19.7258 28.967 19.7522 28.9571 19.7803 28.9488C19.8993 29.1288 20.0645 29.2675 20.2876 29.3253C20.4214 29.36 20.5619 29.3583 20.7007 29.3369C20.7668 29.3649 20.8378 29.3847 20.9155 29.3946C21.1386 29.4227 21.3683 29.3567 21.5732 29.2559C21.7764 29.2328 21.9764 29.1651 22.1648 29.0694C22.2887 29.1239 22.4242 29.1651 22.5762 29.1849C22.7877 29.213 22.9811 29.1916 23.1595 29.1321C23.3099 29.1288 23.4586 29.109 23.5974 29.0644C23.8949 29.1057 24.1939 29.0562 24.4253 28.8432C24.6236 28.6599 24.7293 28.3908 24.7822 28.1249C24.7855 28.1084 24.7872 28.0919 24.7905 28.0754C25.0681 28.1134 25.3457 28.0705 25.5671 27.8773C25.7258 27.7402 25.8266 27.5471 25.8943 27.344C26.0893 27.1392 26.2182 26.885 26.1951 26.5894C26.2364 26.5514 26.2744 26.5102 26.3091 26.4623C26.4627 26.2493 26.5123 25.9686 26.5123 25.7028C26.5123 25.6813 26.5107 25.6598 26.509 25.6384C26.7007 25.5145 26.8527 25.3412 26.9155 25.1051C26.9601 24.9383 26.9502 24.76 26.9122 24.5883C26.9221 24.4496 26.9023 24.3076 26.8395 24.1689C26.8263 24.1408 26.8114 24.1128 26.7965 24.0863C26.856 23.9328 26.9023 23.7677 26.9205 23.6026C26.9453 23.5349 26.9651 23.4655 26.98 23.3962C26.9932 23.3516 27.0047 23.3037 27.0114 23.2542C27.0196 23.1881 27.018 23.1204 27.0114 23.0527C27.0031 22.9041 26.9651 22.7605 26.8858 22.6284C26.8825 22.6235 26.8808 22.6169 26.8775 22.6119C26.9122 22.4716 26.9238 22.323 26.9221 22.1777C26.9188 22.0026 26.8957 21.8293 26.8544 21.6625C26.8957 21.3917 26.8841 21.1177 26.8329 20.8551C26.8329 20.8039 26.8329 20.7528 26.8329 20.7016C27.1188 20.5018 27.3369 20.2178 27.3303 19.8562C27.327 19.6944 27.2774 19.5375 27.2014 19.3906C27.4856 19.1462 27.7169 18.8144 27.7037 18.4478C28.054 18.2943 28.3862 18.0416 28.4903 17.6817C28.7183 17.5793 28.91 17.4175 29.0092 17.1699C29.0686 17.0213 29.0852 16.8595 29.0752 16.6976C29.1248 16.5771 29.1562 16.4483 29.1744 16.3195C29.2983 16.2799 29.4157 16.2155 29.5164 16.1148C29.7065 15.9282 29.8023 15.6591 29.8469 15.3949C29.8701 15.2628 29.8783 15.1307 29.8767 15.0003C30.1411 14.8517 30.3509 14.6288 30.3972 14.3168C30.4137 14.2078 30.4071 14.0988 30.3873 13.9898C30.498 13.899 30.5889 13.7867 30.6467 13.6431C30.6732 13.5787 30.6913 13.5127 30.7012 13.4433C30.7773 13.2749 30.8087 13.0916 30.769 12.8968V12.8919Z" fill="currentColor"/>
</svg>
