<svg viewBox="0 0 143 139" fill="none" xmlns="http://www.w3.org/2000/svg">
<g clip-path="url(#clip0_452_3579)">
<path d="M142.921 59.394C142.74 58.4522 142.236 57.5975 141.606 56.8536C141.37 56.3708 141.102 55.9039 140.802 55.4607C141.582 54.3211 142 52.9995 141.637 51.5908C141.401 50.6886 140.865 49.8893 140.204 49.2087C139.96 48.8051 139.637 48.4332 139.235 48.1166C139.038 47.9663 138.825 47.8317 138.597 47.7209C138.518 47.2777 138.369 46.8583 138.164 46.4547C137.549 43.7481 135.754 41.5243 133.186 40.82C132.642 39.7674 131.847 38.8811 130.846 38.248C130.736 38.1134 130.626 37.9789 130.492 37.8523C129.948 37.3379 129.271 36.9976 128.546 36.7681C128.16 36.127 127.641 35.581 126.916 35.209C126.743 35.122 126.561 35.0507 126.372 34.9874C126.16 34.8054 125.931 34.6313 125.671 34.4889C124.537 33.8478 123.135 33.7608 121.828 33.9111C121.686 33.927 121.544 33.9586 121.402 33.9745C120.197 32.819 118.59 32.1147 116.708 32.1622C116.33 31.901 115.92 31.6715 115.487 31.4974C114.384 30.7772 113.014 30.3736 111.391 30.4528C111.336 30.4528 111.289 30.4686 111.234 30.4686C110.312 29.3923 109.131 28.6009 107.744 28.2606C107.122 27.8649 106.421 27.5721 105.712 27.3742C105.657 27.3584 105.602 27.3505 105.539 27.3347C105.2 25.8864 104.46 24.5965 103.066 23.9238C102.396 23.5993 101.648 23.4727 100.892 23.4569C100.876 23.4489 100.86 23.4331 100.852 23.4252C100.49 22.4201 99.7574 21.5417 98.9382 20.8294C98.4656 20.1093 97.8906 19.4762 97.2053 18.9855C96.5043 17.3948 95.3228 16.1048 93.7396 15.4242C93.3143 14.7911 92.8338 14.2055 92.2903 13.6832C91.7232 12.8601 91.0537 12.1241 90.3054 11.491C90.1636 11.0478 89.9982 10.6205 89.7856 10.201C89.7147 10.0586 89.6359 9.93198 89.5571 9.79744C89.1397 8.25423 88.2732 6.90886 87.0287 5.9671C86.8003 5.55558 86.5089 5.17571 86.1308 4.83541C85.162 3.98071 83.8151 3.60876 82.5154 3.49005C82.3973 3.48213 82.2791 3.47422 82.161 3.47422C81.137 2.4375 79.8768 1.70942 78.4826 1.44826C77.435 0.743919 76.1275 0.340309 74.5679 0.371965C73.5361 0.395707 72.6303 0.648952 71.8269 1.0763C71.7245 1.10796 71.63 1.14753 71.5354 1.1871C68.9283 -0.474824 65.5965 -0.546049 62.9027 2.04972C62.7215 2.22382 62.5718 2.40584 62.4222 2.58786C60.9099 2.58786 59.4054 3.14184 58.1216 4.38432C57.0661 4.63757 56.0264 5.1678 55.0575 6.04624C53.8682 6.54482 52.7891 7.41535 51.9305 8.7528C51.3634 9.63125 51.0562 10.5334 50.946 11.4514C49.6227 12.0054 48.5042 12.963 47.8032 14.3084C47.0392 14.8703 46.3539 15.6221 45.8025 16.6113C45.4323 17.2682 45.2118 17.9409 45.0936 18.6056C45.0936 18.6056 45.0858 18.6056 45.0779 18.6135C43.6128 19.1833 42.3762 20.2042 41.62 21.6683C41.4389 21.9057 41.2735 22.1748 41.1159 22.4518C40.6276 22.7842 40.155 23.1878 39.706 23.6784C39.3988 24.0108 39.1547 24.359 38.942 24.7152C37.8314 25.4274 36.9335 26.4721 36.39 27.8491C35.0273 27.9994 33.7277 28.5692 32.6486 29.6376C32.5304 29.693 32.428 29.7722 32.3178 29.8355C31.5537 29.7722 30.7976 29.8276 30.065 30.0017C28.663 30.0491 27.2688 30.5556 26.048 31.6003C24.8035 31.7981 23.5826 32.3838 22.472 33.4363C22.472 33.4363 22.472 33.4363 22.4641 33.4363C21.7001 33.4996 21.0148 33.6975 20.3926 33.9824C19.6679 34.0378 18.9196 34.2119 18.1477 34.5284C17.0135 34.9953 16.1549 35.7155 15.509 36.586C14.7844 36.8155 14.107 37.14 13.5005 37.5674C12.6656 37.876 11.9016 38.3113 11.2557 38.8732C9.7985 39.0473 8.3492 39.7358 7.07319 41.0495C6.78175 41.3502 6.53758 41.6747 6.31703 42.0071C4.87561 42.838 3.75713 44.223 3.26878 46.1698C2.7253 46.795 2.26058 47.5547 1.92188 48.4727C1.57531 49.4224 1.46504 50.3404 1.53593 51.2268C0.409571 52.6196 -0.133916 54.4873 0.307175 56.6953C0.330805 56.7982 0.362311 56.8932 0.385941 56.996C0.291422 57.4076 0.228409 57.827 0.189025 58.2385C-0.173299 59.7342 -0.00788996 61.1508 0.535597 62.4329C0.764019 63.3984 1.19723 64.3006 1.82736 65.0682C1.48079 66.4532 1.59894 67.9964 2.37085 69.595C2.49687 69.8641 2.64653 70.1015 2.79619 70.3389C3.00098 71.0591 3.34755 71.7792 3.84378 72.4915C3.99343 72.7052 4.15884 72.8951 4.33213 73.085C4.75746 74.2879 5.57663 75.3959 6.84477 76.2664C7.05744 78.324 7.90811 80.4291 9.92453 81.181C9.98754 81.2047 10.0427 81.2205 10.1057 81.2364C10.2238 81.5134 10.3499 81.7903 10.4916 82.0594C10.4916 82.0832 10.5074 82.1148 10.5153 82.1385C10.5153 82.1544 10.5231 82.1702 10.531 82.186C10.5468 82.2335 10.5547 82.281 10.5704 82.3285C10.6807 82.8033 10.8303 83.2782 11.043 83.7688C11.6653 85.1854 12.6498 86.1667 13.8313 86.8236C14.1149 87.0768 14.4221 87.3142 14.745 87.5279C14.7686 87.6308 14.7844 87.7337 14.808 87.8366C14.8632 88.0582 14.9262 88.2877 14.9892 88.5172C15.068 89.9417 15.4539 91.3978 16.3046 92.4741C16.3203 93.4 16.5251 94.2548 16.8953 95.0461C16.856 95.5131 16.8638 95.98 16.9268 96.439C16.9032 97.4678 17.0844 98.4808 17.4861 99.4067C16.8008 100.713 16.5645 102.295 16.982 104.092C17.0292 104.282 17.0922 104.456 17.1474 104.63C17.0135 105.097 16.9347 105.587 16.919 106.102C16.8244 106.569 16.7536 107.052 16.7457 107.574C16.7299 108.349 16.8402 109.062 17.0529 109.726C16.9505 110.858 17.1316 112.069 17.7066 113.319C17.746 113.399 17.7933 113.47 17.8327 113.549C17.62 114.427 17.5806 115.337 17.7303 116.216C17.5964 117.925 18.1477 119.698 19.6128 121.257C19.7782 121.431 19.9515 121.582 20.1326 121.732C19.9515 122.8 20.0224 123.972 20.4477 125.214C20.6131 125.689 20.8258 126.108 21.0699 126.504C21.2669 127.303 21.6134 128.11 22.149 128.91C22.6925 129.717 23.3542 130.326 24.0788 130.785C24.7798 131.901 25.851 132.835 27.324 133.452C27.836 134.07 28.4897 134.632 29.2931 135.106C29.3168 135.122 29.3404 135.13 29.364 135.146C30.2147 136.127 31.3883 136.895 32.9243 137.306C33.5229 137.465 34.1057 137.528 34.6729 137.528C34.9407 137.694 35.2242 137.837 35.5472 137.947C36.4687 138.248 37.4769 138.209 38.4379 137.987C38.5245 138.011 38.6112 138.027 38.6978 138.042C39.8084 138.834 41.1081 139.261 42.4943 138.913C42.5416 138.897 42.5889 138.881 42.6361 138.865C43.1954 138.865 43.7546 138.786 44.306 138.652C44.7471 138.818 45.2275 138.921 45.7395 138.921C46.7556 138.921 47.748 138.549 48.646 138.011C48.9689 138.019 49.2997 137.995 49.6384 137.924C50.2922 137.773 50.8987 137.457 51.4422 137.053C52.6473 137.568 53.9627 137.718 55.223 137.148C55.8531 136.863 56.3966 136.428 56.877 135.914C58.0034 136.127 59.1455 136.009 60.1616 135.336C60.8705 134.869 61.4219 134.18 61.8472 133.421C62.9814 133.626 64.1944 133.381 65.2972 132.97C65.9903 132.708 66.6519 132.368 67.2663 131.98C69.1724 133.025 71.5669 133.603 73.4416 132.424C73.9221 132.526 74.4025 132.566 74.8751 132.534C75.6943 133.104 76.6867 133.516 77.8604 133.706C78.8449 133.864 79.7507 133.801 80.6014 133.563C80.8456 133.658 81.0976 133.745 81.3576 133.816C81.7829 134.157 82.2634 134.465 82.8069 134.734C83.5079 135.083 84.2089 135.265 84.9021 135.344C85.3116 135.811 85.8157 136.199 86.4459 136.444C87.6037 136.895 88.9349 136.792 90.1479 136.475C90.2818 136.444 90.4078 136.396 90.5417 136.357C91.1088 137.219 91.8965 137.884 92.9598 138.161C93.5978 138.327 94.2673 138.319 94.929 138.217C95.2441 138.351 95.5827 138.446 95.9529 138.494C97.0163 138.628 98.1111 138.312 99.0878 137.829C100.057 137.718 101.01 137.394 101.908 136.935C102.498 137.196 103.144 137.394 103.869 137.488C104.877 137.623 105.799 137.52 106.649 137.235C107.366 137.219 108.075 137.124 108.737 136.911C110.154 137.109 111.58 136.871 112.683 135.85C113.628 134.972 114.132 133.682 114.384 132.408C114.4 132.329 114.408 132.249 114.424 132.17C115.747 132.352 117.07 132.147 118.126 131.221C118.882 130.564 119.362 129.638 119.685 128.664C120.615 127.683 121.229 126.464 121.119 125.048C121.316 124.866 121.497 124.668 121.662 124.438C122.395 123.418 122.631 122.072 122.631 120.798C122.631 120.695 122.623 120.592 122.615 120.489C123.529 119.896 124.254 119.065 124.553 117.933C124.766 117.134 124.718 116.279 124.537 115.456C124.584 114.791 124.49 114.111 124.191 113.446C124.128 113.311 124.057 113.177 123.986 113.05C124.269 112.314 124.49 111.523 124.577 110.732C124.695 110.407 124.789 110.075 124.86 109.742C124.923 109.529 124.978 109.299 125.01 109.062C125.049 108.745 125.041 108.421 125.01 108.096C124.97 107.384 124.789 106.695 124.411 106.062C124.395 106.039 124.388 106.007 124.372 105.983C124.537 105.31 124.592 104.598 124.584 103.902C124.569 103.063 124.458 102.232 124.262 101.433C124.458 100.135 124.403 98.8211 124.159 97.5628C124.159 97.3174 124.159 97.0721 124.159 96.8268C125.522 95.8692 126.561 94.508 126.53 92.7749C126.514 91.9993 126.278 91.2475 125.916 90.5431C127.27 89.3719 128.373 87.7812 128.31 86.0243C129.98 85.2883 131.563 84.0775 132.059 82.3522C133.146 81.8616 134.06 81.086 134.533 79.8989C134.816 79.1867 134.895 78.4111 134.848 77.6355C135.084 77.0578 135.234 76.4405 135.32 75.8232C135.911 75.6333 136.47 75.3247 136.951 74.8419C137.857 73.9476 138.313 72.6577 138.526 71.3914C138.636 70.7583 138.676 70.1252 138.668 69.5C139.928 68.7878 140.928 67.7194 141.149 66.2237C141.228 65.7013 141.196 65.179 141.102 64.6567C141.629 64.2214 142.063 63.6833 142.338 62.9948C142.464 62.6861 142.551 62.3696 142.598 62.0372C142.961 61.23 143.11 60.3515 142.921 59.4177V59.394Z" fill="#B7FF8D"/>
<path d="M61.1462 68.9381C64.1314 67.8856 64.6591 63.5725 62.4064 61.4832C59.2794 58.4997 55.0497 61.7919 55.9003 65.7092C56.2942 68.0518 58.7989 69.8166 61.091 68.9619L61.1462 68.9381Z" fill="#135000"/>
<path d="M76.3874 69.0252C79.3411 69.041 81.0819 65.2344 79.7035 62.5753C77.821 58.7925 73.1029 60.4307 72.7012 64.3243C72.3546 66.6114 74.0481 69.0647 76.3323 69.0252H76.3874Z" fill="#135000"/>
<path d="M60.7366 75.7995C62.5325 79.0046 65.4153 80.437 69.0464 80.0255C72.2128 79.6615 74.1662 78.0866 75.7967 75.4592C76.923 73.639 74.0638 71.9691 72.9375 73.7814C70.7714 77.2715 65.8564 78.1737 63.5879 74.1217C62.5403 72.254 59.6811 73.9318 60.7287 75.7995H60.7366Z" fill="#135000"/>
</g>
<defs>
<clipPath id="clip0_452_3579">
<rect width="143" height="139" fill="white"/>
</clipPath>
</defs>
</svg>
