<svg viewBox="0 0 38 38" fill="none" xmlns="http://www.w3.org/2000/svg">
<path d="M19.7144 26.603C17.8218 26.603 16.5322 25.8701 15.9478 24.5249L12.8027 27.2988C12.1719 27.8647 11.7822 28.1152 11.2627 28.1152C10.5205 28.1152 10.0845 27.5957 10.0845 26.7793V24.4878H9.7041C7.01367 24.4878 5.40869 22.8921 5.40869 20.1274V12.9375C5.40869 10.1729 6.97656 8.57715 9.76904 8.57715H21.5977C24.3901 8.57715 25.958 10.1821 25.958 12.9375V13.2065H28.4629C31.1348 13.2065 32.5913 14.6909 32.5913 17.3071V22.5581C32.5913 25.1465 31.1533 26.603 28.5186 26.603H28.3516V28.7275C28.3516 29.5347 27.9155 30.0542 27.1826 30.0542C26.6816 30.0542 26.2549 29.7759 25.6519 29.2471L22.5625 26.603H19.7144ZM11.7173 23.4302V26.0742L14.6582 23.1611C14.9736 22.8364 15.2148 22.7158 15.5859 22.6787C15.5859 22.6416 15.5767 22.6045 15.5767 22.5674V17.3071C15.5767 14.6909 17.0425 13.2065 19.7144 13.2065H24.1396V12.9932C24.1396 11.2861 23.2954 10.3955 21.542 10.3955H9.81543C8.06201 10.3955 7.22705 11.2861 7.22705 12.9932V20.0718C7.22705 21.7788 8.06201 22.6694 9.81543 22.6694H10.9565C11.4854 22.6694 11.7173 22.8735 11.7173 23.4302ZM19.8535 24.8218H22.5254C22.9521 24.8218 23.314 24.9702 23.6665 25.3042L26.7188 28.0688V25.6567C26.7188 25.1001 27.062 24.8218 27.5166 24.8218H28.3237C30.0215 24.8218 30.7915 23.9868 30.7915 22.3633V17.4463C30.7915 15.8228 30.0215 14.9878 28.3237 14.9878H19.8535C18.1558 14.9878 17.3857 15.8228 17.3857 17.4463V22.3633C17.3857 23.9868 18.1558 24.8218 19.8535 24.8218Z" fill="currentColor"/>
</svg>
