<svg viewBox="0 0 26 26" fill="currentColor" xmlns="http://www.w3.org/2000/svg">
<g clip-path="url(#clip0_239_18203)">
<path d="M24.9358 9.90513C25.0289 9.6232 25.0379 9.31493 24.8465 9.07647C24.7573 8.96581 24.6344 8.88677 24.5025 8.83012C24.4663 8.6628 24.4042 8.50603 24.3176 8.36902C24.3305 8.10685 24.2814 7.83546 24.1197 7.64312C24.0809 7.51006 24.015 7.39017 23.918 7.29532C23.9425 7.16358 23.9361 7.02657 23.8805 6.89219C23.8003 6.69326 23.6296 6.53912 23.4498 6.42582C23.4408 6.42055 23.4317 6.41528 23.4214 6.41001C23.4369 6.17683 23.3839 5.9476 23.2067 5.78292C23.1808 5.75921 23.1524 5.74076 23.1226 5.721C23.1187 5.46806 23.0399 5.22434 22.8291 5.0702C22.7553 5.01618 22.6726 4.98061 22.5846 4.95558C22.573 4.93977 22.5626 4.92396 22.551 4.90815C22.5031 4.66707 22.3971 4.44969 22.2445 4.28106C22.2329 4.25867 22.2199 4.23759 22.207 4.21651C22.2962 4.03602 22.3311 3.83577 22.2665 3.63157C22.2005 3.42474 22.0402 3.25479 21.8669 3.12437C21.7556 3.04137 21.6354 2.97155 21.5099 2.91753C21.3806 2.5974 21.1672 2.32206 20.9021 2.13103C20.6396 1.8939 20.3175 1.73844 19.98 1.70814C19.9179 1.70287 19.8571 1.70287 19.7964 1.70419C19.5119 1.56059 19.1885 1.53424 18.8872 1.66862C18.5406 1.49077 18.1384 1.47891 17.7879 1.70419C17.7349 1.71078 17.6819 1.72 17.6302 1.73185C17.4452 1.63832 17.2461 1.59221 17.0469 1.6067C16.8077 1.49867 16.5348 1.47891 16.2541 1.58035C16.1261 1.53292 15.9826 1.50789 15.8222 1.50921C15.5105 1.51185 15.2609 1.64095 15.0631 1.83725C14.8988 1.78719 14.7294 1.76611 14.5613 1.77533C14.2768 1.53161 13.8991 1.43148 13.4943 1.57376C13.3029 1.50658 13.0973 1.49077 12.8956 1.53688C12.7818 1.51975 12.6615 1.51843 12.5309 1.53819C12.4248 1.554 12.3278 1.58562 12.2386 1.62778C12.1209 1.61724 12.0045 1.62514 11.8907 1.65544C11.7601 1.6449 11.6308 1.65281 11.5079 1.68311C11.473 1.68311 11.4381 1.68311 11.4044 1.68574C11.1885 1.54215 10.9233 1.47891 10.6272 1.53161C10.538 1.53161 10.4487 1.54215 10.3634 1.55927C10.2108 1.58957 10.0633 1.63963 9.92625 1.70682C9.83442 1.68443 9.7426 1.67257 9.65078 1.67125C9.59388 1.65544 9.53698 1.6449 9.48007 1.637C9.26281 1.5237 8.99898 1.4855 8.70283 1.55795C8.56316 1.59221 8.44418 1.65149 8.33942 1.72658C8.12086 1.68179 7.89972 1.69365 7.70055 1.76479C7.67598 1.76611 7.65012 1.76874 7.62555 1.77269C7.60615 1.76611 7.58675 1.75689 7.56606 1.75162C7.26473 1.65808 6.95047 1.6673 6.68406 1.7806C6.61293 1.75425 6.53921 1.73317 6.46679 1.71868C6.18227 1.50658 5.81758 1.42885 5.43089 1.57508C5.01576 1.53292 4.60192 1.70682 4.34197 2.16002C4.25274 2.31547 4.20877 2.47356 4.19713 2.63165C4.1454 2.73046 4.10918 2.83454 4.08591 2.9452C3.84795 3.10197 3.66818 3.35492 3.60094 3.7093C3.58671 3.78308 3.58283 3.85422 3.58283 3.92404C3.56731 4.01099 3.56343 4.09794 3.5686 4.18489C3.36427 4.31663 3.20391 4.51029 3.12502 4.7606C3.05906 4.87654 3.00992 5.0096 2.98147 5.16373C2.96595 5.24805 2.96465 5.32709 2.96724 5.40614C2.94914 5.45884 2.93491 5.51153 2.92586 5.56687C2.74739 5.74867 2.65557 5.96868 2.62711 6.20318C2.5715 6.25851 2.51977 6.32175 2.47322 6.39421C2.34777 6.50487 2.23914 6.65242 2.16025 6.83818C2.08136 7.0213 2.05938 7.20178 2.07619 7.377C2.01929 7.48108 1.9779 7.59042 1.95592 7.70504C1.8253 7.85522 1.7296 8.02781 1.68045 8.21093C1.65071 8.24386 1.62355 8.27943 1.59639 8.31764C1.45155 8.5192 1.39594 8.7379 1.39723 8.95659C1.38559 8.96976 1.37266 8.9803 1.36231 8.99348C1.32481 9.03959 1.29377 9.08833 1.26661 9.13971C1.01443 9.46511 0.921312 9.88142 1.07392 10.274C1.09719 10.3715 1.13341 10.4677 1.18643 10.5586C1.19807 10.6508 1.22135 10.7443 1.25885 10.8379C1.27696 10.9683 1.31834 11.1027 1.38947 11.2384C1.46836 11.3912 1.57311 11.5071 1.69468 11.5954C1.72313 11.6757 1.75546 11.7508 1.78909 11.8233C1.83564 12.0749 1.97273 12.3147 2.22233 12.507C2.2456 12.5242 2.26888 12.5387 2.29216 12.5531C2.38786 12.6559 2.4952 12.7297 2.60772 12.7824C2.64005 12.8048 2.67238 12.8245 2.706 12.8443C2.71376 12.8957 2.72411 12.9484 2.73963 13.0011C2.72152 13.1289 2.72411 13.2659 2.75127 13.4134C2.77713 13.5504 2.82628 13.6677 2.89094 13.7731C2.77713 13.9522 2.71247 14.1749 2.71894 14.4384C2.72152 14.5556 2.74221 14.6623 2.77584 14.7625C2.7642 14.9034 2.78101 15.051 2.83274 15.2012C2.75903 15.408 2.7448 15.6306 2.80817 15.8506C2.72928 16.072 2.70859 16.3052 2.76032 16.5291C2.75515 16.5502 2.74739 16.57 2.74221 16.5924C2.68919 16.8295 2.71506 17.0482 2.79265 17.2458C2.69566 17.4908 2.6866 17.7794 2.80688 18.0863C2.81593 18.11 2.82757 18.1298 2.83792 18.1522C2.79007 18.3248 2.78101 18.5039 2.81593 18.6778C2.67497 18.9321 2.63358 19.2443 2.74092 19.5816C2.69695 19.7621 2.69824 19.961 2.75903 20.1718C2.74997 20.2693 2.75256 20.3654 2.76808 20.4577C2.76549 20.4722 2.76161 20.4867 2.75903 20.5025C2.73704 20.6645 2.75127 20.816 2.79136 20.9543C2.78619 20.9741 2.77972 20.9939 2.77455 21.0149C2.73704 21.1836 2.74092 21.343 2.77455 21.4905C2.71764 21.6341 2.68531 21.7988 2.6879 21.9819C2.69307 22.281 2.80688 22.5234 2.98147 22.7157C2.98405 22.7539 2.98923 22.7921 2.99311 22.829C2.99311 22.9884 3.00733 23.1426 3.0319 23.2822C3.03837 23.3152 3.04484 23.3468 3.0526 23.3797C3.07587 23.4956 3.11467 23.6063 3.16899 23.7077C3.17028 23.7104 3.17158 23.713 3.17287 23.7157C3.18063 23.7288 3.18709 23.7433 3.19485 23.7565C3.2828 23.9146 3.40436 24.0463 3.56602 24.1161C3.69017 24.186 3.83372 24.236 3.99926 24.2558C4.07039 24.265 4.13893 24.2637 4.20618 24.2584C4.23463 24.2716 4.26308 24.2835 4.29541 24.2927C4.4907 24.3506 4.70667 24.3124 4.89936 24.2426C4.99506 24.207 5.08689 24.1636 5.17483 24.1122C5.31062 24.1517 5.45158 24.1649 5.59514 24.1544C5.7555 24.1926 5.93267 24.2097 6.0995 24.1886C6.16934 24.1978 6.23788 24.2005 6.30384 24.1939C6.40601 24.2136 6.51076 24.2229 6.61293 24.2163C6.62069 24.2176 6.62715 24.2202 6.63362 24.2229C6.6556 24.2281 6.6763 24.2294 6.69828 24.2334C6.87158 24.4086 7.08884 24.5245 7.34232 24.4956C7.46648 24.4811 7.58545 24.4323 7.69409 24.3651C7.73159 24.3625 7.7691 24.3586 7.8066 24.3506C7.9036 24.4033 8.01223 24.4336 8.1325 24.431C8.29287 24.4271 8.44676 24.3651 8.58643 24.2769C8.63428 24.294 8.68343 24.3085 8.73257 24.319C9.00028 24.4521 9.30419 24.5022 9.56801 24.3362C9.60681 24.3111 9.64302 24.2821 9.67794 24.2505C9.68311 24.2505 9.68829 24.2505 9.69346 24.2505C9.85512 24.3678 10.0426 24.4323 10.2496 24.3915C10.3698 24.3678 10.4811 24.3085 10.5806 24.2321C10.6388 24.215 10.6931 24.1926 10.7449 24.1623C10.8108 24.1688 10.8781 24.1702 10.9466 24.1675C11.1962 24.3651 11.5105 24.489 11.8105 24.3546C11.8622 24.3322 11.9101 24.3019 11.9554 24.2663C12.2075 24.4363 12.5102 24.5285 12.7947 24.3928C12.871 24.3559 12.9395 24.3059 13.0003 24.2466C13.0883 24.2505 13.1749 24.2439 13.2564 24.2255C13.4103 24.3203 13.581 24.3836 13.7517 24.3809C13.8784 24.4495 14.0181 24.4837 14.172 24.4626C14.2845 24.4481 14.3906 24.4033 14.4901 24.3427C14.6427 24.3651 14.8031 24.348 14.9531 24.3098C14.9648 24.3072 14.9764 24.3032 14.988 24.2993C15.195 24.3322 15.4032 24.3019 15.5739 24.1596C15.6166 24.1241 15.6541 24.0832 15.6864 24.0384C15.7123 24.0345 15.7381 24.0305 15.764 24.0252C15.8894 24.0476 16.0149 24.0595 16.1377 24.0621C16.3098 24.3006 16.5503 24.4837 16.8516 24.4639C16.9835 24.4547 17.1103 24.4073 17.2267 24.3388C17.4375 24.4692 17.6793 24.5325 17.9211 24.4415C17.9936 24.4139 18.0608 24.3744 18.1216 24.3269C18.1475 24.319 18.1733 24.3098 18.1992 24.3006C18.2871 24.3085 18.3764 24.3085 18.4617 24.2953C18.6674 24.3691 18.8859 24.3796 19.0825 24.2729C19.1691 24.2835 19.2558 24.2861 19.3386 24.2769C19.4433 24.3625 19.5688 24.4205 19.7136 24.4336C19.8623 24.4468 20.0123 24.4073 20.1507 24.3441C20.2115 24.3441 20.271 24.3388 20.3292 24.3283C20.3757 24.3348 20.4249 24.3401 20.4753 24.3427C20.6745 24.3506 20.8504 24.3059 21.0056 24.2242C21.0495 24.2373 21.0948 24.2492 21.1388 24.2584C21.228 24.3296 21.3315 24.3809 21.453 24.4007C21.6599 24.435 21.8759 24.3678 22.0647 24.2716C22.1242 24.2413 22.1811 24.207 22.2354 24.1702C22.4644 24.132 22.6726 24.0252 22.7954 23.8118C22.8691 23.6827 22.8989 23.5299 22.9041 23.3771C22.9118 23.3692 22.9196 23.3613 22.9273 23.352C23.0489 23.2019 23.0993 23.0003 23.1149 22.804C23.2274 22.5945 23.3063 22.3455 23.283 22.1123C23.2985 21.9556 23.2701 21.7922 23.2222 21.6407C23.2067 21.5907 23.1873 21.5419 23.1679 21.4932C23.1627 21.455 23.1549 21.4168 23.1472 21.3799C23.2636 21.2573 23.3425 21.1072 23.3502 20.9254C23.3502 20.9227 23.3502 20.9188 23.3502 20.9161C23.3903 20.7396 23.3813 20.5578 23.2882 20.3878C23.2869 20.3852 23.2843 20.3826 23.283 20.3799C23.2791 20.3365 23.2726 20.2917 23.2649 20.2495C23.2338 20.0822 23.1795 19.9228 23.1071 19.7726C23.1123 19.6079 23.098 19.4433 23.0618 19.2852C23.0696 19.2575 23.0761 19.2312 23.0825 19.2048C23.0851 19.2022 23.0864 19.1995 23.089 19.1956C23.2067 19.0151 23.2377 18.7832 23.2287 18.5645C23.2196 18.3248 23.164 18.0929 23.0709 17.8795C23.1537 17.8057 23.2209 17.7148 23.261 17.6002C23.3321 17.3999 23.3088 17.1733 23.2507 16.9665C23.2313 16.898 23.2067 16.8308 23.1808 16.7663C23.1627 16.6503 23.133 16.537 23.0942 16.4277C23.1239 16.3407 23.1498 16.2538 23.1692 16.1695C23.1808 16.1181 23.1912 16.0654 23.1976 16.0127C23.3308 15.8151 23.402 15.5832 23.3257 15.3434C23.3166 15.3145 23.305 15.2881 23.2933 15.2604C23.411 15.0418 23.4602 14.7954 23.3606 14.5556C23.336 14.4977 23.3037 14.445 23.2662 14.3949C23.3735 14.2131 23.4239 14.0063 23.3606 13.7915C23.3567 13.7797 23.3528 13.7691 23.3476 13.7573C23.3606 13.7085 23.3683 13.6585 23.3709 13.6071C23.4304 13.4556 23.4472 13.2935 23.4007 13.1289C23.455 13.0972 23.5054 13.0564 23.552 13.0063C23.6955 12.8509 23.7615 12.6309 23.7886 12.4175C23.7899 12.4056 23.7899 12.3937 23.7912 12.3819C23.9826 12.2949 24.1301 12.121 24.2387 11.9353C24.3758 11.7008 24.4573 11.4412 24.4857 11.1778C24.725 10.9591 24.9293 10.6482 24.8879 10.3228C24.9358 10.191 24.9448 10.0474 24.9306 9.90381L24.9358 9.90513ZM18.9907 21.5867C18.9299 21.5788 18.8691 21.5762 18.8083 21.5775C18.8044 21.5775 18.7993 21.5762 18.7954 21.5748C18.5885 21.4471 18.3324 21.3878 18.0337 21.4326C17.9574 21.4444 17.8888 21.4655 17.8216 21.4905C17.6095 21.4023 17.378 21.3785 17.1504 21.4339C17.0068 21.397 16.8529 21.3917 16.6926 21.422C16.6861 21.3891 16.677 21.3561 16.6641 21.3258C16.7016 21.206 16.7158 21.0808 16.6938 20.9622C16.7003 20.8463 16.6835 20.7264 16.6525 20.6144C16.6188 20.4959 16.571 20.3839 16.5115 20.2798C16.5115 20.2574 16.5115 20.2337 16.5115 20.2113C16.5141 20.1692 16.5141 20.1283 16.5115 20.0862C16.5089 20.0466 16.505 20.0084 16.4999 19.9702C16.5231 19.8187 16.5244 19.6646 16.5037 19.5144C16.5089 19.4564 16.5115 19.3998 16.5102 19.3418C16.7223 19.1719 16.8853 18.9334 16.8426 18.6528C16.8374 18.6146 16.8271 18.5777 16.8141 18.5421C16.8426 18.4381 16.8477 18.3274 16.8141 18.2154C16.7947 18.1469 16.7624 18.0824 16.7223 18.0231C16.7404 17.9269 16.7443 17.8307 16.7262 17.7372C16.7301 17.7214 16.7352 17.7056 16.7378 17.6885C16.7469 17.6173 16.7417 17.5462 16.7288 17.4763C16.7598 17.4052 16.7779 17.3288 16.7766 17.2445C16.7753 17.0693 16.6926 16.902 16.5891 16.7597C16.5775 16.7439 16.5645 16.7294 16.5529 16.7136C16.5529 16.7122 16.5529 16.7096 16.5529 16.7083C16.5658 16.6793 16.5787 16.6516 16.5878 16.6187C16.6344 16.4409 16.5981 16.2472 16.5335 16.0733C16.4999 15.9824 16.4559 15.8954 16.4067 15.8138C16.4042 15.7874 16.399 15.7611 16.3912 15.7347C16.346 15.5687 16.2257 15.4304 16.0938 15.321C15.9761 15.2249 15.8442 15.1498 15.7071 15.0958C15.548 14.9324 15.3566 14.8086 15.1497 14.7401C15.001 14.636 14.829 14.5767 14.6492 14.5767C14.4319 14.5135 14.1875 14.5345 13.9405 14.6755C13.9224 14.686 13.9082 14.6979 13.8914 14.7084C13.7452 14.6887 13.6017 14.6966 13.4659 14.7295C13.3909 14.6887 13.3133 14.6557 13.2331 14.6347C13.1426 14.5991 13.0443 14.5793 12.9395 14.578C12.7507 14.5095 12.5322 14.5042 12.2981 14.5886C12.2476 14.607 12.2011 14.6294 12.1571 14.6544C12.0692 14.6544 11.9838 14.6637 11.901 14.6834C11.7277 14.5648 11.5079 14.5069 11.2492 14.5385C11.0022 14.5701 10.8121 14.6913 10.6699 14.8613C10.3556 14.9364 10.0931 15.1656 9.99996 15.5542C9.94306 15.6227 9.89521 15.6965 9.859 15.7769C9.7245 15.9126 9.63138 16.0983 9.60423 16.3341C9.53698 16.483 9.50723 16.6582 9.52792 16.8572C9.54603 17.0376 9.61199 17.1878 9.70639 17.3143C9.71286 17.3446 9.72062 17.3736 9.72967 17.4026C9.66759 17.5738 9.64302 17.7517 9.65983 17.9216C9.50076 18.1706 9.45809 18.4881 9.60164 18.8214C9.5525 18.9914 9.54603 19.1679 9.59 19.3365C9.57577 19.3879 9.56413 19.4406 9.55638 19.4973C9.5318 19.6883 9.56543 19.8609 9.63914 20.0111C9.62362 20.0493 9.61069 20.0901 9.59905 20.1323C9.54215 20.3457 9.56543 20.5446 9.64044 20.7238C9.52146 20.9688 9.50852 21.2573 9.65337 21.5445C9.65337 21.5459 9.65337 21.5472 9.65337 21.5485C9.5124 21.538 9.37403 21.5511 9.24211 21.5854C9.00028 21.4615 8.73516 21.4128 8.48168 21.4589C8.35236 21.4286 8.21268 21.4247 8.06913 21.451C7.97472 21.4471 7.87644 21.4536 7.77298 21.4747C7.76263 21.4774 7.75358 21.48 7.74323 21.4826C7.44061 21.3403 7.08109 21.3351 6.71509 21.5406C6.64784 21.5788 6.58965 21.6236 6.53404 21.6697C6.45386 21.6684 6.37367 21.6736 6.29608 21.6855C6.05424 21.5986 5.80076 21.5827 5.57056 21.6447C5.54728 21.6394 5.5253 21.6328 5.50202 21.6275C5.47616 21.6104 5.449 21.5959 5.42184 21.5814C5.45546 21.476 5.4684 21.3627 5.4684 21.2508C5.58738 21.0031 5.63135 20.7225 5.49297 20.4761C5.58867 20.3549 5.64945 20.2126 5.65333 20.0453C5.65462 19.9439 5.63393 19.8424 5.59902 19.7463C5.65075 19.6501 5.68308 19.5434 5.68566 19.4248C5.69084 19.2088 5.59514 18.998 5.47357 18.8188C5.47228 18.8162 5.47098 18.8148 5.46969 18.8135C5.51237 18.662 5.53306 18.5026 5.51495 18.3511C5.54599 18.276 5.56798 18.1983 5.57962 18.1192C5.621 18.0323 5.64557 17.9374 5.64687 17.8334C5.64945 17.6437 5.57315 17.4579 5.46969 17.2959C5.45676 17.1536 5.42701 17.0152 5.38433 16.8822C5.56798 16.6674 5.68566 16.4 5.60419 16.1168C5.6016 16.1089 5.59901 16.1023 5.59643 16.0944C5.66756 15.8954 5.68437 15.6833 5.60289 15.487C5.63264 15.3632 5.63264 15.2341 5.58867 15.1037C5.58479 15.0931 5.58091 15.0839 5.57574 15.0734C5.6016 14.9891 5.61324 14.8995 5.6016 14.8046C5.58738 14.6768 5.53694 14.5569 5.4671 14.4463C5.42831 14.3343 5.37916 14.2276 5.32096 14.1261C5.449 14.0234 5.5447 13.8877 5.58091 13.7138C5.60289 13.6031 5.59772 13.4898 5.57444 13.3779C5.82534 13.4147 6.10338 13.4002 6.32194 13.283C6.54826 13.2935 6.76941 13.2356 6.93365 13.0577C7.07462 12.9049 7.14057 12.6888 7.16903 12.4794C7.18196 12.4741 7.19489 12.4701 7.20782 12.4649C7.25697 12.4425 7.30482 12.4148 7.34879 12.3832C7.4225 12.5202 7.52855 12.648 7.6734 12.76C7.70961 12.7876 7.74711 12.8114 7.78462 12.8338C7.88549 12.9326 7.99542 13.005 8.11181 13.0524C8.16225 13.0841 8.21398 13.113 8.26829 13.1381C8.35235 13.3568 8.4972 13.5438 8.72869 13.615C8.88259 13.6624 9.05071 13.6492 9.21108 13.6084C9.25246 13.6295 9.29514 13.6492 9.34169 13.6677C9.39213 13.6874 9.44257 13.7019 9.493 13.7138C9.50206 13.7191 9.51111 13.7243 9.52016 13.7296C9.90685 13.918 10.2909 13.8363 10.6246 13.6295C10.6518 13.6203 10.6789 13.611 10.7061 13.6005C10.7979 13.6282 10.8884 13.6519 10.9764 13.6677C11.2273 13.7138 11.5131 13.7125 11.7433 13.6058C11.9903 13.6295 12.236 13.5781 12.4132 13.3858C12.5257 13.2632 12.5891 13.1025 12.6253 12.9365C12.6744 12.9273 12.7236 12.9128 12.7727 12.8904C12.9628 12.8061 13.1102 12.6361 13.2202 12.453C13.2253 12.457 13.2305 12.4622 13.2357 12.4662C13.2913 12.5084 13.3469 12.5426 13.4051 12.5716C13.515 12.6678 13.6353 12.731 13.7633 12.7705C13.7827 12.7811 13.8021 12.7929 13.8215 12.8035C13.903 13.0419 14.0517 13.2487 14.2987 13.3252C14.4604 13.3752 14.6389 13.3581 14.8057 13.312C14.8406 13.3291 14.8768 13.3462 14.9156 13.3607C14.9738 13.3831 15.032 13.3989 15.0889 13.4095C15.0915 13.4095 15.0941 13.4121 15.0954 13.4134C15.3295 13.5267 15.5623 13.5412 15.7847 13.4898C15.9476 13.4938 16.1132 13.4595 16.2722 13.3989C16.3692 13.4292 16.4636 13.4529 16.5555 13.4701C16.796 13.5149 17.0689 13.5149 17.2952 13.4213C17.5526 13.4529 17.8125 13.4055 17.9974 13.2053C18.0595 13.1381 18.1048 13.0564 18.141 12.9708C18.2535 12.9813 18.3686 12.9681 18.4824 12.9181C18.6531 12.843 18.7876 12.6994 18.8937 12.54C18.9014 12.5452 18.9092 12.5505 18.917 12.5545C18.917 12.5545 18.917 12.5558 18.9182 12.5571C19.0191 12.6678 19.1329 12.7468 19.2545 12.8008C19.3192 12.8443 19.3877 12.8838 19.4601 12.9168C19.5455 13.1262 19.6877 13.3041 19.9115 13.3739C20.0602 13.42 20.2218 13.4095 20.377 13.3713C20.4055 13.3871 20.4365 13.4002 20.4676 13.4147C20.4417 13.5768 20.4533 13.7441 20.5051 13.9088C20.5051 13.9404 20.5051 13.9733 20.509 14.0063C20.509 14.0128 20.5064 14.0181 20.5064 14.0247C20.5064 14.03 20.5038 14.0366 20.5038 14.0418C20.474 14.2421 20.5012 14.4515 20.5982 14.6557C20.4559 14.9416 20.4223 15.2657 20.54 15.5714C20.5089 15.7281 20.5141 15.8915 20.5594 16.0535C20.5374 16.1168 20.5193 16.1826 20.5064 16.2538C20.4883 16.3565 20.4857 16.4553 20.4947 16.5502C20.4714 16.6556 20.4598 16.7689 20.465 16.8914C20.4727 17.0732 20.5232 17.2326 20.6021 17.3723C20.593 17.4118 20.5865 17.45 20.5827 17.4895C20.5387 17.5844 20.5025 17.6885 20.4805 17.8057C20.4197 18.1258 20.4999 18.4078 20.6577 18.6462C20.5193 18.9071 20.4999 19.1758 20.5594 19.4354C20.4973 19.5724 20.4572 19.7278 20.4482 19.9057C20.4404 20.0835 20.4727 20.2442 20.5335 20.3878C20.4857 20.5538 20.4779 20.737 20.5219 20.9319C20.5219 20.9333 20.5219 20.9346 20.5219 20.9372C20.4947 21.0637 20.4934 21.1836 20.5077 21.2982C20.5077 21.314 20.5102 21.3285 20.5128 21.3443C20.5025 21.4009 20.496 21.4589 20.4934 21.5208C20.2568 21.4049 19.9722 21.3772 19.6593 21.4787C19.6308 21.4879 19.6063 21.5011 19.5791 21.5116C19.3748 21.4892 19.1717 21.5169 18.9894 21.5959L18.9907 21.5867ZM11.7161 19.3458C11.7239 19.3365 11.7316 19.3273 11.7394 19.3181C11.8726 19.1482 11.9838 18.9321 11.9967 18.7174C12.0265 18.6409 12.042 18.5593 12.0368 18.471C12.0278 18.2905 11.9347 18.1206 11.8222 17.9796C11.8222 17.9796 11.8222 17.9783 11.8209 17.977C11.848 17.8307 11.8571 17.674 11.8286 17.5277C11.8765 17.4698 11.9153 17.4026 11.9386 17.3222C11.9773 17.1878 11.9683 17.0429 11.9334 16.9033C11.9528 16.8901 11.9709 16.8769 11.989 16.8611C12.0989 16.9836 12.2386 17.0693 12.4106 17.0785C12.5283 17.0851 12.646 17.0535 12.7559 17.0021C12.8361 16.9902 12.915 16.9639 12.99 16.9296C13.1814 17.0297 13.396 17.0693 13.5952 16.9652C13.6832 16.9191 13.7556 16.8479 13.8189 16.7676C13.8293 16.7702 13.8396 16.7728 13.8513 16.7755C13.978 16.9336 14.141 17.0574 14.3362 17.0772C14.3337 17.1404 14.3362 17.2063 14.3479 17.2721C14.3388 17.3802 14.3479 17.4961 14.3815 17.6173C14.4009 17.6924 14.4307 17.7596 14.4656 17.8215C14.4695 17.8518 14.4746 17.8834 14.4811 17.9137C14.4565 17.9677 14.4358 18.0244 14.4203 18.081C14.3375 18.2352 14.2936 18.4064 14.3013 18.5817C14.2586 18.7911 14.2884 19.0204 14.4138 19.2496C14.41 19.3589 14.4242 19.467 14.4552 19.5737C14.4087 19.7331 14.41 19.8938 14.4462 20.0493C14.3725 20.1915 14.3324 20.3615 14.3427 20.5578C14.3479 20.6698 14.3737 20.7712 14.4138 20.8634C14.4268 20.9135 14.4423 20.9636 14.463 21.0123C14.375 21.1309 14.3156 21.2705 14.2923 21.4286C14.097 21.3878 13.8862 21.4049 13.6728 21.4918C13.5875 21.4853 13.5034 21.4879 13.4206 21.4998C13.2486 21.4879 13.074 21.5208 12.9098 21.6025C12.708 21.4391 12.4494 21.3614 12.1713 21.4233C12.1532 21.4233 12.1364 21.4273 12.1183 21.4286C12.033 21.4286 11.9463 21.4378 11.861 21.4589C11.9722 21.3127 12.0368 21.1401 12.0006 20.9491C11.9851 20.8634 11.9489 20.7831 11.9023 20.708C11.9398 20.5644 11.9437 20.4155 11.8894 20.2798C11.9554 20.0967 11.967 19.8991 11.8635 19.7239C11.8416 19.6857 11.8144 19.6514 11.7834 19.6185C11.7743 19.5934 11.7653 19.5684 11.7549 19.5434C11.7459 19.4762 11.7329 19.409 11.7161 19.3431V19.3458ZM11.1044 4.36406C11.2699 4.42334 11.4497 4.45891 11.6217 4.44838C11.6243 4.50634 11.632 4.56036 11.6424 4.61437C11.6398 4.7909 11.6812 4.95295 11.7536 5.1005C11.7329 5.2217 11.7265 5.34422 11.7355 5.46279C11.6618 5.65777 11.6424 5.86987 11.6928 6.07934C11.6088 6.29145 11.5829 6.522 11.632 6.74596C11.632 6.8553 11.6476 6.96333 11.6786 7.06741C11.6191 7.24394 11.6049 7.43365 11.645 7.62336C11.6411 7.65366 11.6385 7.68396 11.6359 7.71426C11.557 7.95798 11.5583 8.22015 11.6631 8.47573C11.6631 8.48759 11.6631 8.49813 11.6631 8.50867C11.5415 8.47441 11.4083 8.47573 11.2699 8.52447C11.1535 8.48363 11.0307 8.47441 10.9078 8.50208C10.8393 8.49154 10.7669 8.49154 10.688 8.50208C10.6233 8.5113 10.5651 8.53106 10.5121 8.55609C10.441 8.5495 10.3711 8.55477 10.3013 8.5719C10.2224 8.56531 10.1448 8.57058 10.0698 8.58903C10.0491 8.58903 10.0284 8.58903 10.0064 8.59035C9.87452 8.50208 9.71027 8.46387 9.52922 8.49944C9.47878 8.49944 9.42834 8.50471 9.3792 8.51393C9.28738 8.53238 9.20073 8.564 9.11926 8.60352C9.08304 8.5943 9.04813 8.58903 9.01192 8.58508C9.04942 8.47309 9.06494 8.35584 9.04683 8.23596C9.17616 8.0423 9.24341 7.8157 9.17357 7.5812C9.1684 7.56276 9.16064 7.54431 9.15417 7.52719C9.36627 7.30059 9.53827 6.99758 9.50335 6.69194C9.53698 6.63661 9.56543 6.57996 9.58871 6.52068C9.60552 6.4996 9.62104 6.47852 9.63656 6.45481C9.70122 6.35205 9.73743 6.2348 9.75554 6.11228C9.82537 6.04245 9.88228 5.95814 9.91849 5.85538C9.98962 5.65513 9.96634 5.42854 9.90814 5.2217C9.90685 5.21511 9.90426 5.20853 9.90167 5.20194C9.98574 5.15056 10.0607 5.08074 10.1189 4.98984C10.2172 4.83965 10.2534 4.65389 10.2586 4.47077C10.3323 4.50766 10.4125 4.53269 10.5005 4.54059C10.71 4.55772 10.9195 4.47604 11.1018 4.36406H11.1044ZM14.9945 4.40358C15.1924 4.48526 15.4226 4.46945 15.6321 4.41807C15.6618 4.41017 15.6903 4.40095 15.7187 4.39304C15.7679 4.47472 15.8261 4.55113 15.892 4.62359C15.8675 4.81989 15.8817 5.01487 15.9334 5.19535C15.9515 5.39824 16.0201 5.57345 16.1248 5.71969C16.1546 5.79214 16.1921 5.85933 16.236 5.9252C16.2192 6.16497 16.2619 6.40079 16.3654 6.60236C16.3809 6.73673 16.4249 6.87243 16.4999 7.00417C16.4662 7.30454 16.5568 7.61545 16.8025 7.88553C16.7857 8.07523 16.8193 8.27021 16.915 8.46124C16.9176 8.47836 16.9215 8.49549 16.924 8.51262C16.9046 8.51262 16.8853 8.51525 16.8659 8.51789C16.7469 8.49022 16.6163 8.49813 16.4792 8.55082C16.2981 8.48495 16.1015 8.4889 15.9295 8.58244C15.9037 8.58508 15.8778 8.58903 15.8519 8.59561C15.8481 8.59561 15.8429 8.5943 15.839 8.59298C15.6657 8.50735 15.4614 8.50076 15.2609 8.61142C15.2545 8.61142 15.248 8.61142 15.2415 8.61142C15.2234 8.60879 15.204 8.60484 15.1859 8.60352C15.1484 8.60088 15.1122 8.59957 15.0747 8.60088C14.9027 8.51393 14.7074 8.49813 14.5264 8.57981C14.4707 8.55082 14.4125 8.52974 14.3518 8.51657C14.3324 8.48759 14.3104 8.45992 14.2871 8.43357C14.4927 8.1938 14.6272 7.88948 14.5225 7.57725C14.516 7.55617 14.507 7.53641 14.4979 7.51665C14.5044 7.46659 14.507 7.41521 14.5031 7.36383C14.5289 7.25053 14.5302 7.13328 14.494 7.01208C14.4643 6.91195 14.4113 6.81973 14.3453 6.73673C14.5225 6.48642 14.6246 6.1821 14.5018 5.887C14.4927 5.86592 14.4824 5.84484 14.4707 5.82376C14.5108 5.69334 14.5173 5.55501 14.472 5.41404C14.4513 5.34686 14.419 5.28494 14.3802 5.22697C14.3931 5.20194 14.4074 5.17823 14.4177 5.15056C14.4888 4.95031 14.4656 4.72372 14.4074 4.51688C14.3906 4.45628 14.3699 4.397 14.3466 4.33903C14.3621 4.32717 14.3776 4.31532 14.3931 4.30214C14.4565 4.24944 14.5147 4.19148 14.569 4.13088C14.6104 4.14142 14.6518 4.148 14.6945 4.15327C14.7695 4.25867 14.8665 4.34562 14.9945 4.39831V4.40358ZM4.31999 10.5573C4.24627 10.5006 4.1648 10.4532 4.08203 10.4123C4.08591 10.382 4.08591 10.3517 4.08591 10.3201C4.13376 10.3241 4.18419 10.3201 4.23334 10.3043C4.26179 10.2951 4.28895 10.2819 4.31481 10.2674C4.40146 10.303 4.49587 10.3148 4.59286 10.2859C4.65235 10.2674 4.70538 10.2358 4.75452 10.1963C4.76745 10.191 4.78038 10.1844 4.79332 10.1778C4.87997 10.2595 4.98472 10.3135 5.11016 10.3083C5.18517 10.3056 5.2563 10.2793 5.32355 10.2437C5.39468 10.2384 5.46064 10.2226 5.52271 10.1963C5.53047 10.1989 5.53823 10.2029 5.54599 10.2055C5.5059 10.3109 5.48262 10.4202 5.47486 10.5322C5.47486 10.5322 5.47486 10.5322 5.47486 10.5335C5.32872 10.5586 5.19035 10.6126 5.06619 10.6956C5.02093 10.6574 4.97049 10.6231 4.91359 10.5981C4.73253 10.5164 4.52044 10.5204 4.32257 10.5586L4.31999 10.5573ZM4.81789 7.57461C4.81789 7.57461 4.82823 7.56539 4.83341 7.56144C5.04162 7.35856 5.22526 7.0819 5.24337 6.79338C5.2563 6.77757 5.26794 6.76045 5.27958 6.74464C5.38563 6.69062 5.47874 6.61158 5.54858 6.50223C5.60419 6.41397 5.63911 6.31384 5.6598 6.20845C5.74903 6.13204 5.82275 6.0385 5.86672 5.91598C5.92233 5.75789 5.91974 5.58399 5.88741 5.41536C5.89646 5.39824 5.90422 5.37847 5.91198 5.36003C6.02838 5.30602 6.13184 5.22434 6.20943 5.10577C6.32712 4.92528 6.35816 4.69342 6.3491 4.47472C6.3491 4.44179 6.34393 4.41017 6.34134 4.37855C6.34652 4.3746 6.35298 4.37196 6.35816 4.3667C6.39566 4.33771 6.42799 4.30346 6.45903 4.26921C6.4642 4.26921 6.46938 4.26921 6.47455 4.26921C6.75519 4.3667 7.08109 4.39436 7.32422 4.22705C7.3656 4.24022 7.40569 4.25208 7.44449 4.26394C7.28413 4.42071 7.17161 4.62754 7.13282 4.88181C7.10566 4.95558 7.08238 5.03331 7.06686 5.11762C7.03841 5.2744 7.04617 5.42195 7.0785 5.55896C7.07203 5.59717 7.06815 5.63669 7.06557 5.67621C6.96857 5.804 6.9065 5.94628 6.87416 6.09647C6.83795 6.19001 6.81338 6.28618 6.80433 6.38498C6.76941 6.43373 6.73579 6.48511 6.70604 6.54307C6.70475 6.54571 6.70345 6.54834 6.70216 6.55098C6.62069 6.64452 6.54956 6.7565 6.49265 6.88956C6.40342 7.09771 6.38531 7.30191 6.41506 7.4982C6.35298 7.62599 6.31548 7.76169 6.30513 7.90265C6.30255 7.90792 6.30125 7.91451 6.29867 7.91978C6.17969 8.09236 6.10338 8.28734 6.08269 8.4889C5.99475 8.48495 5.90422 8.49813 5.8124 8.53633C5.79559 8.53633 5.77878 8.54028 5.76196 8.54292C5.68566 8.52711 5.60548 8.52579 5.52789 8.5337C5.48521 8.53897 5.44382 8.54819 5.40244 8.55741C5.26277 8.49549 5.10111 8.48363 4.9304 8.54555C4.90066 8.54424 4.87091 8.54292 4.84117 8.54555C4.76357 8.54819 4.68856 8.56268 4.61485 8.58112C4.59933 8.57454 4.58381 8.56795 4.56829 8.56268C4.6239 8.4507 4.66141 8.32686 4.68339 8.20302C4.68727 8.18326 4.68856 8.1635 4.69244 8.14242C4.79849 7.97116 4.85539 7.7775 4.81401 7.57593L4.81789 7.57461ZM22.0402 10.4953C21.8695 10.5335 21.7104 10.6126 21.5733 10.7325C21.4569 10.7456 21.3431 10.7759 21.2383 10.8207C21.2073 10.7957 21.175 10.772 21.1414 10.7496C21.0418 10.606 20.8918 10.4993 20.7327 10.4229C20.7327 10.4229 20.7327 10.4216 20.7327 10.4202C20.7404 10.3596 20.7379 10.2964 20.7275 10.2319C20.8672 10.3056 21.025 10.3372 21.1698 10.2793C21.2526 10.2727 21.3328 10.2384 21.4052 10.1923C21.4349 10.195 21.4634 10.195 21.4931 10.1923C21.594 10.2701 21.713 10.3162 21.8449 10.2898C21.8552 10.2872 21.8643 10.2832 21.8746 10.2806C21.8992 10.2885 21.9238 10.2951 21.9509 10.2977C21.9923 10.3017 22.0337 10.2977 22.0751 10.2898C22.0647 10.3399 22.057 10.3899 22.0531 10.4413C22.0492 10.4598 22.044 10.4782 22.0415 10.4967L22.0402 10.4953ZM16.0395 10.8445C15.9244 10.8313 15.8106 10.83 15.698 10.8392C15.6424 10.7825 15.5804 10.7338 15.5131 10.6916C15.4058 10.5388 15.2389 10.4281 15.0682 10.3504C15.0631 10.3478 15.0579 10.3465 15.0514 10.3438C15.0514 10.3267 15.0514 10.3096 15.0501 10.2911C15.0799 10.2859 15.1096 10.2766 15.1407 10.2635C15.1988 10.2371 15.2493 10.1976 15.2945 10.1502C15.4045 10.2503 15.539 10.3148 15.6903 10.2845C15.7627 10.2701 15.83 10.2332 15.8894 10.1871C15.9903 10.2108 16.0977 10.2187 16.1985 10.2016C16.3292 10.2806 16.4805 10.3307 16.624 10.3056C16.6331 10.3056 16.6421 10.3083 16.6512 10.3083C16.7223 10.3069 16.7921 10.2845 16.8581 10.2516C16.8865 10.245 16.915 10.2358 16.9434 10.2253C16.9745 10.2516 17.0068 10.2753 17.0417 10.2938C16.9357 10.4071 16.862 10.5309 16.8141 10.6613C16.5671 10.6455 16.3266 10.7022 16.1235 10.8392C16.0951 10.8392 16.0679 10.8405 16.0395 10.8431V10.8445ZM10.1112 11.1145C10.062 11.0671 10.009 11.0236 9.95082 10.9881C9.84606 10.8392 9.68699 10.7312 9.52146 10.6534C9.52663 10.5928 9.52404 10.5309 9.51111 10.4664C9.50076 10.4123 9.48266 10.361 9.46067 10.3109C9.46326 10.3109 9.46585 10.3109 9.46843 10.3122C9.59388 10.3228 9.72191 10.2727 9.83054 10.2055C9.98962 10.2622 10.1707 10.2819 10.3194 10.2121C10.3556 10.2358 10.3957 10.2569 10.441 10.2687C10.5276 10.2911 10.6181 10.2819 10.7061 10.2595C10.7772 10.2674 10.847 10.2595 10.9143 10.2319C11.0229 10.3069 11.1458 10.3557 11.2725 10.3412C11.1497 10.4953 11.0785 10.6666 11.0501 10.8445C10.8587 10.8603 10.675 10.9235 10.516 11.0368C10.375 11.0407 10.2379 11.0671 10.1112 11.1145ZM19.2506 4.41149C19.2752 4.42466 19.2998 4.43652 19.3256 4.44706C19.3735 4.58407 19.4472 4.71976 19.5558 4.85019C19.68 4.99774 19.8261 5.09655 19.9826 5.15846C20.0292 5.22961 20.0783 5.29811 20.1313 5.36398C20.1404 5.37847 20.1494 5.39297 20.1598 5.40746C20.1882 5.56686 20.2283 5.71969 20.2788 5.85802C20.2826 5.88832 20.2852 5.91993 20.2904 5.94892C20.3292 6.19396 20.421 6.45481 20.5865 6.63529C20.6176 6.86848 20.7133 7.08585 20.8762 7.25448C20.8943 7.34143 20.9215 7.42575 20.9603 7.50479C20.9629 7.77881 21.0676 8.05811 21.3056 8.30051C21.3302 8.37165 21.3599 8.44411 21.3987 8.51657C21.4142 8.54424 21.431 8.56663 21.4479 8.59166C21.3121 8.52579 21.153 8.51262 20.9849 8.56927C20.8142 8.49813 20.6279 8.49154 20.4585 8.56531C20.3822 8.56927 20.3085 8.58376 20.24 8.61011C20.2309 8.61011 20.2218 8.61011 20.2128 8.61274C20.1197 8.54951 20.0149 8.50867 19.9076 8.49286C19.9335 8.37165 19.9309 8.24518 19.8882 8.11607C19.874 8.07392 19.8559 8.03439 19.8339 7.99619C19.8158 7.93822 19.7912 7.88157 19.7589 7.82888C19.7498 7.78672 19.7369 7.74324 19.7188 7.70109C19.7058 7.6721 19.6916 7.64575 19.6761 7.61809C19.6735 7.60491 19.6709 7.59306 19.667 7.57988C19.6153 7.40467 19.4937 7.2558 19.3541 7.13591C19.4459 6.93567 19.4769 6.71434 19.3864 6.4996C19.3424 6.39684 19.2752 6.30594 19.195 6.22689C19.1924 6.17024 19.1834 6.1136 19.1653 6.05695C19.1084 5.87778 18.9764 5.72891 18.829 5.61166C18.9079 5.22697 18.8782 4.76719 18.538 4.53401C18.701 4.57748 18.8704 4.57616 19.0346 4.49712C19.0864 4.47209 19.1342 4.44047 19.1795 4.4049C19.2028 4.40754 19.226 4.40885 19.2493 4.40885L19.2506 4.41149Z" fill="currentColor"/>
</g>
<defs>
<clipPath id="clip0_239_18203">
<rect width="26" height="26" fill="currentColor"/>
</clipPath>
</defs>
</svg>
