<svg viewBox="0 0 26 26" fill="currentColor" xmlns="http://www.w3.org/2000/svg">
<path d="M23.1223 17.982C23.1924 17.8618 23.231 17.7252 23.2177 17.5736C23.2008 17.3744 23.0932 17.1902 22.9651 17.0374C22.9579 17.0286 22.9506 17.0211 22.9434 17.0136C22.9422 16.8194 22.9071 16.6289 22.8455 16.451C22.831 16.2518 22.7802 16.0601 22.6908 15.8872C22.6231 15.7557 22.5361 15.6392 22.4369 15.5427C22.3306 15.227 22.1203 14.9689 21.8387 14.8411C21.8048 14.8073 21.771 14.7759 21.7347 14.7446C21.7299 14.7384 21.725 14.7321 21.7202 14.7258C21.6924 14.6619 21.661 14.5993 21.6271 14.5392C21.6296 14.5291 21.632 14.5191 21.6344 14.5078C21.6646 14.3274 21.6151 14.137 21.5401 13.9691C21.5401 13.9002 21.5353 13.8313 21.5268 13.7649C21.5075 13.617 21.4688 13.4742 21.4156 13.3402C21.5909 13.1059 21.6973 12.8165 21.5897 12.5308C21.5462 12.4143 21.47 12.3128 21.3794 12.2251C21.3794 12.2213 21.3818 12.2188 21.3818 12.2163C21.4096 12.0873 21.3987 11.9532 21.3661 11.8229C21.4144 11.7214 21.4398 11.6074 21.4301 11.4847C21.4156 11.2854 21.3105 11.1 21.1848 10.9459C21.1667 10.9246 21.1485 10.9046 21.1292 10.8833C21.1715 10.763 21.2041 10.6327 21.2138 10.5024C21.2621 10.3207 21.2573 10.1328 21.1606 9.95991C21.1401 9.92357 21.1159 9.88975 21.0893 9.85843C21.0881 9.84966 21.0869 9.84214 21.0857 9.83337C21.07 9.75569 21.0385 9.68177 20.9986 9.61286C21.0518 9.40864 21.0446 9.19691 20.9273 9.00898C20.8282 8.84986 20.6639 8.74086 20.4934 8.66569C20.4971 8.54291 20.4741 8.41762 20.4402 8.2986C20.3834 8.1019 20.2916 7.92023 20.1743 7.76112C20.1635 7.68093 20.1478 7.602 20.1272 7.52433C20.0813 7.30507 19.993 7.09835 19.8734 6.91919C19.8504 6.8603 19.8238 6.80392 19.796 6.74754C19.7997 6.7275 19.8033 6.70745 19.8057 6.68866C19.8577 6.3128 19.7985 5.85801 19.4516 5.66256C19.3996 5.63374 19.3428 5.61244 19.286 5.59741C19.2473 5.55105 19.2062 5.5072 19.1639 5.4646C19.2292 5.17394 19.2098 4.86197 18.9947 4.64773C18.9524 4.60639 18.9041 4.57256 18.8533 4.54249C18.8424 4.51117 18.8303 4.4811 18.817 4.45228C18.7856 4.27187 18.7058 4.10649 18.5535 3.99123C18.4375 3.90353 18.2949 3.85968 18.1486 3.84213C17.9939 3.68302 17.7885 3.57778 17.5407 3.56024C17.5056 3.54145 17.4706 3.52391 17.4343 3.50762C17.415 3.49133 17.3957 3.47755 17.3763 3.46251C17.3231 3.37481 17.2627 3.29338 17.195 3.22071C17.1684 2.90248 17.05 2.5855 16.7563 2.45395C16.5738 2.37126 16.361 2.38129 16.1652 2.42514C16.1604 2.42514 16.1568 2.42764 16.1519 2.4289C16.0976 2.22092 15.9864 2.03549 15.7881 1.93902C15.6141 1.85383 15.405 1.85633 15.214 1.89267C15.1802 1.89893 15.1476 1.9077 15.1149 1.91647C15.069 1.86761 15.0182 1.82376 14.9554 1.79118C14.7862 1.70348 14.5819 1.69972 14.3934 1.7323C14.2797 1.75109 14.1685 1.78367 14.0634 1.82626C14.0066 1.79118 13.9486 1.75986 13.8881 1.7348C13.6452 1.63207 13.3865 1.60701 13.1509 1.66214C13.0675 1.61829 12.9804 1.58195 12.8898 1.55815C12.752 1.52182 12.613 1.50929 12.4788 1.51806C12.2117 1.4692 11.941 1.51806 11.7198 1.68218C11.5651 1.64209 11.4068 1.63833 11.2545 1.67341C11.0599 1.63708 10.8472 1.65963 10.6248 1.76112C10.5112 1.81374 10.4169 1.88264 10.3371 1.96283C9.84399 1.82125 9.31339 1.98914 9.05111 2.56295C9.04869 2.56796 9.04869 2.57172 9.04627 2.57673C8.98342 2.60931 8.92299 2.64815 8.8686 2.69325C8.65346 2.75464 8.45282 2.89622 8.29449 3.13301C8.27757 3.15807 8.26427 3.18438 8.25098 3.21069C8.22318 3.23449 8.19901 3.25955 8.17363 3.28586C8.00441 3.38233 7.87751 3.52641 7.78323 3.6968C7.71917 3.73439 7.66116 3.77949 7.60798 3.82961C7.45689 3.93234 7.32999 4.06264 7.23934 4.21299C7.03266 4.34454 6.87432 4.54249 6.8018 4.79432C6.66885 4.92336 6.56974 5.09375 6.51898 5.30424C6.35944 5.43579 6.23978 5.6137 6.18056 5.82919C6.03189 6.04092 5.9775 6.27646 5.9908 6.51576C5.96179 6.54583 5.93278 6.57715 5.90498 6.61098C5.72006 6.83775 5.66084 7.09835 5.68017 7.3602C5.66688 7.38024 5.656 7.40154 5.64391 7.42159C5.41064 7.67216 5.28857 8.00417 5.34538 8.35748C5.32725 8.43642 5.31758 8.5166 5.31758 8.59678C5.29099 8.69576 5.27407 8.79724 5.26923 8.89747C5.08431 9.1042 4.98036 9.37231 5.00333 9.66799C4.83774 9.93234 4.77247 10.2456 4.85104 10.5488C4.85345 10.5826 4.85708 10.6177 4.86191 10.6515C4.71083 10.857 4.63348 11.1201 4.67095 11.4258C4.56459 11.6425 4.53195 11.9019 4.60205 12.1888C4.59843 12.2865 4.61052 12.388 4.6359 12.492C4.61656 12.5371 4.59843 12.5847 4.58392 12.6348C4.56338 12.7037 4.5525 12.7714 4.54646 12.8378C4.44735 13.0294 4.40263 13.2625 4.44009 13.5281C4.44493 13.5619 4.45339 13.5932 4.46064 13.6258C4.36395 13.7549 4.29627 13.9052 4.26847 14.0718C4.24067 14.1407 4.22254 14.2122 4.20803 14.2861C3.95422 14.3738 3.73303 14.5692 3.6025 14.89C3.57953 14.9451 3.56382 15.0002 3.55173 15.0553C3.54086 15.0641 3.53119 15.0741 3.52031 15.0829C3.30154 15.2445 3.142 15.47 3.08157 15.7244C3.00784 15.8409 2.95224 15.98 2.92444 16.1428C2.91357 16.203 2.91115 16.2619 2.91115 16.3195C2.85434 16.4222 2.81446 16.5337 2.7927 16.6477C2.63074 16.877 2.5558 17.1764 2.62591 17.526C2.62953 17.5473 2.63678 17.5661 2.64283 17.5861C2.60778 17.7189 2.59811 17.8655 2.61865 18.0234C2.60294 18.1512 2.60898 18.2877 2.64041 18.4343C2.66217 18.5333 2.69601 18.6223 2.7371 18.7024C2.72502 19.032 2.85072 19.3527 3.13958 19.5782C3.2532 19.9829 3.56382 20.3036 4.06179 20.35C4.11013 20.355 4.15727 20.355 4.2032 20.3525C4.25759 20.3901 4.3156 20.4239 4.37483 20.454C4.42438 20.4803 4.47515 20.5041 4.53074 20.5241C4.80027 20.6206 5.0553 20.5905 5.28494 20.4828C5.38526 20.474 5.48195 20.4489 5.57019 20.4051C5.62095 20.4251 5.67292 20.4402 5.7261 20.4502C5.80466 20.5304 5.90015 20.5893 6.01618 20.6193C6.15397 20.6544 6.30021 20.6381 6.43921 20.5968C6.50327 20.5918 6.56491 20.5805 6.62413 20.5617C6.72687 20.6294 6.84531 20.6695 6.97706 20.6632C7.07496 20.6594 7.17165 20.6294 7.2623 20.5855C7.33482 20.5805 7.40613 20.5655 7.47381 20.5454C7.73488 20.687 8.04551 20.7572 8.30416 20.6118C8.30174 20.6406 8.30053 20.6695 8.30053 20.6983C8.2812 20.9889 8.37789 21.2746 8.61841 21.4813C8.65467 21.7231 8.73081 21.9574 8.82509 22.1478C8.85289 22.2055 8.88552 22.2631 8.92178 22.3182C8.96046 22.5162 9.06199 22.7091 9.24449 22.8733C9.30976 22.9321 9.37986 22.9772 9.45117 23.0123C9.50556 23.1564 9.59138 23.2842 9.70862 23.3857C9.7908 23.4646 9.88145 23.5235 9.98177 23.5636C10.0446 23.6663 10.1292 23.7628 10.2392 23.848C10.354 23.9369 10.4761 23.9896 10.6006 24.0146C10.7142 24.0773 10.8375 24.1224 10.9608 24.1324C10.991 24.1424 11.0212 24.1487 11.0514 24.1562C11.1324 24.2777 11.2376 24.378 11.3669 24.4293C11.4575 24.5158 11.5675 24.5759 11.7005 24.5934C11.8806 24.6173 12.0667 24.5521 12.2274 24.4606C12.2855 24.4281 12.3411 24.3905 12.3942 24.3504C12.5284 24.3842 12.6626 24.4043 12.7858 24.4105C13.0493 24.4243 13.3491 24.3654 13.528 24.1675C13.5642 24.1524 13.5993 24.1349 13.6331 24.1149C13.8761 24.1199 14.0827 24.0259 14.2507 23.8718C14.4224 23.8016 14.5759 23.6889 14.6617 23.5285C14.6738 23.5147 14.6871 23.5022 14.6991 23.4884C14.7499 23.4458 14.7983 23.4007 14.8442 23.3519C14.9143 23.3306 14.982 23.3055 15.0436 23.2792C15.3434 23.1501 15.6516 22.8996 15.6395 22.5375C15.6395 22.5262 15.6371 22.5149 15.6371 22.5037C15.6612 22.4761 15.6842 22.4473 15.706 22.4185C15.9936 22.3746 16.2825 22.2381 16.3755 21.9386C16.4287 21.7645 16.4021 21.5703 16.3477 21.3961C16.3405 21.3723 16.332 21.3498 16.3236 21.3272C16.5 21.1255 16.6402 20.8574 16.5907 20.593C16.6064 20.5667 16.6209 20.5392 16.6354 20.5116C16.662 20.5028 16.6874 20.4915 16.7128 20.4815C16.7732 20.5028 16.8373 20.5204 16.9061 20.5316C16.9581 20.5404 17.0089 20.5442 17.0584 20.5442C17.0621 20.5442 17.0645 20.5467 17.0681 20.5467C17.1817 20.5767 17.2905 20.583 17.3944 20.5742C17.4573 20.5742 17.5214 20.568 17.583 20.5567C17.7389 20.6845 17.9238 20.7597 18.1305 20.7246C18.2586 20.7033 18.3771 20.6394 18.4834 20.5567C18.6188 20.5479 18.7506 20.5091 18.875 20.4489C18.9717 20.4915 19.0696 20.5166 19.1663 20.5254C19.1905 20.5366 19.2135 20.5504 19.2401 20.558C19.3162 20.5818 19.3948 20.5893 19.4745 20.5855C19.5096 20.6018 19.5458 20.6168 19.5845 20.6269C19.7719 20.6745 19.9749 20.6294 20.155 20.5542C20.1586 20.5529 20.1623 20.5504 20.1671 20.5492C20.4088 20.568 20.6215 20.4928 20.8028 20.36C20.8923 20.3913 20.9805 20.4164 21.0651 20.4339C21.3878 20.5028 21.7782 20.4815 21.9982 20.2122C22.2967 20.1884 22.5929 20.0718 22.7234 19.7799C22.8068 19.5932 22.8032 19.3727 22.7657 19.1685C22.7572 19.1234 22.7476 19.0783 22.7355 19.0345C22.8298 18.8879 22.9047 18.7187 22.9337 18.5471C23.0558 18.383 23.138 18.1913 23.1223 17.9896V17.982ZM18.5801 18.0572C18.2997 17.848 17.9432 17.7816 17.5818 17.9457C17.5467 17.9545 17.5129 17.9645 17.4803 17.977C17.3872 17.9846 17.2953 18.0008 17.2059 18.0246C17.0512 17.9332 16.8626 17.8818 16.6451 17.8893C16.5689 17.8918 16.4976 17.9056 16.4299 17.9232C16.4046 17.9232 16.3792 17.9207 16.3526 17.9219C16.1955 17.9282 16.0577 17.9708 15.9356 18.0397C15.909 18.0372 15.8824 18.0347 15.8558 18.0347C15.8304 18.0347 15.8051 18.0359 15.7797 18.0372C15.5247 17.8367 15.1862 17.7615 14.8079 17.8969C14.7197 17.9282 14.6423 17.9708 14.5722 18.0209C14.403 17.9194 14.1939 17.9044 13.9981 17.9244C13.8434 17.9407 13.6923 17.9808 13.5509 18.0397C13.4917 18.0259 13.4313 18.0146 13.372 18.0084C13.2391 17.9946 13.1061 17.9996 12.9756 18.0184C12.8318 17.9382 12.671 17.8956 12.5006 17.9031C12.41 17.8768 12.3145 17.8643 12.2154 17.868C12.0425 17.8117 11.8552 17.8029 11.6642 17.8543C11.4733 17.8054 11.2593 17.8129 11.0321 17.8981C10.9318 17.9357 10.8448 17.9858 10.7686 18.0459C10.7384 18.0434 10.7082 18.0397 10.678 18.0397C10.6514 18.0397 10.6248 18.0397 10.5982 18.0409C10.3444 17.838 10.0084 17.7578 9.62764 17.8881C9.56116 17.9106 9.50073 17.9407 9.44392 17.9745C9.36294 17.957 9.27833 17.9507 9.19373 17.952C9.07407 17.9394 8.94716 17.9545 8.81784 17.9971C8.6305 17.8818 8.39844 17.8292 8.13132 17.868C8.02254 17.8843 7.92464 17.9169 7.8352 17.962C7.62731 17.8856 7.40976 17.8668 7.20308 17.9181C7.09792 17.9019 6.98673 17.9031 6.87191 17.9269C6.72445 17.8793 6.55886 17.8643 6.37636 17.8943C6.26274 17.9131 6.16122 17.9507 6.07057 18.0021C5.83126 17.9244 5.58227 17.9181 5.35746 17.9858C5.35021 17.9858 5.34417 17.9858 5.33692 17.9858C5.3345 17.9695 5.33087 17.9532 5.32725 17.9382C5.35142 17.8881 5.36955 17.833 5.38043 17.7741C5.41306 17.5974 5.37559 17.4132 5.31033 17.2429C5.43965 17.0913 5.53151 16.9121 5.53634 16.7166C5.57381 16.6928 5.60886 16.664 5.6415 16.6302C5.7672 16.5024 5.83367 16.3207 5.86872 16.1391C6.18297 15.9599 6.48393 15.6542 6.44404 15.2621C6.45734 15.237 6.46942 15.2107 6.48151 15.1844C6.73049 15.0591 6.94201 14.8561 6.9686 14.5605C6.97706 14.4677 6.96497 14.375 6.9408 14.2848C7.03991 14.1959 7.11605 14.0819 7.1511 13.939C7.19945 13.7398 7.15715 13.5231 7.08342 13.3314C7.04353 13.2249 6.99156 13.1259 6.93355 13.0307C6.93113 13.0219 6.92871 13.0144 6.9263 13.0056C6.9263 13.0006 6.92871 12.9956 6.92992 12.9906C7.09188 12.8766 7.22483 12.725 7.2768 12.5371C7.33603 12.4469 7.37591 12.3429 7.38679 12.2238C7.39646 12.1136 7.37954 12.0021 7.3457 11.8956C7.36504 11.8492 7.38075 11.8004 7.38921 11.7478C7.41943 11.5711 7.37833 11.3857 7.30944 11.2165C7.39888 11.0324 7.43272 10.8269 7.35295 10.6264C7.34932 10.6189 7.3457 10.6114 7.34207 10.6039C7.47623 10.4398 7.57897 10.2456 7.59831 10.0413C7.67445 9.92357 7.71796 9.78826 7.71071 9.63667C7.70588 9.5402 7.67808 9.44623 7.63819 9.35728C7.70104 9.20568 7.74334 9.0403 7.74334 8.87868C7.74334 8.87868 7.74335 8.87617 7.74455 8.87617C8.00925 8.67947 8.22681 8.39006 8.17363 8.04301C8.16758 8.00167 8.1567 7.96158 8.14341 7.92149C8.17 7.83003 8.17967 7.73606 8.16637 7.63834C8.22922 7.60075 8.28724 7.55189 8.33679 7.48799C8.39118 7.41783 8.42865 7.33514 8.45645 7.24744C8.64742 7.15347 8.80575 7.00564 8.86618 6.78262C8.87585 6.74504 8.8819 6.70745 8.88673 6.66861C8.9242 6.62727 8.95925 6.58217 8.98584 6.52829C9.04144 6.41929 9.06561 6.29526 9.06924 6.16997C9.23241 6.07851 9.36294 5.9432 9.41733 5.74775C9.44634 5.64251 9.44875 5.53101 9.43546 5.42075C9.45238 5.40822 9.4693 5.39444 9.48501 5.38066C9.6506 5.41073 9.81739 5.39194 9.96848 5.29171C10.1304 5.18271 10.2392 4.99854 10.3105 4.8106C10.3178 4.79181 10.3226 4.77302 10.3299 4.75423C10.4495 4.74044 10.5656 4.71038 10.6719 4.66026C10.7952 4.6565 10.9136 4.62518 11.02 4.55878C11.1989 4.53998 11.3693 4.44727 11.5143 4.33326C11.5446 4.30946 11.5736 4.2844 11.6026 4.25934C11.8298 4.35707 12.0812 4.38087 12.2951 4.23554C12.3737 4.18292 12.4402 4.11025 12.4946 4.03007C12.7653 4.13405 13.0711 4.15786 13.3007 3.96617C13.3116 3.97243 13.3237 3.9787 13.3346 3.98496C13.4953 4.1754 13.7286 4.30444 14.032 4.327C14.1202 4.33326 14.2036 4.327 14.2822 4.31071C14.4417 4.44727 14.6496 4.53623 14.9058 4.54875C14.9312 4.54875 14.9542 4.5475 14.9783 4.54625C15.1222 4.86573 15.399 5.10503 15.7954 5.15514C15.8921 5.29296 16.019 5.3957 16.1628 5.47087C16.2329 5.53602 16.3115 5.59114 16.3961 5.6375C16.4384 5.82794 16.5278 6.00209 16.662 6.14115C16.7067 6.32783 16.7974 6.49948 16.9412 6.6398C17.0548 6.86657 17.2373 7.02318 17.4525 7.12341C17.45 7.51681 17.6096 7.8864 17.9263 8.09438C17.9226 8.147 17.9214 8.20213 17.9238 8.25851C17.9371 8.48653 18.0181 8.67321 18.1414 8.82731C18.1607 8.92504 18.1909 9.019 18.2345 9.10921C18.232 9.12549 18.2284 9.14053 18.226 9.15807C18.2006 9.37983 18.2417 9.57653 18.3287 9.75068C18.2901 10.0426 18.3614 10.3383 18.5656 10.5826C18.5813 10.6101 18.5958 10.6365 18.614 10.664C18.6007 10.8469 18.6333 11.0324 18.7215 11.2028C18.672 11.3869 18.6732 11.5899 18.7397 11.7991C18.7421 11.8267 18.7445 11.853 18.7493 11.8818C18.7784 12.0547 18.8448 12.2 18.9355 12.3216C18.9391 12.4018 18.95 12.4807 18.9681 12.5571C18.8291 12.8352 18.7989 13.1547 18.9186 13.4554C18.9258 13.6246 18.9742 13.7774 19.0503 13.914C19.0322 14.0405 19.0358 14.1771 19.0684 14.3237C19.095 14.4439 19.1409 14.5479 19.199 14.6406C19.199 14.7785 19.2207 14.9125 19.2606 15.0378C19.2908 15.1957 19.3573 15.3372 19.4467 15.4638C19.4552 15.4976 19.4649 15.5302 19.477 15.5615C19.4842 15.6542 19.5023 15.7507 19.535 15.8509C19.6437 16.1892 19.8819 16.3959 20.1695 16.5112C20.2179 16.5964 20.2698 16.6766 20.323 16.748C20.3303 16.758 20.3387 16.7693 20.3472 16.7793C20.3484 16.7881 20.3508 16.7981 20.352 16.8069C20.3859 16.9622 20.4415 17.1226 20.5236 17.2616C20.4632 17.4421 20.4523 17.6425 20.5067 17.8505C20.5007 17.8768 20.4946 17.9044 20.4898 17.9307C20.3351 17.873 20.1574 17.853 19.9616 17.8843C19.9169 17.8918 19.8758 17.9019 19.8347 17.9144C19.8045 17.9144 19.7755 17.9144 19.7441 17.9181C19.5894 17.9344 19.4552 17.9846 19.3392 18.0597C19.3259 18.056 19.3126 18.0535 19.2993 18.051C19.1264 18.0058 18.95 17.9971 18.7844 18.0259C18.7179 18.0334 18.6514 18.0434 18.5862 18.0597L18.5801 18.0572ZM12.6892 22.208C12.5175 22.0363 12.2903 21.9324 12.0256 21.9386C11.9011 21.901 11.7645 21.8935 11.6183 21.9198C11.5784 21.9073 11.5385 21.8973 11.4986 21.8885C11.4817 21.6743 11.4044 21.4713 11.2303 21.3473C11.1505 21.2571 11.0502 21.1831 10.9463 21.1255C10.8713 21.0842 10.794 21.0516 10.7142 21.024C10.6574 20.9288 10.5897 20.8436 10.5136 20.7722C10.5063 20.7446 10.4979 20.7183 10.4894 20.692C10.5087 20.6507 10.5269 20.6081 10.5426 20.563C10.6248 20.573 10.707 20.5742 10.7855 20.563C10.8955 20.6582 11.026 20.7208 11.1795 20.7283C11.3173 20.7346 11.4551 20.6945 11.582 20.6306C11.7319 20.7334 11.9059 20.7885 12.0945 20.7521C12.1537 20.7409 12.2105 20.7196 12.2649 20.6933C12.3121 20.687 12.358 20.6745 12.4027 20.6582C12.4426 20.6632 12.4849 20.6644 12.5284 20.6607C12.6541 20.6494 12.775 20.5968 12.8837 20.5241C12.9514 20.5078 13.0179 20.484 13.082 20.454C13.192 20.5141 13.3189 20.5567 13.4627 20.5755C13.6754 20.6043 13.864 20.563 14.032 20.4765C14.0658 20.4702 14.0984 20.4615 14.1299 20.4502C14.171 20.4627 14.2121 20.4728 14.2519 20.479C14.2495 20.5279 14.2519 20.5755 14.2568 20.6244C14.2544 20.6294 14.2519 20.6344 14.2495 20.6394C14.1033 20.7922 14.0078 20.9977 13.9933 21.2483C13.9051 21.331 13.8301 21.4312 13.7685 21.5427C13.5582 21.6417 13.3853 21.797 13.2778 21.9887C13.25 21.9912 13.2234 21.9937 13.1968 21.9975C13.0179 22.0251 12.8523 22.094 12.7145 22.1942C12.7061 22.198 12.6976 22.203 12.6892 22.2067V22.208Z" fill="currentColor"/>
</svg>
