<svg viewBox="0 0 20 20" fill="none" xmlns="http://www.w3.org/2000/svg">
<rect width="20" height="20" fill="none"/>
<path d="M-261 -50C-261 -51.1046 -260.105 -52 -259 -52H636C637.105 -52 638 -51.1046 638 -50V122C638 123.105 637.105 124 636 124H-259C-260.105 124 -261 123.105 -261 122V-50Z" fill="none"/>
<path d="M-259 -51H636V-53H-259V-51ZM637 -50V122H639V-50H637ZM636 123H-259V125H636V123ZM-260 122V-50H-262V122H-260ZM-259 123C-259.552 123 -260 122.552 -260 122H-262C-262 123.657 -260.657 125 -259 125V123ZM637 122C637 122.552 636.552 123 636 123V125C637.657 125 639 123.657 639 122H637ZM636 -51C636.552 -51 637 -50.5523 637 -50H639C639 -51.6568 637.657 -53 636 -53V-51ZM-259 -53C-260.657 -53 -262 -51.6569 -262 -50H-260C-260 -50.5523 -259.552 -51 -259 -51V-53Z" fill="currentColor" fill-opacity="0.1"/>
<rect x="-3.5" y="-27.5" width="27" height="75" rx="4.5" stroke="#9747FF" stroke-dasharray="10 5"/>
<path d="M9.99756 5.47205C9.68628 5.47205 9.42078 5.58191 9.18274 5.8291L2.19727 12.9702C1.99585 13.1716 1.89514 13.4188 1.89514 13.7118C1.89514 14.3069 2.35291 14.783 2.95715 14.783C3.25012 14.783 3.51562 14.6548 3.71704 14.4625L9.99756 8.01721L16.2781 14.4625C16.4886 14.6639 16.7542 14.783 17.0471 14.783C17.6422 14.783 18.1 14.3069 18.1 13.7118C18.1 13.4188 17.9993 13.1716 17.7979 12.9702L10.8124 5.8291C10.5743 5.59106 10.3088 5.47205 9.99756 5.47205Z" fill="currentColor"/>
</svg>
