<svg viewBox="0 0 20 20" fill="none" xmlns="http://www.w3.org/2000/svg">
<rect width="20" height="20" fill="none"/>
<path d="M-195 -50C-195 -51.1046 -194.105 -52 -193 -52H702C703.105 -52 704 -51.1046 704 -50V122C704 123.105 703.105 124 702 124H-193C-194.105 124 -195 123.105 -195 122V-50Z" fill="none"/>
<path d="M-193 -51H702V-53H-193V-51ZM703 -50V122H705V-50H703ZM702 123H-193V125H702V123ZM-194 122V-50H-196V122H-194ZM-193 123C-193.552 123 -194 122.552 -194 122H-196C-196 123.657 -194.657 125 -193 125V123ZM703 122C703 122.552 702.552 123 702 123V125C703.657 125 705 123.657 705 122H703ZM702 -51C702.552 -51 703 -50.5523 703 -50H705C705 -51.6568 703.657 -53 702 -53V-51ZM-193 -53C-194.657 -53 -196 -51.6569 -196 -50H-194C-194 -50.5523 -193.552 -51 -193 -51V-53Z" fill="currentColor" fill-opacity="0.1"/>
<rect x="-3.5" y="-27.5" width="27" height="75" rx="4.5" stroke="#9747FF" stroke-dasharray="10 5"/>
<path d="M15.1609 10.1276C15.1609 10.4388 15.051 10.7043 14.8038 10.9424L7.66272 17.9279C7.4613 18.1293 7.21411 18.23 6.92114 18.23C6.32605 18.23 5.84998 17.7722 5.84998 17.168C5.84998 16.875 5.97815 16.6095 6.17041 16.4081L12.6157 10.1276L6.17041 3.84705C5.96899 3.63647 5.84998 3.37097 5.84998 3.078C5.84998 2.48291 6.32605 2.02515 6.92114 2.02515C7.21411 2.02515 7.4613 2.12585 7.66272 2.32727L14.8038 9.31274C15.0419 9.55078 15.1609 9.81628 15.1609 10.1276Z" fill="currentColor"/>
</svg>
