<svg viewBox="0 0 20 20" fill="none" xmlns="http://www.w3.org/2000/svg">
<rect width="20" height="20" fill="none"/>
<path d="M-195 -26C-195 -27.1046 -194.105 -28 -193 -28H702C703.105 -28 704 -27.1046 704 -26V146C704 147.105 703.105 148 702 148H-193C-194.105 148 -195 147.105 -195 146V-26Z" fill="none"/>
<path d="M-193 -27H702V-29H-193V-27ZM703 -26V146H705V-26H703ZM702 147H-193V149H702V147ZM-194 146V-26H-196V146H-194ZM-193 147C-193.552 147 -194 146.552 -194 146H-196C-196 147.657 -194.657 149 -193 149V147ZM703 146C703 146.552 702.552 147 702 147V149C703.657 149 705 147.657 705 146H703ZM702 -27C702.552 -27 703 -26.5523 703 -26H705C705 -27.6568 703.657 -29 702 -29V-27ZM-193 -29C-194.657 -29 -196 -27.6569 -196 -26H-194C-194 -26.5523 -193.552 -27 -193 -27V-29Z" fill="currentColor" fill-opacity="0.1"/>
<rect x="-3.5" y="-3.5" width="27" height="75" rx="4.5" stroke="#9747FF" stroke-dasharray="10 5"/>
<path d="M14.4539 10.0093C14.4539 10.2382 14.3623 10.4396 14.1884 10.6135L6.93738 17.7089C6.77258 17.8737 6.57117 17.9561 6.33313 17.9561C5.86621 17.9561 5.5 17.599 5.5 17.1229C5.5 16.8849 5.59155 16.6835 5.73804 16.5278L12.4031 10.0093L5.73804 3.49072C5.59155 3.33508 5.5 3.12451 5.5 2.89563C5.5 2.41956 5.86621 2.0625 6.33313 2.0625C6.57117 2.0625 6.77258 2.1449 6.93738 2.30054L14.1884 9.40503C14.3623 9.56982 14.4539 9.7804 14.4539 10.0093Z" fill="currentColor"/>
</svg>
