<svg viewBox="0 0 20 20" fill="none" xmlns="http://www.w3.org/2000/svg">
<rect width="20" height="20" fill="none"/>
<path d="M-393 -74C-393 -75.1046 -392.105 -76 -391 -76H504C505.105 -76 506 -75.1046 506 -74V98C506 99.1046 505.105 100 504 100H-391C-392.105 100 -393 99.1046 -393 98V-74Z" fill="none"/>
<path d="M-391 -75H504V-77H-391V-75ZM505 -74V98H507V-74H505ZM504 99H-391V101H504V99ZM-392 98V-74H-394V98H-392ZM-391 99C-391.552 99 -392 98.5523 -392 98H-394C-394 99.6568 -392.657 101 -391 101V99ZM505 98C505 98.5523 504.552 99 504 99V101C505.657 101 507 99.6569 507 98H505ZM504 -75C504.552 -75 505 -74.5523 505 -74H507C507 -75.6568 505.657 -77 504 -77V-75ZM-391 -77C-392.657 -77 -394 -75.6569 -394 -74H-392C-392 -74.5523 -391.552 -75 -391 -75V-77Z" fill="currentColor" fill-opacity="0.1"/>
<rect x="-3.5" y="-51.5" width="27" height="75" rx="4.5" stroke="#9747FF" stroke-dasharray="10 5"/>
<path d="M3.8135 11.7271C2.81607 11.7271 2 10.9028 2 9.9136C2 8.90793 2.81607 8.1001 3.8135 8.1001C4.8439 8.1001 5.64348 8.89969 5.64348 9.9136C5.64348 10.9028 4.81092 11.7271 3.8135 11.7271ZM10.0041 11.7271C9.0067 11.7271 8.19062 10.9028 8.19062 9.9136C8.19062 8.90793 9.0067 8.1001 10.0041 8.1001C11.018 8.1001 11.8094 8.89969 11.8094 9.9136C11.8094 10.9028 10.9851 11.7271 10.0041 11.7271ZM16.1865 11.7271C15.1808 11.7271 14.3648 10.9028 14.3648 9.9136C14.3648 8.90793 15.1808 8.1001 16.1865 8.1001C17.2087 8.1001 18 8.89969 18 9.9136C18 10.9028 17.1757 11.7271 16.1865 11.7271Z" fill="currentColor"/>
</svg>
