<svg viewBox="0 0 20 20" fill="none" xmlns="http://www.w3.org/2000/svg">
<rect width="20" height="20" fill="none"/>
<path d="M-393 -26C-393 -27.1046 -392.105 -28 -391 -28H504C505.105 -28 506 -27.1046 506 -26V146C506 147.105 505.105 148 504 148H-391C-392.105 148 -393 147.105 -393 146V-26Z" fill="none"/>
<path d="M-391 -27H504V-29H-391V-27ZM505 -26V146H507V-26H505ZM504 147H-391V149H504V147ZM-392 146V-26H-394V146H-392ZM-391 147C-391.552 147 -392 146.552 -392 146H-394C-394 147.657 -392.657 149 -391 149V147ZM505 146C505 146.552 504.552 147 504 147V149C505.657 149 507 147.657 507 146H505ZM504 -27C504.552 -27 505 -26.5523 505 -26H507C507 -27.6568 505.657 -29 504 -29V-27ZM-391 -29C-392.657 -29 -394 -27.6569 -394 -26H-392C-392 -26.5523 -391.552 -27 -391 -27V-29Z" fill="currentColor" fill-opacity="0.1"/>
<rect x="-3.5" y="-3.5" width="27" height="75" rx="4.5" stroke="#9747FF" stroke-dasharray="10 5"/>
<path d="M4.48462 11.4692C3.66808 11.4692 3 10.8086 3 9.98462C3 9.16066 3.66808 8.5 4.48462 8.5C5.32344 8.5 5.99152 9.16066 5.99152 9.98462C5.99152 10.8086 5.32344 11.4692 4.48462 11.4692ZM10 11.4692C9.18346 11.4692 8.5228 10.8086 8.5228 9.98462C8.5228 9.16066 9.18346 8.5 10 8.5C10.824 8.5 11.4846 9.16066 11.4846 9.98462C11.4846 10.8086 10.824 11.4692 10 11.4692ZM15.5154 11.4692C14.6766 11.4692 14.0159 10.8086 14.0159 9.98462C14.0159 9.16066 14.6766 8.5 15.5154 8.5C16.3393 8.5 17 9.16066 17 9.98462C17 10.8086 16.3393 11.4692 15.5154 11.4692Z" fill="currentColor"/>
</svg>
