<svg viewBox="0 0 20 20" fill="none" xmlns="http://www.w3.org/2000/svg">
<rect width="20" height="20" fill="none"/>
<path d="M-228 -26C-228 -27.1046 -227.105 -28 -226 -28H669C670.105 -28 671 -27.1046 671 -26V146C671 147.105 670.105 148 669 148H-226C-227.105 148 -228 147.105 -228 146V-26Z" fill="none"/>
<path d="M-226 -27H669V-29H-226V-27ZM670 -26V146H672V-26H670ZM669 147H-226V149H669V147ZM-227 146V-26H-229V146H-227ZM-226 147C-226.552 147 -227 146.552 -227 146H-229C-229 147.657 -227.657 149 -226 149V147ZM670 146C670 146.552 669.552 147 669 147V149C670.657 149 672 147.657 672 146H670ZM669 -27C669.552 -27 670 -26.5523 670 -26H672C672 -27.6568 670.657 -29 669 -29V-27ZM-226 -29C-227.657 -29 -229 -27.6569 -229 -26H-227C-227 -26.5523 -226.552 -27 -226 -27V-29Z" fill="currentColor" fill-opacity="0.1"/>
<rect x="-3.5" y="-3.5" width="27" height="75" rx="4.5" stroke="#9747FF" stroke-dasharray="10 5"/>
<path d="M10.0032 14.9539C9.77429 14.9539 9.57288 14.8623 9.39893 14.6884L2.30359 7.43738C2.13879 7.27258 2.0564 7.07117 2.0564 6.83313C2.0564 6.36621 2.41345 6 2.88953 6C3.12756 6 3.32898 6.09155 3.48462 6.23804L10.0032 12.9031L16.5217 6.23804C16.6774 6.09155 16.8879 6 17.1168 6C17.5929 6 17.95 6.36621 17.95 6.83313C17.95 7.07117 17.8676 7.27258 17.7119 7.43738L10.6074 14.6884C10.4426 14.8623 10.2321 14.9539 10.0032 14.9539Z" fill="currentColor"/>
</svg>
