<svg viewBox="0 0 20 20" fill="none" xmlns="http://www.w3.org/2000/svg">
<rect width="20" height="20" fill="none"/>
<path d="M-228 -74C-228 -75.1046 -227.105 -76 -226 -76H669C670.105 -76 671 -75.1046 671 -74V98C671 99.1046 670.105 100 669 100H-226C-227.105 100 -228 99.1046 -228 98V-74Z" fill="none"/>
<path d="M-226 -75H669V-77H-226V-75ZM670 -74V98H672V-74H670ZM669 99H-226V101H669V99ZM-227 98V-74H-229V98H-227ZM-226 99C-226.552 99 -227 98.5523 -227 98H-229C-229 99.6568 -227.657 101 -226 101V99ZM670 98C670 98.5523 669.552 99 669 99V101C670.657 101 672 99.6569 672 98H670ZM669 -75C669.552 -75 670 -74.5523 670 -74H672C672 -75.6568 670.657 -77 669 -77V-75ZM-226 -77C-227.657 -77 -229 -75.6569 -229 -74H-227C-227 -74.5523 -226.552 -75 -226 -75V-77Z" fill="currentColor" fill-opacity="0.1"/>
<rect x="-3.5" y="-51.5" width="27" height="75" rx="4.5" stroke="#9747FF" stroke-dasharray="10 5"/>
<path d="M10.0138 14.9702C9.56519 14.9702 9.18982 14.8146 8.82361 14.4301L2.03955 7.50867C1.76489 7.23401 1.62756 6.89526 1.62756 6.49243C1.62756 5.68677 2.27759 5.02759 3.08325 5.02759C3.49524 5.02759 3.86145 5.19238 4.16357 5.49451L10.0229 11.5278L15.8732 5.49451C16.1661 5.19238 16.5415 5.02759 16.9443 5.02759C17.7408 5.02759 18.4 5.68677 18.4 6.49243C18.4 6.89526 18.2627 7.23401 17.988 7.50867L11.204 14.4301C10.8469 14.8054 10.4716 14.9702 10.0138 14.9702Z" fill="currentColor"/>
</svg>
