<svg viewBox="0 0 20 20" fill="none" xmlns="http://www.w3.org/2000/svg">
<rect width="20" height="20" fill="none"/>
<path d="M-129 -74C-129 -75.1046 -128.105 -76 -127 -76H768C769.105 -76 770 -75.1046 770 -74V98C770 99.1046 769.105 100 768 100H-127C-128.105 100 -129 99.1046 -129 98V-74Z" fill="none"/>
<path d="M-127 -75H768V-77H-127V-75ZM769 -74V98H771V-74H769ZM768 99H-127V101H768V99ZM-128 98V-74H-130V98H-128ZM-127 99C-127.552 99 -128 98.5523 -128 98H-130C-130 99.6568 -128.657 101 -127 101V99ZM769 98C769 98.5523 768.552 99 768 99V101C769.657 101 771 99.6569 771 98H769ZM768 -75C768.552 -75 769 -74.5523 769 -74H771C771 -75.6568 769.657 -77 768 -77V-75ZM-127 -77C-128.657 -77 -130 -75.6569 -130 -74H-128C-128 -74.5523 -127.552 -75 -127 -75V-77Z" fill="currentColor" fill-opacity="0.1"/>
<rect x="-3.5" y="-51.5" width="27" height="75" rx="4.5" stroke="#9747FF" stroke-dasharray="10 5"/>
<path d="M9.99085 18.9095C9.63379 18.9095 9.25842 18.7539 9.01123 18.5067L3.0603 12.5375C2.78565 12.2628 2.64832 11.9332 2.64832 11.6128C2.64832 10.8346 3.18848 10.3036 3.90259 10.3036C4.29627 10.3036 4.6167 10.4775 4.85474 10.7247L6.90552 12.7755L8.77319 14.808L8.66333 12.803L8.66333 2.45752C8.66333 1.63355 9.20349 1.08423 9.99084 1.08423C10.7874 1.08423 11.3184 1.63355 11.3184 2.45752L11.3184 12.803L11.2085 14.7988L13.0762 12.7755L15.1361 10.7247C15.3741 10.4775 15.6854 10.3036 16.0883 10.3036C16.8024 10.3036 17.3425 10.8346 17.3425 11.6128C17.3425 11.9332 17.2052 12.2628 16.9214 12.5466L10.9705 18.5067C10.7233 18.7539 10.3479 18.9095 9.99085 18.9095Z" fill="currentColor"/>
</svg>
