<svg viewBox="0 0 20 20" fill="none" xmlns="http://www.w3.org/2000/svg">
<rect width="20" height="20" fill="none"/>
<path d="M-463 -50C-463 -51.1046 -462.105 -52 -461 -52H434C435.105 -52 436 -51.1046 436 -50V122C436 123.105 435.105 124 434 124H-461C-462.105 124 -463 123.105 -463 122V-50Z" fill="none"/>
<path d="M-461 -51H434V-53H-461V-51ZM435 -50V122H437V-50H435ZM434 123H-461V125H434V123ZM-462 122V-50H-464V122H-462ZM-461 123C-461.552 123 -462 122.552 -462 122H-464C-464 123.657 -462.657 125 -461 125V123ZM435 122C435 122.552 434.552 123 434 123V125C435.657 125 437 123.657 437 122H435ZM434 -51C434.552 -51 435 -50.5523 435 -50H437C437 -51.6568 435.657 -53 434 -53V-51ZM-461 -53C-462.657 -53 -464 -51.6569 -464 -50H-462C-462 -50.5523 -461.552 -51 -461 -51V-53Z" fill="currentColor" fill-opacity="0.1"/>
<rect x="-3.5" y="-27.5" width="27" height="75" rx="4.5" stroke="#9747FF" stroke-dasharray="10 5"/>
<path d="M5.20321 5.12913C6.38678 3.83621 8.11066 3 10.0018 3C13.3981 3 16.2284 5.61799 16.6079 8.87922H17.5084C18.0037 8.87922 18.1388 9.24587 17.8493 9.64468L16.3184 11.7995C16.0804 12.1212 15.7266 12.1212 15.4951 11.7995L13.9642 9.63825C13.6811 9.23944 13.8162 8.87922 14.3051 8.87922H15.2764C14.9226 6.31269 12.7227 4.31221 10.0018 4.31221C8.46444 4.31221 7.07504 4.96832 6.11661 6.01037C5.80786 6.30626 5.43478 6.30626 5.17105 6.06826C4.91375 5.84312 4.89446 5.43788 5.20321 5.12913ZM2.14782 9.65111L3.68516 7.49625C3.91673 7.17463 4.27051 7.17463 4.50208 7.49625L6.03299 9.65754C6.31602 10.0564 6.18094 10.4166 5.69208 10.4166H4.72721C5.081 12.9895 7.28731 14.9836 10.0018 14.9836C11.552 14.9836 12.9414 14.3275 13.8934 13.279C14.2086 12.9831 14.5752 12.9767 14.839 13.2147C15.0963 13.4462 15.1156 13.8515 14.8132 14.1602C13.6232 15.4596 11.8994 16.2958 10.0018 16.2958C6.60548 16.2958 3.77522 13.6778 3.40214 10.4166H2.48874C1.99344 10.4166 1.86479 10.0499 2.14782 9.65111Z" fill="currentColor"/>
</svg>
