<svg viewBox="0 0 20 20" fill="none" xmlns="http://www.w3.org/2000/svg">
<rect width="20" height="20" fill="none"/>
<path d="M-498 -26C-498 -27.1046 -497.105 -28 -496 -28H399C400.105 -28 401 -27.1046 401 -26V146C401 147.105 400.105 148 399 148H-496C-497.105 148 -498 147.105 -498 146V-26Z" fill="none"/>
<path d="M-496 -27H399V-29H-496V-27ZM400 -26V146H402V-26H400ZM399 147H-496V149H399V147ZM-497 146V-26H-499V146H-497ZM-496 147C-496.552 147 -497 146.552 -497 146H-499C-499 147.657 -497.657 149 -496 149V147ZM400 146C400 146.552 399.552 147 399 147V149C400.657 149 402 147.657 402 146H400ZM399 -27C399.552 -27 400 -26.5523 400 -26H402C402 -27.6568 400.657 -29 399 -29V-27ZM-496 -29C-497.657 -29 -499 -27.6569 -499 -26H-497C-497 -26.5523 -496.552 -27 -496 -27V-29Z" fill="currentColor" fill-opacity="0.1"/>
<rect x="-3.5" y="-3.5" width="27" height="75" rx="4.5" stroke="#9747FF" stroke-dasharray="10 5"/>
<path d="M9.76165 15.5645C9.46685 15.5645 9.22222 15.4453 8.93996 15.1694L6.26165 12.6353C6.22401 12.5977 6.16756 12.5789 6.10484 12.5789H4.31093C3.45789 12.5789 3 12.1147 3 11.2052V8.87186C3 7.96864 3.45789 7.49821 4.31093 7.49821H6.10484C6.16756 7.49821 6.22401 7.47939 6.26165 7.44176L8.93996 4.9328C9.25986 4.63172 9.4543 4.5 9.7491 4.5C10.1756 4.5 10.4704 4.83244 10.4704 5.24014V14.862C10.4704 15.2697 10.1756 15.5645 9.76165 15.5645ZM15.0367 14.3351C14.8047 14.1783 14.7733 13.8835 14.9489 13.6263C15.6201 12.6478 16.0278 11.362 16.0278 10.026C16.0278 8.68996 15.6326 7.39158 14.9489 6.42563C14.767 6.16846 14.8047 5.87366 15.0367 5.71685C15.2688 5.56004 15.5573 5.61649 15.7267 5.85484C16.5358 6.94624 17 8.4767 17 10.026C17 11.5753 16.5296 13.0932 15.7267 14.1971C15.5573 14.4355 15.2688 14.4919 15.0367 14.3351ZM12.7159 12.698C12.4588 12.5161 12.4274 12.2151 12.6156 11.9516C12.9731 11.4435 13.1864 10.7536 13.1864 10.026C13.1864 9.29839 12.9794 8.60215 12.6156 8.10036C12.4211 7.84319 12.4588 7.52957 12.7159 7.35394C12.9229 7.20341 13.2177 7.25358 13.3871 7.49821C13.8701 8.13799 14.1586 9.06631 14.1586 10.026C14.1586 10.9857 13.8701 11.9203 13.3871 12.5538C13.2177 12.7984 12.9229 12.8423 12.7159 12.698Z" fill="currentColor"/>
</svg>
