<svg viewBox="0 0 20 20" fill="none" xmlns="http://www.w3.org/2000/svg">
<rect width="20" height="20" fill="none"/>
<path d="M-327 -74C-327 -75.1046 -326.105 -76 -325 -76H570C571.105 -76 572 -75.1046 572 -74V98C572 99.1046 571.105 100 570 100H-325C-326.105 100 -327 99.1046 -327 98V-74Z" fill="none"/>
<path d="M-325 -75H570V-77H-325V-75ZM571 -74V98H573V-74H571ZM570 99H-325V101H570V99ZM-326 98V-74H-328V98H-326ZM-325 99C-325.552 99 -326 98.5523 -326 98H-328C-328 99.6568 -326.657 101 -325 101V99ZM571 98C571 98.5523 570.552 99 570 99V101C571.657 101 573 99.6569 573 98H571ZM570 -75C570.552 -75 571 -74.5523 571 -74H573C573 -75.6568 571.657 -77 570 -77V-75ZM-325 -77C-326.657 -77 -328 -75.6569 -328 -74H-326C-326 -74.5523 -325.552 -75 -325 -75V-77Z" fill="currentColor" fill-opacity="0.1"/>
<rect x="-3.5" y="-51.5" width="27" height="75" rx="4.5" stroke="#9747FF" stroke-dasharray="10 5"/>
<path d="M3.31738 15.2451C1.7998 15.2451 1 14.4453 1 12.9482V6.29688C1 4.79297 1.7998 4 3.31738 4H16.251C17.7617 4 18.5615 4.7998 18.5615 6.29688V12.9482C18.5615 14.4453 17.7617 15.2451 16.251 15.2451H3.31738ZM3.44727 13.7207H16.1211C16.7158 13.7207 17.0439 13.4199 17.0439 12.791V6.4541C17.0439 5.8252 16.7158 5.51758 16.1211 5.51758H3.44727C2.8457 5.51758 2.52441 5.8252 2.52441 6.4541V12.791C2.52441 13.4199 2.8457 13.7207 3.44727 13.7207ZM4.12402 8.1084C3.91895 8.1084 3.7959 7.98535 3.7959 7.78027V7.14453C3.7959 6.93945 3.91895 6.81641 4.12402 6.81641H4.75293C4.95801 6.81641 5.08105 6.93945 5.08105 7.14453V7.78027C5.08105 7.98535 4.95801 8.1084 4.75293 8.1084H4.12402ZM6.25684 8.1084C6.05176 8.1084 5.92871 7.98535 5.92871 7.78027V7.14453C5.92871 6.93945 6.05176 6.81641 6.25684 6.81641H6.88574C7.09082 6.81641 7.21387 6.93945 7.21387 7.14453V7.78027C7.21387 7.98535 7.09082 8.1084 6.88574 8.1084H6.25684ZM8.38965 8.1084C8.18457 8.1084 8.06152 7.98535 8.06152 7.78027V7.14453C8.06152 6.93945 8.18457 6.81641 8.38965 6.81641H9.01855C9.22363 6.81641 9.34668 6.93945 9.34668 7.14453V7.78027C9.34668 7.98535 9.22363 8.1084 9.01855 8.1084H8.38965ZM10.5225 8.1084C10.3174 8.1084 10.1943 7.98535 10.1943 7.78027V7.14453C10.1943 6.93945 10.3174 6.81641 10.5225 6.81641H11.1514C11.3564 6.81641 11.4795 6.93945 11.4795 7.14453V7.78027C11.4795 7.98535 11.3564 8.1084 11.1514 8.1084H10.5225ZM12.6826 8.1084C12.457 8.1084 12.3271 7.98535 12.3271 7.78027V7.14453C12.3271 6.93945 12.457 6.81641 12.6826 6.81641H13.2842C13.4893 6.81641 13.6123 6.93945 13.6123 7.14453V7.78027C13.6123 7.98535 13.4893 8.1084 13.2842 8.1084H12.6826ZM14.7881 8.1084C14.583 8.1084 14.46 7.98535 14.46 7.78027V7.14453C14.46 6.93945 14.583 6.81641 14.7881 6.81641H15.417C15.6221 6.81641 15.7451 6.93945 15.7451 7.14453V7.78027C15.7451 7.98535 15.6221 8.1084 15.417 8.1084H14.7881ZM4.12402 10.2686C3.91895 10.2686 3.7959 10.1455 3.7959 9.94043V9.30469C3.7959 9.09961 3.91895 8.97656 4.12402 8.97656H4.75293C4.95801 8.97656 5.08105 9.09961 5.08105 9.30469V9.94043C5.08105 10.1455 4.95801 10.2686 4.75293 10.2686H4.12402ZM6.25684 10.2686C6.05176 10.2686 5.92871 10.1455 5.92871 9.94043V9.30469C5.92871 9.09961 6.05176 8.97656 6.25684 8.97656H6.88574C7.09082 8.97656 7.21387 9.09961 7.21387 9.30469V9.94043C7.21387 10.1455 7.09082 10.2686 6.88574 10.2686H6.25684ZM8.38965 10.2686C8.18457 10.2686 8.06152 10.1455 8.06152 9.94043V9.30469C8.06152 9.09961 8.18457 8.97656 8.38965 8.97656H9.01855C9.22363 8.97656 9.34668 9.09961 9.34668 9.30469V9.94043C9.34668 10.1455 9.22363 10.2686 9.01855 10.2686H8.38965ZM10.5225 10.2686C10.3174 10.2686 10.1943 10.1455 10.1943 9.94043V9.30469C10.1943 9.09961 10.3174 8.97656 10.5225 8.97656H11.1514C11.3564 8.97656 11.4795 9.09961 11.4795 9.30469V9.94043C11.4795 10.1455 11.3564 10.2686 11.1514 10.2686H10.5225ZM12.6826 10.2686C12.457 10.2686 12.3271 10.1455 12.3271 9.94043V9.30469C12.3271 9.09961 12.457 8.97656 12.6826 8.97656H13.2842C13.4893 8.97656 13.6123 9.09961 13.6123 9.30469V9.94043C13.6123 10.1455 13.4893 10.2686 13.2842 10.2686H12.6826ZM14.7881 10.2686C14.583 10.2686 14.46 10.1455 14.46 9.94043V9.30469C14.46 9.09961 14.583 8.97656 14.7881 8.97656H15.417C15.6221 8.97656 15.7451 9.09961 15.7451 9.30469V9.94043C15.7451 10.1455 15.6221 10.2686 15.417 10.2686H14.7881ZM4.12402 12.4219C3.91895 12.4219 3.7959 12.2988 3.7959 12.0938V11.4648C3.7959 11.2598 3.91895 11.1367 4.12402 11.1367H4.75293C4.95801 11.1367 5.08105 11.2598 5.08105 11.4648V12.0938C5.08105 12.2988 4.95801 12.4219 4.75293 12.4219H4.12402ZM6.30469 12.4219C6.06543 12.4219 5.92871 12.2852 5.92871 12.0459V11.5127C5.92871 11.2734 6.06543 11.1367 6.30469 11.1367H13.2363C13.4756 11.1367 13.6123 11.2734 13.6123 11.5127V12.0459C13.6123 12.2852 13.4756 12.4219 13.2363 12.4219H6.30469ZM14.7881 12.4219C14.583 12.4219 14.46 12.2988 14.46 12.0938V11.4648C14.46 11.2598 14.583 11.1367 14.7881 11.1367H15.417C15.6221 11.1367 15.7451 11.2598 15.7451 11.4648V12.0938C15.7451 12.2988 15.6221 12.4219 15.417 12.4219H14.7881Z" fill="currentColor"/>
</svg>
