<svg viewBox="0 0 20 20" fill="none" xmlns="http://www.w3.org/2000/svg">
<rect width="20" height="20" fill="none"/>
<path d="M-428 -74C-428 -75.1046 -427.105 -76 -426 -76H469C470.105 -76 471 -75.1046 471 -74V98C471 99.1046 470.105 100 469 100H-426C-427.105 100 -428 99.1046 -428 98V-74Z" fill="none"/>
<path d="M-426 -75H469V-77H-426V-75ZM470 -74V98H472V-74H470ZM469 99H-426V101H469V99ZM-427 98V-74H-429V98H-427ZM-426 99C-426.552 99 -427 98.5523 -427 98H-429C-429 99.6568 -427.657 101 -426 101V99ZM470 98C470 98.5523 469.552 99 469 99V101C470.657 101 472 99.6569 472 98H470ZM469 -75C469.552 -75 470 -74.5523 470 -74H472C472 -75.6568 470.657 -77 469 -77V-75ZM-426 -77C-427.657 -77 -429 -75.6569 -429 -74H-427C-427 -74.5523 -426.552 -75 -426 -75V-77Z" fill="currentColor" fill-opacity="0.1"/>
<rect x="-3.5" y="-51.5" width="27" height="75" rx="4.5" stroke="#9747FF" stroke-dasharray="10 5"/>
<path d="M8.5918 15.9902C8.20898 15.9902 7.92188 15.8467 7.66211 15.5254L4.12109 11.1641C3.92285 10.9248 3.84082 10.6992 3.84082 10.46C3.84082 9.91309 4.24414 9.5166 4.80469 9.5166C5.13965 9.5166 5.37207 9.63965 5.59766 9.91992L8.56445 13.6797L14.3545 4.50586C14.5869 4.13672 14.8193 4 15.2021 4C15.7559 4 16.1523 4.38965 16.1523 4.92969C16.1523 5.1416 16.0908 5.36035 15.9268 5.60645L9.52832 15.5049C9.30957 15.833 8.99512 15.9902 8.5918 15.9902Z" fill="currentColor"/>
</svg>
