<svg viewBox="0 0 20 20" fill="none" xmlns="http://www.w3.org/2000/svg">
<rect width="20" height="20" fill="none"/>
<path d="M-261 -26C-261 -27.1046 -260.105 -28 -259 -28H636C637.105 -28 638 -27.1046 638 -26V146C638 147.105 637.105 148 636 148H-259C-260.105 148 -261 147.105 -261 146V-26Z" fill="none"/>
<path d="M-259 -27H636V-29H-259V-27ZM637 -26V146H639V-26H637ZM636 147H-259V149H636V147ZM-260 146V-26H-262V146H-260ZM-259 147C-259.552 147 -260 146.552 -260 146H-262C-262 147.657 -260.657 149 -259 149V147ZM637 146C637 146.552 636.552 147 636 147V149C637.657 149 639 147.657 639 146H637ZM636 -27C636.552 -27 637 -26.5523 637 -26H639C639 -27.6568 637.657 -29 636 -29V-27ZM-259 -29C-260.657 -29 -262 -27.6569 -262 -26H-260C-260 -26.5523 -259.552 -27 -259 -27V-29Z" fill="currentColor" fill-opacity="0.1"/>
<rect x="-3.5" y="-3.5" width="27" height="75" rx="4.5" stroke="#9747FF" stroke-dasharray="10 5"/>
<path d="M10.0032 6C9.77429 6 9.57288 6.09155 9.39893 6.2655L2.30359 13.5165C2.13879 13.6813 2.0564 13.8827 2.0564 14.1207C2.0564 14.5876 2.41345 14.9539 2.88953 14.9539C3.12756 14.9539 3.32898 14.8623 3.48462 14.7158L10.0032 8.05078L16.5217 14.7158C16.6774 14.8623 16.8879 14.9539 17.1168 14.9539C17.5929 14.9539 17.95 14.5876 17.95 14.1207C17.95 13.8827 17.8676 13.6813 17.7119 13.5165L10.6074 6.2655C10.4426 6.09155 10.2321 6 10.0032 6Z" fill="currentColor"/>
</svg>
