<svg viewBox="0 0 20 20" fill="none" xmlns="http://www.w3.org/2000/svg">
<rect width="20" height="20" fill="none"/>
<path d="M-463 -26C-463 -27.1046 -462.105 -28 -461 -28H434C435.105 -28 436 -27.1046 436 -26V146C436 147.105 435.105 148 434 148H-461C-462.105 148 -463 147.105 -463 146V-26Z" fill="none"/>
<path d="M-461 -27H434V-29H-461V-27ZM435 -26V146H437V-26H435ZM434 147H-461V149H434V147ZM-462 146V-26H-464V146H-462ZM-461 147C-461.552 147 -462 146.552 -462 146H-464C-464 147.657 -462.657 149 -461 149V147ZM435 146C435 146.552 434.552 147 434 147V149C435.657 149 437 147.657 437 146H435ZM434 -27C434.552 -27 435 -26.5523 435 -26H437C437 -27.6568 435.657 -29 434 -29V-27ZM-461 -29C-462.657 -29 -464 -27.6569 -464 -26H-462C-462 -26.5523 -461.552 -27 -461 -27V-29Z" fill="currentColor" fill-opacity="0.1"/>
<rect x="-3.5" y="-3.5" width="27" height="75" rx="4.5" stroke="#9747FF" stroke-dasharray="10 5"/>
<path d="M4.97752 5.32243C6.20743 3.9028 8.00649 3 10.0018 3C13.4102 3 16.2757 5.64953 16.6355 8.97944H17.5317C18.0028 8.97944 18.1271 9.29346 17.8654 9.65981L16.4065 11.7402C16.1906 12.0477 15.8766 12.0411 15.6672 11.7402L14.2018 9.65327C13.9532 9.29346 14.071 8.97944 14.5355 8.97944H15.5102C15.17 6.22523 12.8476 4.11215 10.0018 4.11215C8.32705 4.11215 6.82238 4.8514 5.80182 6.01589C5.58593 6.25794 5.27845 6.31682 5.02331 6.13365C4.76163 5.95047 4.72892 5.60374 4.97752 5.32243ZM2.13172 9.69252L3.59714 7.61215C3.81303 7.30467 4.12705 7.31122 4.3364 7.61215L5.80182 9.69907C6.05042 10.0523 5.93266 10.3729 5.46817 10.3729H4.49341C4.82705 13.1206 7.14948 15.2336 10.0018 15.2336C11.6897 15.2336 13.1943 14.5009 14.2084 13.3299C14.4177 13.0879 14.7317 13.0224 14.9869 13.2056C15.242 13.3888 15.2747 13.7421 15.0327 14.0234C13.8028 15.4365 11.9971 16.3458 10.0018 16.3458C6.59341 16.3458 3.72144 13.7028 3.36817 10.3729H2.46537C1.99434 10.3729 1.87658 10.0523 2.13172 9.69252Z" fill="currentColor"/>
</svg>
