<svg viewBox="0 0 20 20" fill="currentColor" xmlns="http://www.w3.org/2000/svg">
<path d="M18.9081 10.0016C18.9081 10.3586 18.7524 10.734 18.5052 10.9812L12.536 16.9321C12.2614 17.2068 11.9318 17.3441 11.6113 17.3441C10.8331 17.3441 10.3021 16.804 10.3021 16.0898C10.3021 15.6962 10.4761 15.3757 10.7233 15.1377L12.774 13.0869L14.8065 11.2192L12.8015 11.3291H2.45605C1.63208 11.3291 1.08276 10.7889 1.08276 10.0016C1.08276 9.20508 1.63208 8.67407 2.45605 8.67407H12.8015L14.7974 8.78394L12.774 6.91626L10.7233 4.85632C10.4761 4.61829 10.3021 4.30701 10.3021 3.90417C10.3021 3.19006 10.8331 2.6499 11.6113 2.6499C11.9318 2.6499 12.2614 2.78723 12.5452 3.07104L18.5052 9.02197C18.7524 9.26917 18.9081 9.64453 18.9081 10.0016Z" fill="currentColor"/>
</svg>
