<svg viewBox="0 0 20 20" fill="none" xmlns="http://www.w3.org/2000/svg">
<rect width="20" height="20" fill="none"/>
<path d="M-96 -26C-96 -27.1046 -95.1046 -28 -94 -28H801C802.105 -28 803 -27.1046 803 -26V146C803 147.105 802.105 148 801 148H-94C-95.1046 148 -96 147.105 -96 146V-26Z" fill="none"/>
<path d="M-94 -27H801V-29H-94V-27ZM802 -26V146H804V-26H802ZM801 147H-94V149H801V147ZM-95 146V-26H-97V146H-95ZM-94 147C-94.5523 147 -95 146.552 -95 146H-97C-97 147.657 -95.6569 149 -94 149V147ZM802 146C802 146.552 801.552 147 801 147V149C802.657 149 804 147.657 804 146H802ZM801 -27C801.552 -27 802 -26.5523 802 -26H804C804 -27.6568 802.657 -29 801 -29V-27ZM-94 -29C-95.6569 -29 -97 -27.6569 -97 -26H-95C-95 -26.5523 -94.5523 -27 -94 -27V-29Z" fill="currentColor" fill-opacity="0.1"/>
<rect x="-3.5" y="-3.5" width="27" height="75" rx="4.5" stroke="#9747FF" stroke-dasharray="10 5"/>
<path d="M10.0007 1.50159C10.2296 1.50159 10.4402 1.59314 10.6141 1.77624L16.6841 7.8645C16.858 8.04761 16.9404 8.23987 16.9404 8.45959C16.9404 8.9082 16.6108 9.2561 16.1531 9.2561C15.9333 9.2561 15.7136 9.18286 15.5763 9.03638L13.4889 6.9856L10.6782 3.90027L10.8156 6.11584L10.8156 17.6973C10.8156 18.1733 10.4768 18.5029 10.0007 18.5029C9.52466 18.5029 9.18591 18.1733 9.18591 17.6973L9.18591 6.11584L9.32324 3.90942L6.51257 6.9856L4.42517 9.03638C4.27869 9.18286 4.06811 9.2561 3.84839 9.2561C3.39062 9.2561 3.06103 8.9082 3.06103 8.45959C3.06103 8.23987 3.13428 8.04761 3.33569 7.84619L9.38733 1.77624C9.56128 1.59314 9.77185 1.50159 10.0007 1.50159Z" fill="currentColor"/>
</svg>
