<svg viewBox="0 0 20 20" fill="none" xmlns="http://www.w3.org/2000/svg">
<rect width="20" height="20" fill="none"/>
<path d="M-162 -74C-162 -75.1046 -161.105 -76 -160 -76H735C736.105 -76 737 -75.1046 737 -74V98C737 99.1046 736.105 100 735 100H-160C-161.105 100 -162 99.1046 -162 98V-74Z" fill="none"/>
<path d="M-160 -75H735V-77H-160V-75ZM736 -74V98H738V-74H736ZM735 99H-160V101H735V99ZM-161 98V-74H-163V98H-161ZM-160 99C-160.552 99 -161 98.5523 -161 98H-163C-163 99.6568 -161.657 101 -160 101V99ZM736 98C736 98.5523 735.552 99 735 99V101C736.657 101 738 99.6569 738 98H736ZM735 -75C735.552 -75 736 -74.5523 736 -74H738C738 -75.6568 736.657 -77 735 -77V-75ZM-160 -77C-161.657 -77 -163 -75.6569 -163 -74H-161C-161 -74.5523 -160.552 -75 -160 -75V-77Z" fill="currentColor" fill-opacity="0.1"/>
<rect x="-3.5" y="-51.5" width="27" height="75" rx="4.5" stroke="#9747FF" stroke-dasharray="10 5"/>
<path d="M5.625 9.99878C5.625 10.4474 5.78064 10.8228 6.16516 11.189L13.0865 17.973C13.3612 18.2477 13.7 18.385 14.1028 18.385C14.9084 18.385 15.5676 17.735 15.5676 16.9293C15.5676 16.5173 15.4028 16.1511 15.1007 15.849L9.06738 9.98962L15.1007 4.1394C15.4028 3.84644 15.5676 3.47107 15.5676 3.06824C15.5676 2.27173 14.9084 1.61255 14.1028 1.61255C13.7 1.61255 13.3612 1.74988 13.0865 2.02454L6.16516 8.80859C5.78979 9.16565 5.625 9.54102 5.625 9.99878Z" fill="currentColor"/>
</svg>
