<svg viewBox="0 0 20 20" fill="none" xmlns="http://www.w3.org/2000/svg">
<rect width="20" height="20" fill="none"/>
<path d="M-228 -50C-228 -51.1046 -227.105 -52 -226 -52H669C670.105 -52 671 -51.1046 671 -50V122C671 123.105 670.105 124 669 124H-226C-227.105 124 -228 123.105 -228 122V-50Z" fill="none"/>
<path d="M-226 -51H669V-53H-226V-51ZM670 -50V122H672V-50H670ZM669 123H-226V125H669V123ZM-227 122V-50H-229V122H-227ZM-226 123C-226.552 123 -227 122.552 -227 122H-229C-229 123.657 -227.657 125 -226 125V123ZM670 122C670 122.552 669.552 123 669 123V125C670.657 125 672 123.657 672 122H670ZM669 -51C669.552 -51 670 -50.5523 670 -50H672C672 -51.6568 670.657 -53 669 -53V-51ZM-226 -53C-227.657 -53 -229 -51.6569 -229 -50H-227C-227 -50.5523 -226.552 -51 -226 -51V-53Z" fill="currentColor" fill-opacity="0.1"/>
<rect x="-3.5" y="-27.5" width="27" height="75" rx="4.5" stroke="#9747FF" stroke-dasharray="10 5"/>
<path d="M9.99756 14.7831C9.68628 14.7831 9.42078 14.6732 9.18274 14.426L2.19727 7.28491C1.99585 7.0835 1.89514 6.8363 1.89514 6.54333C1.89514 5.94824 2.35291 5.47217 2.95715 5.47217C3.25012 5.47217 3.51562 5.60034 3.71704 5.7926L9.99756 12.2379L16.2781 5.7926C16.4886 5.59119 16.7542 5.47217 17.0471 5.47217C17.6422 5.47217 18.1 5.94824 18.1 6.54333C18.1 6.8363 17.9993 7.0835 17.7979 7.28491L10.8124 14.426C10.5743 14.6641 10.3088 14.7831 9.99756 14.7831Z" fill="currentColor"/>
</svg>
