<svg viewBox="0 0 20 20" fill="none" xmlns="http://www.w3.org/2000/svg">
<rect width="20" height="20" fill="none"/>
<path d="M-294 -74C-294 -75.1046 -293.105 -76 -292 -76H603C604.105 -76 605 -75.1046 605 -74V98C605 99.1046 604.105 100 603 100H-292C-293.105 100 -294 99.1046 -294 98V-74Z" fill="none"/>
<path d="M-292 -75H603V-77H-292V-75ZM604 -74V98H606V-74H604ZM603 99H-292V101H603V99ZM-293 98V-74H-295V98H-293ZM-292 99C-292.552 99 -293 98.5523 -293 98H-295C-295 99.6568 -293.657 101 -292 101V99ZM604 98C604 98.5523 603.552 99 603 99V101C604.657 101 606 99.6569 606 98H604ZM603 -75C603.552 -75 604 -74.5523 604 -74H606C606 -75.6568 604.657 -77 603 -77V-75ZM-292 -77C-293.657 -77 -295 -75.6569 -295 -74H-293C-293 -74.5523 -292.552 -75 -292 -75V-77Z" fill="currentColor" fill-opacity="0.1"/>
<rect x="-3.5" y="-51.5" width="27" height="75" rx="4.5" stroke="#9747FF" stroke-dasharray="10 5"/>
<path d="M3.36386 16.6298C2.87307 16.1475 2.89 15.2928 3.34693 14.8359L8.18706 9.99577L3.34693 5.17258C2.89 4.70718 2.87307 3.86101 3.36386 3.37023C3.85464 2.87099 4.70927 2.88791 5.16621 3.35331L9.99787 8.18496L14.8295 3.35331C15.3034 2.87945 16.1326 2.87945 16.6234 3.37023C17.1227 3.86101 17.1227 4.69026 16.6403 5.17258L11.8171 9.99577L16.6403 14.8274C17.1227 15.3097 17.1142 16.1305 16.6234 16.6298C16.1411 17.1206 15.3034 17.1206 14.8295 16.6467L9.99787 11.815L5.16621 16.6467C4.70927 17.1121 3.8631 17.1206 3.36386 16.6298Z" fill="currentColor"/>
</svg>
