<svg viewBox="0 0 20 20" fill="none" xmlns="http://www.w3.org/2000/svg">
<rect width="20" height="20" fill="none"/>
<path d="M-498 -74C-498 -75.1046 -497.105 -76 -496 -76H399C400.105 -76 401 -75.1046 401 -74V98C401 99.1046 400.105 100 399 100H-496C-497.105 100 -498 99.1046 -498 98V-74Z" fill="none"/>
<path d="M-496 -75H399V-77H-496V-75ZM400 -74V98H402V-74H400ZM399 99H-496V101H399V99ZM-497 98V-74H-499V98H-497ZM-496 99C-496.552 99 -497 98.5523 -497 98H-499C-499 99.6568 -497.657 101 -496 101V99ZM400 98C400 98.5523 399.552 99 399 99V101C400.657 101 402 99.6569 402 98H400ZM399 -75C399.552 -75 400 -74.5523 400 -74H402C402 -75.6568 400.657 -77 399 -77V-75ZM-496 -77C-497.657 -77 -499 -75.6569 -499 -74H-497C-497 -74.5523 -496.552 -75 -496 -75V-77Z" fill="currentColor" fill-opacity="0.1"/>
<rect x="-3.5" y="-51.5" width="27" height="75" rx="4.5" stroke="#9747FF" stroke-dasharray="10 5"/>
<path d="M9.48051 15.5352C9.13835 15.5352 8.86462 15.4009 8.53491 15.0957L5.96559 12.7214C5.92826 12.6909 5.88472 12.6726 5.82873 12.6726H4.0806C3.12255 12.6726 2.59998 12.1477 2.59998 11.1528V8.89453C2.59998 7.89966 3.12255 7.36865 4.0806 7.36865H5.82873C5.88472 7.36865 5.92826 7.35034 5.96559 7.31982L8.53491 4.96387C8.89573 4.63428 9.13835 4.5 9.47429 4.5C9.98442 4.5 10.3577 4.89062 10.3577 5.38501V14.6746C10.3577 15.1689 9.98442 15.5352 9.48051 15.5352ZM15.1915 14.4609C14.8493 14.2595 14.812 13.8445 15.0484 13.4783C15.6892 12.52 16.0687 11.2932 16.0687 10.0115C16.0687 8.72974 15.7016 7.49683 15.0484 6.53857C14.8058 6.17236 14.8493 5.76343 15.1915 5.56201C15.5088 5.3667 15.8945 5.43994 16.1122 5.75732C16.9334 6.90479 17.4 8.43677 17.4 10.0115C17.4 11.5862 16.9272 13.106 16.1122 14.2656C15.8945 14.5769 15.5088 14.6501 15.1915 14.4609ZM12.5724 12.8008C12.2365 12.5872 12.168 12.1904 12.4355 11.7754C12.7653 11.2993 12.9519 10.6707 12.9519 10.0115C12.9519 9.35229 12.7715 8.71753 12.4355 8.24146C12.1618 7.83252 12.2365 7.43579 12.5724 7.22217C12.871 7.03296 13.2567 7.1001 13.4682 7.38696C13.9784 8.07666 14.2894 9.02271 14.2894 10.0115C14.2894 11.0002 13.9784 11.9463 13.4682 12.636C13.2567 12.9229 12.871 12.99 12.5724 12.8008Z" fill="currentColor"/>
</svg>
