<svg viewBox="0 0 20 20" fill="none" xmlns="http://www.w3.org/2000/svg">
<rect width="20" height="20" fill="none"/>
<path d="M-498 -50C-498 -51.1046 -497.105 -52 -496 -52H399C400.105 -52 401 -51.1046 401 -50V122C401 123.105 400.105 124 399 124H-496C-497.105 124 -498 123.105 -498 122V-50Z" fill="none"/>
<path d="M-496 -51H399V-53H-496V-51ZM400 -50V122H402V-50H400ZM399 123H-496V125H399V123ZM-497 122V-50H-499V122H-497ZM-496 123C-496.552 123 -497 122.552 -497 122H-499C-499 123.657 -497.657 125 -496 125V123ZM400 122C400 122.552 399.552 123 399 123V125C400.657 125 402 123.657 402 122H400ZM399 -51C399.552 -51 400 -50.5523 400 -50H402C402 -51.6568 400.657 -53 399 -53V-51ZM-496 -53C-497.657 -53 -499 -51.6569 -499 -50H-497C-497 -50.5523 -496.552 -51 -496 -51V-53Z" fill="currentColor" fill-opacity="0.1"/>
<rect x="-3.5" y="-27.5" width="27" height="75" rx="4.5" stroke="#9747FF" stroke-dasharray="10 5"/>
<path d="M9.60506 15.528C9.2816 15.528 9.02035 15.4036 8.70934 15.105L6.10925 12.648C6.07193 12.6107 6.02217 12.5983 5.96618 12.5983H4.19962C3.29145 12.5983 2.80005 12.0882 2.80005 11.1303V8.81632C2.80005 7.85217 3.29145 7.34833 4.19962 7.34833H5.96618C6.02217 7.34833 6.07193 7.32966 6.10925 7.29856L8.70934 4.85398C9.05767 4.53675 9.27538 4.3999 9.59262 4.3999C10.0654 4.3999 10.4013 4.77312 10.4013 5.23342V14.7318C10.4013 15.1921 10.0654 15.528 9.60506 15.528ZM15.1038 14.3835C14.8115 14.1969 14.7741 13.8361 14.9856 13.5126C15.6388 12.5361 16.0306 11.2733 16.0306 9.96085C16.0306 8.64215 15.6512 7.37943 14.9856 6.40906C14.7679 6.0856 14.8115 5.72483 15.1038 5.53822C15.3837 5.35783 15.7258 5.42625 15.9187 5.71239C16.7335 6.84448 17.2 8.38712 17.2 9.96085C17.2 11.5346 16.7335 13.0648 15.9187 14.2093C15.7258 14.4955 15.3837 14.5577 15.1038 14.3835ZM12.6219 12.7227C12.3233 12.5174 12.2673 12.1628 12.5037 11.8083C12.8458 11.3107 13.0449 10.6513 13.0449 9.96085C13.0449 9.26418 12.8521 8.60483 12.5037 8.11342C12.2673 7.76509 12.3233 7.40431 12.6219 7.20526C12.8832 7.02487 13.2315 7.08707 13.4181 7.35455C13.9157 8.03256 14.2143 8.97805 14.2143 9.96085C14.2143 10.9437 13.9157 11.8954 13.4181 12.5609C13.2315 12.8346 12.8832 12.8906 12.6219 12.7227Z" fill="currentColor"/>
</svg>
