<svg viewBox="0 0 20 20" fill="none" xmlns="http://www.w3.org/2000/svg">
<rect width="20" height="20" fill="none"/>
<path d="M-30 -26C-30 -27.1046 -29.1046 -28 -28 -28H867C868.105 -28 869 -27.1046 869 -26V146C869 147.105 868.105 148 867 148H-28C-29.1046 148 -30 147.105 -30 146V-26Z" fill="none"/>
<path d="M-28 -27H867V-29H-28V-27ZM868 -26V146H870V-26H868ZM867 147H-28V149H867V147ZM-29 146V-26H-31V146H-29ZM-28 147C-28.5523 147 -29 146.552 -29 146H-31C-31 147.657 -29.6569 149 -28 149V147ZM868 146C868 146.552 867.552 147 867 147V149C868.657 149 870 147.657 870 146H868ZM867 -27C867.552 -27 868 -26.5523 868 -26H870C870 -27.6568 868.657 -29 867 -29V-27ZM-28 -29C-29.6569 -29 -31 -27.6569 -31 -26H-29C-29 -26.5523 -28.5523 -27 -28 -27V-29Z" fill="currentColor" fill-opacity="0.1"/>
<rect x="-3.5" y="-3.5" width="27" height="75" rx="4.5" stroke="#9747FF" stroke-dasharray="10 5"/>
<path d="M1.5 10.0022C1.5 10.2311 1.59155 10.4417 1.77466 10.6156L7.86292 16.6855C8.04602 16.8595 8.23828 16.9419 8.45801 16.9419C8.90662 16.9419 9.25452 16.6123 9.25452 16.1545C9.25452 15.9348 9.18127 15.7151 9.03479 15.5778L6.98401 13.4904L3.89868 10.6797L6.11426 10.817H17.6957C18.1718 10.817 18.5013 10.4783 18.5013 10.0022C18.5013 9.52612 18.1718 9.18738 17.6957 9.18738H6.11426L3.90784 9.32471L6.98401 6.51404L9.03479 4.42664C9.18127 4.28015 9.25452 4.06958 9.25452 3.84985C9.25452 3.39209 8.90662 3.0625 8.45801 3.0625C8.23828 3.0625 8.04602 3.13574 7.8446 3.33716L1.77466 9.38879C1.59155 9.56274 1.5 9.77332 1.5 10.0022Z" fill="currentColor"/>
</svg>
