<svg viewBox="0 0 20 20" fill="none" xmlns="http://www.w3.org/2000/svg">
<rect width="20" height="20" fill="none"/>
<path d="M-327 -50C-327 -51.1046 -326.105 -52 -325 -52H570C571.105 -52 572 -51.1046 572 -50V122C572 123.105 571.105 124 570 124H-325C-326.105 124 -327 123.105 -327 122V-50Z" fill="none"/>
<path d="M-325 -51H570V-53H-325V-51ZM571 -50V122H573V-50H571ZM570 123H-325V125H570V123ZM-326 122V-50H-328V122H-326ZM-325 123C-325.552 123 -326 122.552 -326 122H-328C-328 123.657 -326.657 125 -325 125V123ZM571 122C571 122.552 570.552 123 570 123V125C571.657 125 573 123.657 573 122H571ZM570 -51C570.552 -51 571 -50.5523 571 -50H573C573 -51.6568 571.657 -53 570 -53V-51ZM-325 -53C-326.657 -53 -328 -51.6569 -328 -50H-326C-326 -50.5523 -325.552 -51 -325 -51V-53Z" fill="currentColor" fill-opacity="0.1"/>
<rect x="-3.5" y="-27.5" width="27" height="75" rx="4.5" stroke="#9747FF" stroke-dasharray="10 5"/>
<path d="M3.24219 15.0537C1.76562 15.0537 1 14.2949 1 12.832V6.22168C1 4.75879 1.76562 4 3.24219 4H16.1689C17.6387 4 18.4043 4.75879 18.4043 6.22168V12.832C18.4043 14.2949 17.6387 15.0537 16.1689 15.0537H3.24219ZM3.32422 13.7139H16.0869C16.7158 13.7139 17.0713 13.3857 17.0713 12.7158V6.33105C17.0713 5.66797 16.7158 5.33984 16.0869 5.33984H3.32422C2.68848 5.33984 2.33984 5.66797 2.33984 6.33105V12.7158C2.33984 13.3857 2.68848 13.7139 3.32422 13.7139ZM3.97363 7.97852C3.77539 7.97852 3.65234 7.8623 3.65234 7.66406V7.03516C3.65234 6.83691 3.77539 6.71387 3.97363 6.71387H4.60254C4.80078 6.71387 4.92383 6.83691 4.92383 7.03516V7.66406C4.92383 7.8623 4.80078 7.97852 4.60254 7.97852H3.97363ZM6.13379 7.97852C5.93555 7.97852 5.81934 7.8623 5.81934 7.66406V7.03516C5.81934 6.83691 5.93555 6.71387 6.13379 6.71387H6.7627C6.96094 6.71387 7.08398 6.83691 7.08398 7.03516V7.66406C7.08398 7.8623 6.96094 7.97852 6.7627 7.97852H6.13379ZM8.30078 7.97852C8.0957 7.97852 7.97949 7.8623 7.97949 7.66406V7.03516C7.97949 6.83691 8.0957 6.71387 8.30078 6.71387H8.92285C9.12109 6.71387 9.24414 6.83691 9.24414 7.03516V7.66406C9.24414 7.8623 9.12109 7.97852 8.92285 7.97852H8.30078ZM10.4609 7.97852C10.2627 7.97852 10.1396 7.8623 10.1396 7.66406V7.03516C10.1396 6.83691 10.2627 6.71387 10.4609 6.71387H11.0898C11.2881 6.71387 11.4043 6.83691 11.4043 7.03516V7.66406C11.4043 7.8623 11.2881 7.97852 11.0898 7.97852H10.4609ZM12.6348 7.97852C12.4297 7.97852 12.2998 7.8623 12.2998 7.66406V7.03516C12.2998 6.83691 12.4297 6.71387 12.6348 6.71387H13.25C13.4482 6.71387 13.5645 6.83691 13.5645 7.03516V7.66406C13.5645 7.8623 13.4482 7.97852 13.25 7.97852H12.6348ZM14.7812 7.97852C14.583 7.97852 14.46 7.8623 14.46 7.66406V7.03516C14.46 6.83691 14.583 6.71387 14.7812 6.71387H15.4102C15.6084 6.71387 15.7314 6.83691 15.7314 7.03516V7.66406C15.7314 7.8623 15.6084 7.97852 15.4102 7.97852H14.7812ZM3.97363 10.1592C3.77539 10.1592 3.65234 10.0361 3.65234 9.83789V9.20898C3.65234 9.01074 3.77539 8.8877 3.97363 8.8877H4.60254C4.80078 8.8877 4.92383 9.01074 4.92383 9.20898V9.83789C4.92383 10.0361 4.80078 10.1592 4.60254 10.1592H3.97363ZM6.13379 10.1592C5.93555 10.1592 5.81934 10.0361 5.81934 9.83789V9.20898C5.81934 9.01074 5.93555 8.8877 6.13379 8.8877H6.7627C6.96094 8.8877 7.08398 9.01074 7.08398 9.20898V9.83789C7.08398 10.0361 6.96094 10.1592 6.7627 10.1592H6.13379ZM8.30078 10.1592C8.0957 10.1592 7.97949 10.0361 7.97949 9.83789V9.20898C7.97949 9.01074 8.0957 8.8877 8.30078 8.8877H8.92285C9.12109 8.8877 9.24414 9.01074 9.24414 9.20898V9.83789C9.24414 10.0361 9.12109 10.1592 8.92285 10.1592H8.30078ZM10.4609 10.1592C10.2627 10.1592 10.1396 10.0361 10.1396 9.83789V9.20898C10.1396 9.01074 10.2627 8.8877 10.4609 8.8877H11.0898C11.2881 8.8877 11.4043 9.01074 11.4043 9.20898V9.83789C11.4043 10.0361 11.2881 10.1592 11.0898 10.1592H10.4609ZM12.6348 10.1592C12.4297 10.1592 12.2998 10.0361 12.2998 9.83789V9.20898C12.2998 9.01074 12.4297 8.8877 12.6348 8.8877H13.25C13.4482 8.8877 13.5645 9.01074 13.5645 9.20898V9.83789C13.5645 10.0361 13.4482 10.1592 13.25 10.1592H12.6348ZM14.7812 10.1592C14.583 10.1592 14.46 10.0361 14.46 9.83789V9.20898C14.46 9.01074 14.583 8.8877 14.7812 8.8877H15.4102C15.6084 8.8877 15.7314 9.01074 15.7314 9.20898V9.83789C15.7314 10.0361 15.6084 10.1592 15.4102 10.1592H14.7812ZM3.97363 12.333C3.77539 12.333 3.65234 12.21 3.65234 12.0117V11.3828C3.65234 11.1846 3.77539 11.0615 3.97363 11.0615H4.60254C4.80078 11.0615 4.92383 11.1846 4.92383 11.3828V12.0117C4.92383 12.21 4.80078 12.333 4.60254 12.333H3.97363ZM6.19531 12.333C5.95605 12.333 5.81934 12.1963 5.81934 11.957V11.4443C5.81934 11.2051 5.95605 11.0615 6.19531 11.0615H13.1885C13.4277 11.0615 13.5645 11.2051 13.5645 11.4443V11.957C13.5645 12.1963 13.4277 12.333 13.1885 12.333H6.19531ZM14.7812 12.333C14.583 12.333 14.46 12.21 14.46 12.0117V11.3828C14.46 11.1846 14.583 11.0615 14.7812 11.0615H15.4102C15.6084 11.0615 15.7314 11.1846 15.7314 11.3828V12.0117C15.7314 12.21 15.6084 12.333 15.4102 12.333H14.7812Z" fill="currentColor"/>
</svg>
