<svg viewBox="0 0 20 20" fill="none" xmlns="http://www.w3.org/2000/svg">
<rect width="20" height="20" fill="none"/>
<path d="M-261 -74C-261 -75.1046 -260.105 -76 -259 -76H636C637.105 -76 638 -75.1046 638 -74V98C638 99.1046 637.105 100 636 100H-259C-260.105 100 -261 99.1046 -261 98V-74Z" fill="none"/>
<path d="M-259 -75H636V-77H-259V-75ZM637 -74V98H639V-74H637ZM636 99H-259V101H636V99ZM-260 98V-74H-262V98H-260ZM-259 99C-259.552 99 -260 98.5523 -260 98H-262C-262 99.6568 -260.657 101 -259 101V99ZM637 98C637 98.5523 636.552 99 636 99V101C637.657 101 639 99.6569 639 98H637ZM636 -75C636.552 -75 637 -74.5523 637 -74H639C639 -75.6568 637.657 -77 636 -77V-75ZM-259 -77C-260.657 -77 -262 -75.6569 -262 -74H-260C-260 -74.5523 -259.552 -75 -259 -75V-77Z" fill="currentColor" fill-opacity="0.1"/>
<rect x="-3.5" y="-51.5" width="27" height="75" rx="4.5" stroke="#9747FF" stroke-dasharray="10 5"/>
<path d="M10.0138 5.02759C9.56519 5.02759 9.18982 5.18323 8.82361 5.56775L2.03955 12.4891C1.76489 12.7638 1.62756 13.1025 1.62756 13.5054C1.62756 14.311 2.27759 14.9702 3.08325 14.9702C3.49524 14.9702 3.86145 14.8054 4.16357 14.5033L10.0229 8.46997L15.8732 14.5033C16.1661 14.8054 16.5415 14.9702 16.9443 14.9702C17.7408 14.9702 18.4 14.311 18.4 13.5054C18.4 13.1025 18.2627 12.7638 17.988 12.4891L11.204 5.56775C10.8469 5.19238 10.4716 5.02759 10.0138 5.02759Z" fill="currentColor"/>
</svg>
