<svg viewBox="0 0 20 20" fill="none" xmlns="http://www.w3.org/2000/svg">
<rect width="20" height="20" fill="none"/>
<path d="M-360 -26C-360 -27.1046 -359.105 -28 -358 -28H537C538.105 -28 539 -27.1046 539 -26V146C539 147.105 538.105 148 537 148H-358C-359.105 148 -360 147.105 -360 146V-26Z" fill="none"/>
<path d="M-358 -27H537V-29H-358V-27ZM538 -26V146H540V-26H538ZM537 147H-358V149H537V147ZM-359 146V-26H-361V146H-359ZM-358 147C-358.552 147 -359 146.552 -359 146H-361C-361 147.657 -359.657 149 -358 149V147ZM538 146C538 146.552 537.552 147 537 147V149C538.657 149 540 147.657 540 146H538ZM537 -27C537.552 -27 538 -26.5523 538 -26H540C540 -27.6568 538.657 -29 537 -29V-27ZM-358 -29C-359.657 -29 -361 -27.6569 -361 -26H-359C-359 -26.5523 -358.552 -27 -358 -27V-29Z" fill="currentColor" fill-opacity="0.1"/>
<rect x="-3.5" y="-3.5" width="27" height="75" rx="4.5" stroke="#9747FF" stroke-dasharray="10 5"/>
<path d="M7.40625 9.97949V5.67969C7.40625 4.10059 8.41797 3 9.89453 3C11.3643 3 12.376 4.10059 12.376 5.67969V9.97949C12.376 11.5518 11.3643 12.6592 9.89453 12.6592C8.41797 12.6592 7.40625 11.5518 7.40625 9.97949ZM8.43848 9.97949C8.43848 10.9912 9.01953 11.6406 9.89453 11.6406C10.7695 11.6406 11.3438 10.9912 11.3438 9.97949V5.67969C11.3438 4.66797 10.7695 4.01855 9.89453 4.01855C9.01953 4.01855 8.43848 4.66797 8.43848 5.67969V9.97949ZM5 10.2256V8.83789C5 8.55078 5.22559 8.3252 5.5127 8.3252C5.80664 8.3252 6.03223 8.55078 6.03223 8.83789V10.1846C6.03223 12.5156 7.5498 14.0605 9.89453 14.0605C12.2324 14.0605 13.75 12.5156 13.75 10.1846V8.83789C13.75 8.55078 13.9824 8.3252 14.2695 8.3252C14.5566 8.3252 14.7822 8.55078 14.7822 8.83789V10.2256C14.7822 12.9053 13.0186 14.7852 10.4072 15.0039V16.5967H12.9434C13.2305 16.5967 13.4629 16.8291 13.4629 17.1162C13.4629 17.4033 13.2305 17.6289 12.9434 17.6289H6.83887C6.55176 17.6289 6.31934 17.4033 6.31934 17.1162C6.31934 16.8291 6.55176 16.5967 6.83887 16.5967H9.375V15.0039C6.77051 14.7852 5 12.9053 5 10.2256Z" fill="currentColor"/>
</svg>
