<svg viewBox="0 0 20 20" fill="none" xmlns="http://www.w3.org/2000/svg">
<rect width="20" height="20" fill="none"/>
<path d="M-195 -74C-195 -75.1046 -194.105 -76 -193 -76H702C703.105 -76 704 -75.1046 704 -74V98C704 99.1046 703.105 100 702 100H-193C-194.105 100 -195 99.1046 -195 98V-74Z" fill="none"/>
<path d="M-193 -75H702V-77H-193V-75ZM703 -74V98H705V-74H703ZM702 99H-193V101H702V99ZM-194 98V-74H-196V98H-194ZM-193 99C-193.552 99 -194 98.5523 -194 98H-196C-196 99.6568 -194.657 101 -193 101V99ZM703 98C703 98.5523 702.552 99 702 99V101C703.657 101 705 99.6569 705 98H703ZM702 -75C702.552 -75 703 -74.5523 703 -74H705C705 -75.6568 703.657 -77 702 -77V-75ZM-193 -77C-194.657 -77 -196 -75.6569 -196 -74H-194C-194 -74.5523 -193.552 -75 -193 -75V-77Z" fill="currentColor" fill-opacity="0.1"/>
<rect x="-3.5" y="-51.5" width="27" height="75" rx="4.5" stroke="#9747FF" stroke-dasharray="10 5"/>
<path d="M15.5676 9.99878C15.5676 10.4474 15.412 10.8228 15.0275 11.189L8.10608 17.973C7.83142 18.2477 7.49268 18.385 7.08984 18.385C6.28418 18.385 5.625 17.735 5.625 16.9293C5.625 16.5173 5.78979 16.1511 6.09192 15.849L12.1252 9.98962L6.09192 4.1394C5.78979 3.84644 5.625 3.47107 5.625 3.06824C5.625 2.27173 6.28418 1.61255 7.08984 1.61255C7.49268 1.61255 7.83142 1.74988 8.10608 2.02454L15.0275 8.80859C15.4028 9.16565 15.5676 9.54102 15.5676 9.99878Z" fill="currentColor"/>
</svg>
