<svg viewBox="0 0 20 20" fill="none" xmlns="http://www.w3.org/2000/svg">
<rect width="20" height="20" fill="none"/>
<path d="M-96 -50C-96 -51.1046 -95.1046 -52 -94 -52H801C802.105 -52 803 -51.1046 803 -50V122C803 123.105 802.105 124 801 124H-94C-95.1046 124 -96 123.105 -96 122V-50Z" fill="none"/>
<path d="M-94 -51H801V-53H-94V-51ZM802 -50V122H804V-50H802ZM801 123H-94V125H801V123ZM-95 122V-50H-97V122H-95ZM-94 123C-94.5523 123 -95 122.552 -95 122H-97C-97 123.657 -95.6569 125 -94 125V123ZM802 122C802 122.552 801.552 123 801 123V125C802.657 125 804 123.657 804 122H802ZM801 -51C801.552 -51 802 -50.5523 802 -50H804C804 -51.6568 802.657 -53 801 -53V-51ZM-94 -53C-95.6569 -53 -97 -51.6569 -97 -50H-95C-95 -50.5523 -94.5523 -51 -94 -51V-53Z" fill="currentColor" fill-opacity="0.1"/>
<rect x="-3.5" y="-27.5" width="27" height="75" rx="4.5" stroke="#9747FF" stroke-dasharray="10 5"/>
<path d="M10.0046 1.23901C10.3159 1.23901 10.6272 1.36719 10.8469 1.59607L16.8528 7.60193C17.0908 7.84912 17.2007 8.12378 17.2007 8.40759C17.2007 9.06677 16.7338 9.53369 16.1204 9.53369C15.7816 9.53369 15.507 9.39636 15.3055 9.18579L13.2364 7.13501L11.03 4.71802L11.149 6.79626L11.149 17.5903C11.149 18.2861 10.6821 18.7622 10.0046 18.7622C9.32715 18.7622 8.86023 18.2861 8.86023 17.5903L8.86023 6.79626L8.97925 4.72717L6.77283 7.13501L4.70373 9.18579C4.49316 9.39636 4.21851 9.53369 3.88892 9.53369C3.26636 9.53369 2.79944 9.06677 2.79944 8.40759C2.79944 8.12378 2.91846 7.84912 3.1748 7.59277L9.16235 1.59607C9.38208 1.36719 9.69336 1.23901 10.0046 1.23901Z" fill="currentColor"/>
</svg>
