<svg viewBox="0 0 20 20" fill="currentColor" xmlns="http://www.w3.org/2000/svg">
<path d="M18.5013 10.0022C18.5013 10.2311 18.4098 10.4417 18.2267 10.6156L12.1384 16.6855C11.9553 16.8595 11.7631 16.9419 11.5433 16.9419C11.0947 16.9419 10.7468 16.6123 10.7468 16.1545C10.7468 15.9348 10.8201 15.7151 10.9666 15.5778L13.0173 13.4904L16.1027 10.6797L13.8871 10.817H2.30566C1.82959 10.817 1.5 10.4783 1.5 10.0022C1.5 9.52612 1.82959 9.18738 2.30566 9.18738H13.8871L16.0935 9.32471L13.0173 6.51404L10.9666 4.42664C10.8201 4.28015 10.7468 4.06958 10.7468 3.84985C10.7468 3.39209 11.0947 3.0625 11.5433 3.0625C11.7631 3.0625 11.9553 3.13574 12.1567 3.33716L18.2267 9.38879C18.4098 9.56274 18.5013 9.77332 18.5013 10.0022Z" fill="currentColor"/>
</svg>
