<svg viewBox="0 0 20 20" fill="none" xmlns="http://www.w3.org/2000/svg">
<rect width="20" height="20" fill="none"/>
<path d="M-360 -74C-360 -75.1046 -359.105 -76 -358 -76H537C538.105 -76 539 -75.1046 539 -74V98C539 99.1046 538.105 100 537 100H-358C-359.105 100 -360 99.1046 -360 98V-74Z" fill="none"/>
<path d="M-358 -75H537V-77H-358V-75ZM538 -74V98H540V-74H538ZM537 99H-358V101H537V99ZM-359 98V-74H-361V98H-359ZM-358 99C-358.552 99 -359 98.5523 -359 98H-361C-361 99.6568 -359.657 101 -358 101V99ZM538 98C538 98.5523 537.552 99 537 99V101C538.657 101 540 99.6569 540 98H538ZM537 -75C537.552 -75 538 -74.5523 538 -74H540C540 -75.6568 538.657 -77 537 -77V-75ZM-358 -77C-359.657 -77 -361 -75.6569 -361 -74H-359C-359 -74.5523 -358.552 -75 -358 -75V-77Z" fill="currentColor" fill-opacity="0.1"/>
<rect x="-3.5" y="-51.5" width="27" height="75" rx="4.5" stroke="#9747FF" stroke-dasharray="10 5"/>
<path d="M7.71387 9.10938V4.88477C7.71387 3.18945 8.8418 2 10.4277 2C12.0068 2 13.1348 3.18945 13.1348 4.88477V9.10938C13.1348 10.8115 12.0068 11.9941 10.4277 11.9941C8.8418 11.9941 7.71387 10.8115 7.71387 9.10938ZM9.21094 9.15039C9.21094 9.99121 9.66895 10.5859 10.4277 10.5859C11.1797 10.5859 11.6445 9.99121 11.6445 9.15039V4.84375C11.6445 4.00293 11.1797 3.4082 10.4277 3.4082C9.66895 3.4082 9.21094 4.00977 9.21094 4.84375V9.15039ZM5 9.45117V8.125C5 7.72168 5.33496 7.40723 5.74512 7.40723C6.14844 7.40723 6.49023 7.72168 6.49023 8.125V9.40332C6.49023 11.7275 8.10352 13.2588 10.4277 13.2588C12.7451 13.2588 14.3652 11.7275 14.3652 9.40332V8.125C14.3652 7.72168 14.7002 7.40723 15.1104 7.40723C15.5205 7.40723 15.8486 7.72168 15.8486 8.125V9.45117C15.8486 12.3701 13.9004 14.332 11.1318 14.6191V15.877H13.627C14.0303 15.877 14.3721 16.2051 14.3721 16.6084C14.3721 17.0117 14.0303 17.3467 13.627 17.3467H7.22852C6.81836 17.3467 6.4834 17.0117 6.4834 16.6084C6.4834 16.2051 6.81836 15.877 7.22852 15.877H9.7168V14.6191C6.95508 14.332 5 12.3701 5 9.45117Z" fill="currentColor"/>
</svg>
