<svg viewBox="0 0 20 20" fill="none" xmlns="http://www.w3.org/2000/svg">
<rect width="20" height="20" fill="none"/>
<path d="M-162 -26C-162 -27.1046 -161.105 -28 -160 -28H735C736.105 -28 737 -27.1046 737 -26V146C737 147.105 736.105 148 735 148H-160C-161.105 148 -162 147.105 -162 146V-26Z" fill="none"/>
<path d="M-160 -27H735V-29H-160V-27ZM736 -26V146H738V-26H736ZM735 147H-160V149H735V147ZM-161 146V-26H-163V146H-161ZM-160 147C-160.552 147 -161 146.552 -161 146H-163C-163 147.657 -161.657 149 -160 149V147ZM736 146C736 146.552 735.552 147 735 147V149C736.657 149 738 147.657 738 146H736ZM735 -27C735.552 -27 736 -26.5523 736 -26H738C738 -27.6568 736.657 -29 735 -29V-27ZM-160 -29C-161.657 -29 -163 -27.6569 -163 -26H-161C-161 -26.5523 -160.552 -27 -160 -27V-29Z" fill="currentColor" fill-opacity="0.1"/>
<rect x="-3.5" y="-3.5" width="27" height="75" rx="4.5" stroke="#9747FF" stroke-dasharray="10 5"/>
<path d="M5.5 10.0093C5.5 10.2382 5.59155 10.4396 5.7655 10.6135L13.0165 17.7089C13.1813 17.8737 13.3827 17.9561 13.6207 17.9561C14.0876 17.9561 14.4539 17.599 14.4539 17.1229C14.4539 16.8849 14.3623 16.6835 14.2158 16.5278L7.55078 10.0093L14.2158 3.49072C14.3623 3.33508 14.4539 3.12451 14.4539 2.89563C14.4539 2.41956 14.0876 2.0625 13.6207 2.0625C13.3827 2.0625 13.1813 2.1449 13.0165 2.30054L5.7655 9.40503C5.59155 9.56982 5.5 9.7804 5.5 10.0093Z" fill="currentColor"/>
</svg>
