<svg viewBox="0 0 20 20" fill="none" xmlns="http://www.w3.org/2000/svg">
<rect width="20" height="20" fill="none"/>
<path d="M-96 -74C-96 -75.1046 -95.1046 -76 -94 -76H801C802.105 -76 803 -75.1046 803 -74V98C803 99.1046 802.105 100 801 100H-94C-95.1046 100 -96 99.1046 -96 98V-74Z" fill="none"/>
<path d="M-94 -75H801V-77H-94V-75ZM802 -74V98H804V-74H802ZM801 99H-94V101H801V99ZM-95 98V-74H-97V98H-95ZM-94 99C-94.5523 99 -95 98.5523 -95 98H-97C-97 99.6568 -95.6569 101 -94 101V99ZM802 98C802 98.5523 801.552 99 801 99V101C802.657 101 804 99.6569 804 98H802ZM801 -75C801.552 -75 802 -74.5523 802 -74H804C804 -75.6568 802.657 -77 801 -77V-75ZM-94 -77C-95.6569 -77 -97 -75.6569 -97 -74H-95C-95 -74.5523 -94.5523 -75 -94 -75V-77Z" fill="currentColor" fill-opacity="0.1"/>
<rect x="-3.5" y="-51.5" width="27" height="75" rx="4.5" stroke="#9747FF" stroke-dasharray="10 5"/>
<path d="M10 1.08435C10.3571 1.08435 10.7324 1.23999 10.9796 1.48718L16.9305 7.45642C17.2052 7.73108 17.3425 8.06067 17.3425 8.3811C17.3425 9.1593 16.8024 9.69031 16.0883 9.69031C15.6946 9.69031 15.3741 9.51636 15.1361 9.26916L13.0853 7.21838L11.2177 5.18591L11.3275 7.19092L11.3275 17.5364C11.3275 18.3604 10.7874 18.9097 10 18.9097C9.20349 18.9097 8.67249 18.3604 8.67249 17.5364L8.67248 7.19092L8.78235 5.19507L6.91467 7.21838L4.85474 9.26916C4.6167 9.51636 4.30542 9.69031 3.90259 9.69031C3.18848 9.69031 2.64832 9.1593 2.64831 8.3811C2.64831 8.06067 2.78564 7.73108 3.06946 7.44727L9.02038 1.48718C9.26758 1.23999 9.64294 1.08435 10 1.08435Z" fill="currentColor"/>
</svg>
