<svg viewBox="0 0 20 20" fill="none" xmlns="http://www.w3.org/2000/svg">
<rect width="20" height="20" fill="none"/>
<path d="M-463 -74C-463 -75.1046 -462.105 -76 -461 -76H434C435.105 -76 436 -75.1046 436 -74V98C436 99.1046 435.105 100 434 100H-461C-462.105 100 -463 99.1046 -463 98V-74Z" fill="none"/>
<path d="M-461 -75H434V-77H-461V-75ZM435 -74V98H437V-74H435ZM434 99H-461V101H434V99ZM-462 98V-74H-464V98H-462ZM-461 99C-461.552 99 -462 98.5523 -462 98H-464C-464 99.6568 -462.657 101 -461 101V99ZM435 98C435 98.5523 434.552 99 434 99V101C435.657 101 437 99.6569 437 98H435ZM434 -75C434.552 -75 435 -74.5523 435 -74H437C437 -75.6568 435.657 -77 434 -77V-75ZM-461 -77C-462.657 -77 -464 -75.6569 -464 -74H-462C-462 -74.5523 -461.552 -75 -461 -75V-77Z" fill="currentColor" fill-opacity="0.1"/>
<rect x="-3.5" y="-51.5" width="27" height="75" rx="4.5" stroke="#9747FF" stroke-dasharray="10 5"/>
<path d="M5.37299 4.98132C6.52875 3.77474 8.1862 3 10.0088 3C13.3935 3 16.194 5.5846 16.5877 8.79789H17.4895C18.0102 8.79789 18.1436 9.19796 17.8388 9.62343L16.2512 11.8334C16.0035 12.1763 15.6161 12.1763 15.3748 11.8334L13.7872 9.61708C13.4824 9.19796 13.6285 8.79789 14.1365 8.79789H15.1081C14.7398 6.3657 12.6251 4.45423 10.0088 4.45423C8.56722 4.45423 7.27175 5.05117 6.35094 6.00372C5.96992 6.34029 5.5508 6.29584 5.28408 6.01643C5.02372 5.74971 5.01736 5.30518 5.37299 4.98132ZM2.1597 9.61708L3.74729 7.41351C3.99496 7.07059 4.38233 7.07059 4.62999 7.41351L6.21123 9.62343C6.51605 10.0489 6.36999 10.4426 5.86196 10.4426H4.90306C5.27138 12.8748 7.38605 14.7863 10.0088 14.7863C11.4503 14.7863 12.7521 14.1893 13.6666 13.2304C14.0476 12.9002 14.4667 12.932 14.7334 13.2177C14.9874 13.4781 14.9938 13.929 14.6445 14.2592C13.4888 15.4658 11.8313 16.2469 10.0088 16.2469C6.61766 16.2469 3.81715 13.6559 3.42342 10.4426H2.50897C1.99459 10.4426 1.85488 10.0426 2.1597 9.61708Z" fill="currentColor"/>
</svg>
