<svg viewBox="0 0 20 20" fill="currentColor" xmlns="http://www.w3.org/2000/svg">
<path d="M18.7616 10.0052C18.7616 10.3165 18.6334 10.6278 18.4045 10.8475L12.3987 16.8534C12.1515 17.0914 11.8768 17.2013 11.593 17.2013C10.9338 17.2013 10.4669 16.7344 10.4669 16.121C10.4669 15.7822 10.6042 15.5076 10.8148 15.3062L12.8656 13.2371L15.2826 11.0306L13.2043 11.1497H2.41028C1.71448 11.1497 1.2384 10.6827 1.2384 10.0052C1.2384 9.32776 1.71448 8.86084 2.41028 8.86084H13.2043L15.2734 8.97986L12.8656 6.77344L10.8148 4.70435C10.6042 4.49377 10.4669 4.21912 10.4669 3.88953C10.4669 3.26697 10.9338 2.80005 11.593 2.80005C11.8768 2.80005 12.1515 2.91907 12.4078 3.17542L18.4045 9.16296C18.6334 9.38269 18.7616 9.69397 18.7616 10.0052Z" fill="currentColor"/>
</svg>
