<svg viewBox="0 0 20 20" fill="none" xmlns="http://www.w3.org/2000/svg">
<rect width="20" height="20" fill="none"/>
<path d="M-393 -50C-393 -51.1046 -392.105 -52 -391 -52H504C505.105 -52 506 -51.1046 506 -50V122C506 123.105 505.105 124 504 124H-391C-392.105 124 -393 123.105 -393 122V-50Z" fill="none"/>
<path d="M-391 -51H504V-53H-391V-51ZM505 -50V122H507V-50H505ZM504 123H-391V125H504V123ZM-392 122V-50H-394V122H-392ZM-391 123C-391.552 123 -392 122.552 -392 122H-394C-394 123.657 -392.657 125 -391 125V123ZM505 122C505 122.552 504.552 123 504 123V125C505.657 125 507 123.657 507 122H505ZM504 -51C504.552 -51 505 -50.5523 505 -50H507C507 -51.6568 505.657 -53 504 -53V-51ZM-391 -53C-392.657 -53 -394 -51.6569 -394 -50H-392C-392 -50.5523 -391.552 -51 -391 -51V-53Z" fill="currentColor" fill-opacity="0.1"/>
<rect x="-3.5" y="-27.5" width="27" height="75" rx="4.5" stroke="#9747FF" stroke-dasharray="10 5"/>
<path d="M4.15016 11.6004C3.24296 11.6004 2.5 10.8574 2.5 9.95021C2.5 9.03519 3.24296 8.30005 4.15016 8.30005C5.08863 8.30005 5.82377 9.02737 5.82377 9.95021C5.82377 10.8574 5.07299 11.6004 4.15016 11.6004ZM10 11.6004C9.08498 11.6004 8.34984 10.8574 8.34984 9.95021C8.34984 9.03519 9.08498 8.30005 10 8.30005C10.9228 8.30005 11.6423 9.02737 11.6423 9.95021C11.6423 10.8574 10.8994 11.6004 10 11.6004ZM15.842 11.6004C14.9192 11.6004 14.1762 10.8574 14.1762 9.95021C14.1762 9.03519 14.9192 8.30005 15.842 8.30005C16.7649 8.30005 17.5 9.02737 17.5 9.95021C17.5 10.8574 16.7492 11.6004 15.842 11.6004Z" fill="currentColor"/>
</svg>
