<svg viewBox="0 0 20 20" fill="none" xmlns="http://www.w3.org/2000/svg">
<rect width="20" height="20" fill="none"/>
<path d="M-294 -50C-294 -51.1046 -293.105 -52 -292 -52H603C604.105 -52 605 -51.1046 605 -50V122C605 123.105 604.105 124 603 124H-292C-293.105 124 -294 123.105 -294 122V-50Z" fill="none"/>
<path d="M-292 -51H603V-53H-292V-51ZM604 -50V122H606V-50H604ZM603 123H-292V125H603V123ZM-293 122V-50H-295V122H-293ZM-292 123C-292.552 123 -293 122.552 -293 122H-295C-295 123.657 -293.657 125 -292 125V123ZM604 122C604 122.552 603.552 123 603 123V125C604.657 125 606 123.657 606 122H604ZM603 -51C603.552 -51 604 -50.5523 604 -50H606C606 -51.6568 604.657 -53 603 -53V-51ZM-292 -53C-293.657 -53 -295 -51.6569 -295 -50H-293C-293 -50.5523 -292.552 -51 -292 -51V-53Z" fill="currentColor" fill-opacity="0.1"/>
<rect x="-3.5" y="-27.5" width="27" height="75" rx="4.5" stroke="#9747FF" stroke-dasharray="10 5"/>
<path d="M3.27708 16.7153C2.90331 16.3503 2.912 15.707 3.27708 15.3506L8.62282 9.9962L3.27708 4.65045C2.912 4.29407 2.90331 3.65954 3.27708 3.27708C3.65084 2.90331 4.28538 2.912 4.65045 3.27708L9.9962 8.62282L15.3419 3.27708C15.7157 2.912 16.3329 2.912 16.7153 3.28577C17.0978 3.65084 17.0891 4.28538 16.724 4.65045L11.3783 9.9962L16.724 15.3506C17.0891 15.7157 17.0891 16.3416 16.7153 16.7153C16.3416 17.0978 15.7157 17.0891 15.3419 16.724L9.9962 11.3783L4.65045 16.724C4.28538 17.0891 3.65954 17.0891 3.27708 16.7153Z" fill="currentColor"/>
</svg>
