<svg viewBox="0 0 20 20" fill="none" xmlns="http://www.w3.org/2000/svg">
<rect width="20" height="20" fill="none"/>
<path d="M-428 -26C-428 -27.1046 -427.105 -28 -426 -28H469C470.105 -28 471 -27.1046 471 -26V146C471 147.105 470.105 148 469 148H-426C-427.105 148 -428 147.105 -428 146V-26Z" fill="none"/>
<path d="M-426 -27H469V-29H-426V-27ZM470 -26V146H472V-26H470ZM469 147H-426V149H469V147ZM-427 146V-26H-429V146H-427ZM-426 147C-426.552 147 -427 146.552 -427 146H-429C-429 147.657 -427.657 149 -426 149V147ZM470 146C470 146.552 469.552 147 469 147V149C470.657 149 472 147.657 472 146H470ZM469 -27C469.552 -27 470 -26.5523 470 -26H472C472 -27.6568 470.657 -29 469 -29V-27ZM-426 -29C-427.657 -29 -429 -27.6569 -429 -26H-427C-427 -26.5523 -426.552 -27 -426 -27V-29Z" fill="currentColor" fill-opacity="0.1"/>
<rect x="-3.5" y="-3.5" width="27" height="75" rx="4.5" stroke="#9747FF" stroke-dasharray="10 5"/>
<path d="M8.56445 15.6826C8.27051 15.6826 8.05859 15.5527 7.85352 15.2861L4.30566 10.7676C4.17578 10.6035 4.10742 10.4258 4.10742 10.2686C4.10742 9.89258 4.37402 9.62598 4.76367 9.62598C5.00977 9.62598 5.18066 9.72168 5.35156 9.96094L8.53711 14.1309L14.6758 4.34863C14.8398 4.08887 14.9902 4 15.2637 4C15.6396 4 15.8857 4.24609 15.8857 4.62207C15.8857 4.7793 15.8379 4.92969 15.7148 5.12793L9.25488 15.2998C9.09082 15.5527 8.8584 15.6826 8.56445 15.6826Z" fill="currentColor"/>
</svg>
