<svg viewBox="0 0 20 20" fill="none" xmlns="http://www.w3.org/2000/svg">
<rect width="20" height="20" fill="none"/>
<path d="M-294 -26C-294 -27.1046 -293.105 -28 -292 -28H603C604.105 -28 605 -27.1046 605 -26V146C605 147.105 604.105 148 603 148H-292C-293.105 148 -294 147.105 -294 146V-26Z" fill="none"/>
<path d="M-292 -27H603V-29H-292V-27ZM604 -26V146H606V-26H604ZM603 147H-292V149H603V147ZM-293 146V-26H-295V146H-293ZM-292 147C-292.552 147 -293 146.552 -293 146H-295C-295 147.657 -293.657 149 -292 149V147ZM604 146C604 146.552 603.552 147 603 147V149C604.657 149 606 147.657 606 146H604ZM603 -27C603.552 -27 604 -26.5523 604 -26H606C606 -27.6568 604.657 -29 603 -29V-27ZM-292 -29C-293.657 -29 -295 -27.6569 -295 -26H-293C-293 -26.5523 -292.552 -27 -292 -27V-29Z" fill="currentColor" fill-opacity="0.1"/>
<rect x="-3.5" y="-3.5" width="27" height="75" rx="4.5" stroke="#9747FF" stroke-dasharray="10 5"/>
<path d="M3.22845 16.7715C2.91945 16.4713 2.92828 15.9592 3.22845 15.6589L8.87877 9.9989L3.22845 4.34769C2.92828 4.04747 2.92828 3.54416 3.22845 3.23511C3.52863 2.91723 4.04951 2.92606 4.34969 3.23511L10 8.88632L15.6503 3.23511C15.9505 2.92606 16.4625 2.92606 16.7715 3.23511C17.0805 3.53533 17.0717 4.04747 16.7715 4.34769L11.1212 9.9989L16.7715 15.6589C17.0717 15.9592 17.0717 16.4625 16.7715 16.7715C16.4714 17.0806 15.9505 17.0717 15.6503 16.7715L10 11.1203L4.34969 16.7715C4.04951 17.0717 3.53745 17.0717 3.22845 16.7715Z" fill="currentColor"/>
</svg>
