<svg viewBox="0 0 20 20" fill="none" xmlns="http://www.w3.org/2000/svg">
<rect width="20" height="20" fill="none"/>
<path d="M-428 -50C-428 -51.1046 -427.105 -52 -426 -52H469C470.105 -52 471 -51.1046 471 -50V122C471 123.105 470.105 124 469 124H-426C-427.105 124 -428 123.105 -428 122V-50Z" fill="none"/>
<path d="M-426 -51H469V-53H-426V-51ZM470 -50V122H472V-50H470ZM469 123H-426V125H469V123ZM-427 122V-50H-429V122H-427ZM-426 123C-426.552 123 -427 122.552 -427 122H-429C-429 123.657 -427.657 125 -426 125V123ZM470 122C470 122.552 469.552 123 469 123V125C470.657 125 472 123.657 472 122H470ZM469 -51C469.552 -51 470 -50.5523 470 -50H472C472 -51.6568 470.657 -53 469 -53V-51ZM-426 -53C-427.657 -53 -429 -51.6569 -429 -50H-427C-427 -50.5523 -426.552 -51 -426 -51V-53Z" fill="currentColor" fill-opacity="0.1"/>
<rect x="-3.5" y="-27.5" width="27" height="75" rx="4.5" stroke="#9747FF" stroke-dasharray="10 5"/>
<path d="M8.57812 15.8604C8.23633 15.8604 7.9834 15.7168 7.74414 15.4229L4.20312 10.9932C4.03223 10.7812 3.95703 10.583 3.95703 10.3779C3.95703 9.90625 4.30566 9.56445 4.78418 9.56445C5.08496 9.56445 5.29004 9.67383 5.48828 9.94043L8.55078 13.8711L14.4912 4.4375C14.6963 4.11621 14.8945 4 15.2295 4C15.708 4 16.0361 4.32812 16.0361 4.7998C16.0361 4.98438 15.9814 5.17578 15.8379 5.39453L9.41211 15.416C9.21387 15.71 8.94043 15.8604 8.57812 15.8604Z" fill="currentColor"/>
</svg>
