<svg viewBox="0 0 20 20" fill="none" xmlns="http://www.w3.org/2000/svg">
<rect width="20" height="20" fill="none"/>
<path d="M-129 -26C-129 -27.1046 -128.105 -28 -127 -28H768C769.105 -28 770 -27.1046 770 -26V146C770 147.105 769.105 148 768 148H-127C-128.105 148 -129 147.105 -129 146V-26Z" fill="none"/>
<path d="M-127 -27H768V-29H-127V-27ZM769 -26V146H771V-26H769ZM768 147H-127V149H768V147ZM-128 146V-26H-130V146H-128ZM-127 147C-127.552 147 -128 146.552 -128 146H-130C-130 147.657 -128.657 149 -127 149V147ZM769 146C769 146.552 768.552 147 768 147V149C769.657 149 771 147.657 771 146H769ZM768 -27C768.552 -27 769 -26.5523 769 -26H771C771 -27.6568 769.657 -29 768 -29V-27ZM-127 -29C-128.657 -29 -130 -27.6569 -130 -26H-128C-128 -26.5523 -127.552 -27 -127 -27V-29Z" fill="currentColor" fill-opacity="0.1"/>
<rect x="-3.5" y="-3.5" width="27" height="75" rx="4.5" stroke="#9747FF" stroke-dasharray="10 5"/>
<path d="M10.0007 18.5028C9.77185 18.5028 9.56128 18.4113 9.38733 18.2281L3.31738 12.1399C3.14343 11.9568 3.06104 11.7645 3.06104 11.5448C3.06104 11.0962 3.39063 10.7483 3.84839 10.7483C4.06812 10.7483 4.28784 10.8215 4.42517 10.968L6.51257 13.0188L9.32324 16.1041L9.18591 13.8886L9.18591 2.30713C9.18591 1.83106 9.52466 1.50147 10.0007 1.50147C10.4768 1.50147 10.8156 1.83105 10.8156 2.30713L10.8156 13.8886L10.6782 16.095L13.4889 13.0188L15.5763 10.968C15.7228 10.8215 15.9334 10.7483 16.1531 10.7483C16.6108 10.7483 16.9404 11.0962 16.9404 11.5448C16.9404 11.7645 16.8672 11.9568 16.6658 12.1582L10.6141 18.2281C10.4402 18.4113 10.2296 18.5028 10.0007 18.5028Z" fill="currentColor"/>
</svg>
