<svg viewBox="0 0 20 20" fill="none" xmlns="http://www.w3.org/2000/svg">
<rect width="20" height="20" fill="none"/>
<path d="M-30 -50C-30 -51.1046 -29.1046 -52 -28 -52H867C868.105 -52 869 -51.1046 869 -50V122C869 123.105 868.105 124 867 124H-28C-29.1046 124 -30 123.105 -30 122V-50Z" fill="none"/>
<path d="M-28 -51H867V-53H-28V-51ZM868 -50V122H870V-50H868ZM867 123H-28V125H867V123ZM-29 122V-50H-31V122H-29ZM-28 123C-28.5523 123 -29 122.552 -29 122H-31C-31 123.657 -29.6569 125 -28 125V123ZM868 122C868 122.552 867.552 123 867 123V125C868.657 125 870 123.657 870 122H868ZM867 -51C867.552 -51 868 -50.5523 868 -50H870C870 -51.6568 868.657 -53 867 -53V-51ZM-28 -53C-29.6569 -53 -31 -51.6569 -31 -50H-29C-29 -50.5523 -28.5523 -51 -28 -51V-53Z" fill="currentColor" fill-opacity="0.1"/>
<rect x="-3.5" y="-27.5" width="27" height="75" rx="4.5" stroke="#9747FF" stroke-dasharray="10 5"/>
<path d="M1.2384 10.0052C1.2384 10.3165 1.36658 10.6278 1.59546 10.8475L7.60132 16.8534C7.84851 17.0914 8.12317 17.2013 8.40698 17.2013C9.06616 17.2013 9.53308 16.7344 9.53308 16.121C9.53308 15.7822 9.39575 15.5076 9.18518 15.3062L7.1344 13.2371L4.71741 11.0306L6.79565 11.1497H17.5897C18.2855 11.1497 18.7616 10.6827 18.7616 10.0052C18.7616 9.32776 18.2855 8.86084 17.5897 8.86084H6.79565L4.72656 8.97986L7.1344 6.77344L9.18518 4.70435C9.39575 4.49377 9.53308 4.21912 9.53308 3.88953C9.53308 3.26697 9.06616 2.80005 8.40698 2.80005C8.12317 2.80005 7.84851 2.91907 7.59216 3.17542L1.59546 9.16296C1.36658 9.38269 1.2384 9.69397 1.2384 10.0052Z" fill="currentColor"/>
</svg>
