<svg viewBox="0 0 20 20" fill="none" xmlns="http://www.w3.org/2000/svg">
<rect width="20" height="20" fill="none"/>
<path d="M-360 -50C-360 -51.1046 -359.105 -52 -358 -52H537C538.105 -52 539 -51.1046 539 -50V122C539 123.105 538.105 124 537 124H-358C-359.105 124 -360 123.105 -360 122V-50Z" fill="none"/>
<path d="M-358 -51H537V-53H-358V-51ZM538 -50V122H540V-50H538ZM537 123H-358V125H537V123ZM-359 122V-50H-361V122H-359ZM-358 123C-358.552 123 -359 122.552 -359 122H-361C-361 123.657 -359.657 125 -358 125V123ZM538 122C538 122.552 537.552 123 537 123V125C538.657 125 540 123.657 540 122H538ZM537 -51C537.552 -51 538 -50.5523 538 -50H540C540 -51.6568 538.657 -53 537 -53V-51ZM-358 -53C-359.657 -53 -361 -51.6569 -361 -50H-359C-359 -50.5523 -358.552 -51 -358 -51V-53Z" fill="currentColor" fill-opacity="0.1"/>
<rect x="-3.5" y="-27.5" width="27" height="75" rx="4.5" stroke="#9747FF" stroke-dasharray="10 5"/>
<path d="M7.57715 9.05469V4.7959C7.57715 3.14844 8.65723 2 10.1885 2C11.7266 2 12.7998 3.14844 12.7998 4.7959V9.05469C12.7998 10.6953 11.7266 11.8438 10.1885 11.8438C8.65723 11.8438 7.57715 10.6953 7.57715 9.05469ZM8.86914 9.0752C8.86914 9.99121 9.38184 10.6064 10.1885 10.6064C10.9951 10.6064 11.5078 9.99121 11.5078 9.0752V4.76855C11.5078 3.85938 10.9951 3.2373 10.1885 3.2373C9.38184 3.2373 8.86914 3.85938 8.86914 4.76855V9.0752ZM5 9.35547V8.00195C5 7.64648 5.28711 7.36621 5.64258 7.36621C5.99805 7.36621 6.28516 7.64648 6.28516 8.00195V9.30762C6.28516 11.6318 7.85742 13.1699 10.1885 13.1699C12.5195 13.1699 14.0918 11.6318 14.0918 9.30762V8.00195C14.0918 7.64648 14.3857 7.36621 14.7412 7.36621C15.0967 7.36621 15.3838 7.64648 15.3838 8.00195V9.35547C15.3838 12.165 13.5107 14.0928 10.8174 14.3525V15.7539H13.3262C13.6816 15.7539 13.9756 16.041 13.9756 16.3965C13.9756 16.7451 13.6816 17.0322 13.3262 17.0322H7.05078C6.70215 17.0322 6.4082 16.7451 6.4082 16.3965C6.4082 16.041 6.70215 15.7539 7.05078 15.7539H9.56641V14.3525C6.86621 14.0928 5 12.165 5 9.35547Z" fill="currentColor"/>
</svg>
