<svg viewBox="0 0 20 20" fill="none" xmlns="http://www.w3.org/2000/svg">
<rect width="20" height="20" fill="none"/>
<path d="M-129 -50C-129 -51.1046 -128.105 -52 -127 -52H768C769.105 -52 770 -51.1046 770 -50V122C770 123.105 769.105 124 768 124H-127C-128.105 124 -129 123.105 -129 122V-50Z" fill="none"/>
<path d="M-127 -51H768V-53H-127V-51ZM769 -50V122H771V-50H769ZM768 123H-127V125H768V123ZM-128 122V-50H-130V122H-128ZM-127 123C-127.552 123 -128 122.552 -128 122H-130C-130 123.657 -128.657 125 -127 125V123ZM769 122C769 122.552 768.552 123 768 123V125C769.657 125 771 123.657 771 122H769ZM768 -51C768.552 -51 769 -50.5523 769 -50H771C771 -51.6568 769.657 -53 768 -53V-51ZM-127 -53C-128.657 -53 -130 -51.6569 -130 -50H-128C-128 -50.5523 -127.552 -51 -127 -51V-53Z" fill="currentColor" fill-opacity="0.1"/>
<rect x="-3.5" y="-27.5" width="27" height="75" rx="4.5" stroke="#9747FF" stroke-dasharray="10 5"/>
<path d="M9.99548 18.7622C9.6842 18.7622 9.37293 18.634 9.1532 18.4052L3.14734 12.3993C2.9093 12.1521 2.79944 11.8774 2.79944 11.5936C2.79944 10.9344 3.26636 10.4675 3.87976 10.4675C4.21851 10.4675 4.49316 10.6049 4.69458 10.8154L6.76367 12.8662L8.97009 15.2832L8.85107 13.205L8.85107 2.41089C8.85107 1.71509 9.31799 1.23901 9.99548 1.23901C10.673 1.23901 11.1399 1.71509 11.1399 2.41089L11.1399 13.205L11.0209 15.274L13.2273 12.8662L15.2964 10.8154C15.507 10.6049 15.7816 10.4675 16.1112 10.4675C16.7338 10.4675 17.2007 10.9344 17.2007 11.5936C17.2007 11.8774 17.0817 12.1521 16.8253 12.4084L10.8378 18.4052C10.618 18.634 10.3068 18.7622 9.99548 18.7622Z" fill="currentColor"/>
</svg>
