<svg viewBox="0 0 20 20" fill="none" xmlns="http://www.w3.org/2000/svg">
<rect width="20" height="20" fill="none"/>
<path d="M-162 -50C-162 -51.1046 -161.105 -52 -160 -52H735C736.105 -52 737 -51.1046 737 -50V122C737 123.105 736.105 124 735 124H-160C-161.105 124 -162 123.105 -162 122V-50Z" fill="none"/>
<path d="M-160 -51H735V-53H-160V-51ZM736 -50V122H738V-50H736ZM735 123H-160V125H735V123ZM-161 122V-50H-163V122H-161ZM-160 123C-160.552 123 -161 122.552 -161 122H-163C-163 123.657 -161.657 125 -160 125V123ZM736 122C736 122.552 735.552 123 735 123V125C736.657 125 738 123.657 738 122H736ZM735 -51C735.552 -51 736 -50.5523 736 -50H738C738 -51.6568 736.657 -53 735 -53V-51ZM-160 -53C-161.657 -53 -163 -51.6569 -163 -50H-161C-161 -50.5523 -160.552 -51 -160 -51V-53Z" fill="currentColor" fill-opacity="0.1"/>
<rect x="-3.5" y="-27.5" width="27" height="75" rx="4.5" stroke="#9747FF" stroke-dasharray="10 5"/>
<path d="M5.84998 10.1276C5.84998 10.4388 5.95984 10.7043 6.20703 10.9424L13.3481 17.9279C13.5496 18.1293 13.7968 18.23 14.0897 18.23C14.6848 18.23 15.1609 17.7722 15.1609 17.168C15.1609 16.875 15.0327 16.6095 14.8405 16.4081L8.39514 10.1276L14.8405 3.84705C15.0419 3.63647 15.1609 3.37097 15.1609 3.078C15.1609 2.48291 14.6848 2.02515 14.0897 2.02515C13.7968 2.02515 13.5496 2.12585 13.3481 2.32727L6.20703 9.31274C5.96899 9.55078 5.84998 9.81628 5.84998 10.1276Z" fill="currentColor"/>
</svg>
