<svg viewBox="0 0 20 20" fill="none" xmlns="http://www.w3.org/2000/svg">
<rect width="20" height="20" fill="none"/>
<path d="M-327 -26C-327 -27.1046 -326.105 -28 -325 -28H570C571.105 -28 572 -27.1046 572 -26V146C572 147.105 571.105 148 570 148H-325C-326.105 148 -327 147.105 -327 146V-26Z" fill="none"/>
<path d="M-325 -27H570V-29H-325V-27ZM571 -26V146H573V-26H571ZM570 147H-325V149H570V147ZM-326 146V-26H-328V146H-326ZM-325 147C-325.552 147 -326 146.552 -326 146H-328C-328 147.657 -326.657 149 -325 149V147ZM571 146C571 146.552 570.552 147 570 147V149C571.657 149 573 147.657 573 146H571ZM570 -27C570.552 -27 571 -26.5523 571 -26H573C573 -27.6568 571.657 -29 570 -29V-27ZM-325 -29C-326.657 -29 -328 -27.6569 -328 -26H-326C-326 -26.5523 -325.552 -27 -325 -27V-29Z" fill="currentColor" fill-opacity="0.1"/>
<rect x="-3.5" y="-3.5" width="27" height="75" rx="4.5" stroke="#9747FF" stroke-dasharray="10 5"/>
<path d="M3.14648 15.8008C1.71094 15.8008 1 15.0898 1 13.6816V7.1123C1 5.7041 1.71094 5 3.14648 5H16.0596C17.4814 5 18.2061 5.71094 18.2061 7.1123V13.6816C18.2061 15.0898 17.4814 15.8008 16.0596 15.8008H3.14648ZM3.16016 14.7002H16.0391C16.7158 14.7002 17.1055 14.3311 17.1055 13.6201V7.17383C17.1055 6.46289 16.7158 6.10059 16.0391 6.10059H3.16016C2.47656 6.10059 2.10059 6.46289 2.10059 7.17383V13.6201C2.10059 14.3311 2.47656 14.7002 3.16016 14.7002ZM3.77539 8.80762C3.59082 8.80762 3.47461 8.69141 3.47461 8.50684V7.87793C3.47461 7.68652 3.59082 7.57031 3.77539 7.57031H4.4043C4.5957 7.57031 4.71191 7.68652 4.71191 7.87793V8.50684C4.71191 8.69141 4.5957 8.80762 4.4043 8.80762H3.77539ZM5.97656 8.80762C5.78516 8.80762 5.66895 8.69141 5.66895 8.50684V7.87793C5.66895 7.68652 5.78516 7.57031 5.97656 7.57031H6.60547C6.79004 7.57031 6.90625 7.68652 6.90625 7.87793V8.50684C6.90625 8.69141 6.79004 8.80762 6.60547 8.80762H5.97656ZM8.17773 8.80762C7.98633 8.80762 7.87012 8.69141 7.87012 8.50684V7.87793C7.87012 7.68652 7.98633 7.57031 8.17773 7.57031H8.7998C8.99121 7.57031 9.10742 7.68652 9.10742 7.87793V8.50684C9.10742 8.69141 8.99121 8.80762 8.7998 8.80762H8.17773ZM10.3721 8.80762C10.1875 8.80762 10.0713 8.69141 10.0713 8.50684V7.87793C10.0713 7.68652 10.1875 7.57031 10.3721 7.57031H11.001C11.1924 7.57031 11.3086 7.68652 11.3086 7.87793V8.50684C11.3086 8.69141 11.1924 8.80762 11.001 8.80762H10.3721ZM12.5732 8.80762C12.3818 8.80762 12.2656 8.69141 12.2656 8.50684V7.87793C12.2656 7.68652 12.3818 7.57031 12.5732 7.57031H13.2021C13.3867 7.57031 13.5029 7.68652 13.5029 7.87793V8.50684C13.5029 8.69141 13.3867 8.80762 13.2021 8.80762H12.5732ZM14.7744 8.80762C14.583 8.80762 14.4668 8.69141 14.4668 8.50684V7.87793C14.4668 7.68652 14.583 7.57031 14.7744 7.57031H15.3965C15.5879 7.57031 15.7041 7.68652 15.7041 7.87793V8.50684C15.7041 8.69141 15.5879 8.80762 15.3965 8.80762H14.7744ZM3.77539 11.0088C3.59082 11.0088 3.47461 10.8926 3.47461 10.7012V10.0791C3.47461 9.8877 3.59082 9.77148 3.77539 9.77148H4.4043C4.5957 9.77148 4.71191 9.8877 4.71191 10.0791V10.7012C4.71191 10.8926 4.5957 11.0088 4.4043 11.0088H3.77539ZM5.97656 11.0088C5.78516 11.0088 5.66895 10.8926 5.66895 10.7012V10.0791C5.66895 9.8877 5.78516 9.77148 5.97656 9.77148H6.60547C6.79004 9.77148 6.90625 9.8877 6.90625 10.0791V10.7012C6.90625 10.8926 6.79004 11.0088 6.60547 11.0088H5.97656ZM8.17773 11.0088C7.98633 11.0088 7.87012 10.8926 7.87012 10.7012V10.0791C7.87012 9.8877 7.98633 9.77148 8.17773 9.77148H8.7998C8.99121 9.77148 9.10742 9.8877 9.10742 10.0791V10.7012C9.10742 10.8926 8.99121 11.0088 8.7998 11.0088H8.17773ZM10.3721 11.0088C10.1875 11.0088 10.0713 10.8926 10.0713 10.7012V10.0791C10.0713 9.8877 10.1875 9.77148 10.3721 9.77148H11.001C11.1924 9.77148 11.3086 9.8877 11.3086 10.0791V10.7012C11.3086 10.8926 11.1924 11.0088 11.001 11.0088H10.3721ZM12.5732 11.0088C12.3818 11.0088 12.2656 10.8926 12.2656 10.7012V10.0791C12.2656 9.8877 12.3818 9.77148 12.5732 9.77148H13.2021C13.3867 9.77148 13.5029 9.8877 13.5029 10.0791V10.7012C13.5029 10.8926 13.3867 11.0088 13.2021 11.0088H12.5732ZM14.7744 11.0088C14.583 11.0088 14.4668 10.8926 14.4668 10.7012V10.0791C14.4668 9.8877 14.583 9.77148 14.7744 9.77148H15.3965C15.5879 9.77148 15.7041 9.8877 15.7041 10.0791V10.7012C15.7041 10.8926 15.5879 11.0088 15.3965 11.0088H14.7744ZM3.77539 13.21C3.59082 13.21 3.47461 13.0938 3.47461 12.9023V12.2734C3.47461 12.0889 3.59082 11.9727 3.77539 11.9727H4.4043C4.5957 11.9727 4.71191 12.0889 4.71191 12.2734V12.9023C4.71191 13.0938 4.5957 13.21 4.4043 13.21H3.77539ZM6.04492 13.21C5.80566 13.21 5.66895 13.0732 5.66895 12.834V12.3418C5.66895 12.1094 5.80566 11.9727 6.04492 11.9727H13.1338C13.3662 11.9727 13.5029 12.1094 13.5029 12.3418V12.834C13.5029 13.0732 13.3662 13.21 13.1338 13.21H6.04492ZM14.7744 13.21C14.583 13.21 14.4668 13.0938 14.4668 12.9023V12.2734C14.4668 12.0889 14.583 11.9727 14.7744 11.9727H15.3965C15.5879 11.9727 15.7041 12.0889 15.7041 12.2734V12.9023C15.7041 13.0938 15.5879 13.21 15.3965 13.21H14.7744Z" fill="currentColor"/>
</svg>
