<svg viewBox="0 0 20 20" fill="none" xmlns="http://www.w3.org/2000/svg">
<rect width="20" height="20" fill="none"/>
<path d="M-30 -74C-30 -75.1046 -29.1046 -76 -28 -76H867C868.105 -76 869 -75.1046 869 -74V98C869 99.1046 868.105 100 867 100H-28C-29.1046 100 -30 99.1046 -30 98V-74Z" fill="none"/>
<path d="M-28 -75H867V-77H-28V-75ZM868 -74V98H870V-74H868ZM867 99H-28V101H867V99ZM-29 98V-74H-31V98H-29ZM-28 99C-28.5523 99 -29 98.5523 -29 98H-31C-31 99.6568 -29.6569 101 -28 101V99ZM868 98C868 98.5523 867.552 99 867 99V101C868.657 101 870 99.6569 870 98H868ZM867 -75C867.552 -75 868 -74.5523 868 -74H870C870 -75.6568 868.657 -77 867 -77V-75ZM-28 -77C-29.6569 -77 -31 -75.6569 -31 -74H-29C-29 -74.5523 -28.5523 -75 -28 -75V-77Z" fill="currentColor" fill-opacity="0.1"/>
<rect x="-3.5" y="-51.5" width="27" height="75" rx="4.5" stroke="#9747FF" stroke-dasharray="10 5"/>
<path d="M1.08276 10.0016C1.08276 10.3586 1.2384 10.734 1.4856 10.9812L7.45483 16.9321C7.72949 17.2068 8.05908 17.3441 8.37952 17.3441C9.15771 17.3441 9.68872 16.804 9.68872 16.0898C9.68872 15.6962 9.51477 15.3757 9.26758 15.1377L7.2168 13.0869L5.18433 11.2192L7.18933 11.3291H17.5348C18.3588 11.3291 18.9081 10.7889 18.9081 10.0016C18.9081 9.20508 18.3588 8.67407 17.5348 8.67407H7.18933L5.19348 8.78394L7.2168 6.91626L9.26758 4.85632C9.51477 4.61829 9.68872 4.30701 9.68872 3.90417C9.68872 3.19006 9.15771 2.6499 8.37952 2.6499C8.05908 2.6499 7.72949 2.78723 7.44568 3.07104L1.4856 9.02197C1.2384 9.26917 1.08276 9.64453 1.08276 10.0016Z" fill="currentColor"/>
</svg>
