<svg width="143" height="139" viewBox="0 0 143 139" fill="none" xmlns="http://www.w3.org/2000/svg">
<g clip-path="url(#clip0_814_4557)">
<path d="M142.921 59.3939C142.74 58.4521 142.236 57.5974 141.606 56.8535C141.369 56.3708 141.102 55.9039 140.802 55.4607C141.582 54.3211 142 52.9995 141.637 51.5908C141.401 50.6886 140.865 49.8893 140.204 49.2087C139.96 48.8051 139.637 48.4331 139.235 48.1166C139.038 47.9662 138.825 47.8317 138.597 47.7209C138.518 47.2777 138.368 46.8582 138.164 46.4546C137.549 43.7481 135.753 41.5243 133.186 40.8199C132.642 39.7674 131.847 38.881 130.846 38.2479C130.736 38.1134 130.626 37.9788 130.492 37.8522C129.948 37.3378 129.271 36.9975 128.546 36.768C128.16 36.127 127.641 35.5809 126.916 35.209C126.743 35.1219 126.561 35.0507 126.372 34.9874C126.16 34.8054 125.931 34.6312 125.671 34.4888C124.537 33.8478 123.135 33.7607 121.828 33.9111C121.686 33.9269 121.544 33.9586 121.402 33.9744C120.197 32.819 118.59 32.1146 116.708 32.1621C116.33 31.9009 115.92 31.6714 115.487 31.4973C114.384 30.7772 113.014 30.3736 111.391 30.4527C111.336 30.4527 111.289 30.4685 111.234 30.4685C110.312 29.3922 109.13 28.6008 107.744 28.2605C107.122 27.8648 106.421 27.572 105.712 27.3742C105.657 27.3584 105.602 27.3504 105.539 27.3346C105.2 25.8864 104.46 24.5964 103.065 23.9237C102.396 23.5992 101.648 23.4726 100.892 23.4568C100.876 23.4489 100.86 23.4331 100.852 23.4251C100.49 22.4201 99.7573 21.5416 98.9381 20.8294C98.4655 20.1092 97.8905 19.4761 97.2053 18.9854C96.5043 17.3947 95.3228 16.1048 93.7396 15.4242C93.3142 14.7911 92.8337 14.2054 92.2903 13.6831C91.7231 12.8601 91.0536 12.1241 90.3054 11.491C90.1636 11.0478 89.9982 10.6204 89.7855 10.201C89.7146 10.0585 89.6358 9.93191 89.5571 9.79738C89.1396 8.25416 88.2732 6.9088 87.0287 5.96704C86.8003 5.55552 86.5088 5.17565 86.1307 4.83535C85.1619 3.98065 83.815 3.6087 82.5154 3.48999C82.3972 3.48207 82.2791 3.47416 82.1609 3.47416C81.137 2.43744 79.8767 1.70936 78.4826 1.4482C77.435 0.743858 76.1274 0.340248 74.5679 0.371904C73.536 0.395645 72.6302 0.648891 71.8268 1.07624C71.7244 1.1079 71.6299 1.14747 71.5354 1.18704C68.9282 -0.474885 65.5964 -0.546111 62.9026 2.04965C62.7214 2.22376 62.5718 2.40578 62.4221 2.5878C60.9098 2.5878 59.4054 3.14177 58.1215 4.38426C57.066 4.6375 56.0263 5.16774 55.0575 6.04618C53.8681 6.54476 52.789 7.41529 51.9305 8.75274C51.3634 9.63119 51.0562 10.5334 50.9459 11.4514C49.6226 12.0054 48.5041 12.9629 47.8031 14.3083C47.0391 14.8702 46.3538 15.622 45.8025 16.6113C45.4323 17.2681 45.2117 17.9408 45.0936 18.6056C45.0936 18.6056 45.0857 18.6056 45.0778 18.6135C43.6128 19.1833 42.3761 20.2042 41.62 21.6683C41.4388 21.9057 41.2734 22.1747 41.1159 22.4517C40.6275 22.7841 40.1549 23.1877 39.706 23.6784C39.3988 24.0108 39.1546 24.359 38.9419 24.7151C37.8313 25.4274 36.9334 26.472 36.3899 27.849C35.0272 27.9994 33.7276 28.5692 32.6485 29.6376C32.5304 29.693 32.428 29.7721 32.3177 29.8354C31.5537 29.7721 30.7975 29.8275 30.065 30.0016C28.6629 30.0491 27.2688 30.5556 26.0479 31.6002C24.8034 31.7981 23.5825 32.3837 22.4719 33.4362C22.4719 33.4362 22.4719 33.4362 22.464 33.4362C21.7 33.4996 21.0147 33.6974 20.3925 33.9823C19.6678 34.0377 18.9196 34.2118 18.1477 34.5284C17.0134 34.9953 16.1549 35.7155 15.509 36.586C14.7843 36.8155 14.1069 37.14 13.5004 37.5673C12.6655 37.8759 11.9015 38.3112 11.2556 38.8731C9.79844 39.0472 8.34914 39.7357 7.07313 41.0494C6.78169 41.3502 6.53752 41.6746 6.31697 42.007C4.87555 42.838 3.75707 44.2229 3.26872 46.1697C2.72524 46.7949 2.26052 47.5547 1.92182 48.4727C1.57525 49.4224 1.46498 50.3404 1.53587 51.2267C0.40951 52.6196 -0.133977 54.4873 0.307114 56.6952C0.330744 56.7981 0.36225 56.8931 0.38588 56.996C0.29136 57.4075 0.228348 57.8269 0.188964 58.2385C-0.17336 59.7342 -0.007951 61.1508 0.535536 62.4328C0.763958 63.3983 1.19717 64.3005 1.8273 65.0682C1.48073 66.4531 1.59888 67.9963 2.37079 69.5949C2.49681 69.864 2.64647 70.1014 2.79613 70.3388C3.00092 71.059 3.34749 71.7792 3.84372 72.4914C3.99337 72.7051 4.15878 72.895 4.33207 73.085C4.7574 74.2879 5.57657 75.3958 6.84471 76.2664C7.05738 78.324 7.90805 80.4291 9.92447 81.1809C9.98748 81.2046 10.0426 81.2205 10.1056 81.2363C10.2238 81.5133 10.3498 81.7903 10.4916 82.0593C10.4916 82.0831 10.5073 82.1147 10.5152 82.1385C10.5152 82.1543 10.5231 82.1701 10.531 82.186C10.5467 82.2335 10.5546 82.2809 10.5703 82.3284C10.6806 82.8033 10.8303 83.2781 11.0429 83.7688C11.6652 85.1853 12.6498 86.1667 13.8313 86.8235C14.1148 87.0768 14.422 87.3142 14.745 87.5279C14.7686 87.6307 14.7843 87.7336 14.808 87.8365C14.8631 88.0581 14.9261 88.2876 14.9891 88.5171C15.0679 89.9416 15.4539 91.3978 16.3045 92.4741C16.3203 93.4 16.5251 94.2547 16.8953 95.0461C16.8559 95.513 16.8638 95.9799 16.9268 96.4389C16.9031 97.4677 17.0843 98.4807 17.486 99.4067C16.8008 100.712 16.5645 102.295 16.9819 104.092C17.0292 104.282 17.0922 104.456 17.1473 104.63C17.0134 105.097 16.9347 105.587 16.9189 106.102C16.8244 106.569 16.7535 107.051 16.7456 107.574C16.7299 108.349 16.8401 109.062 17.0528 109.726C16.9504 110.858 17.1316 112.069 17.7066 113.319C17.7459 113.398 17.7932 113.47 17.8326 113.549C17.6199 114.427 17.5805 115.337 17.7302 116.216C17.5963 117.925 18.1477 119.698 19.6127 121.257C19.7781 121.431 19.9514 121.581 20.1326 121.732C19.9514 122.8 20.0223 123.971 20.4476 125.214C20.613 125.689 20.8257 126.108 21.0699 126.504C21.2668 127.303 21.6134 128.11 22.149 128.91C22.6925 129.717 23.3541 130.326 24.0787 130.785C24.7798 131.901 25.851 132.835 27.3239 133.452C27.8359 134.07 28.4897 134.632 29.2931 135.106C29.3167 135.122 29.3403 135.13 29.364 135.146C30.2146 136.127 31.3883 136.895 32.9242 137.306C33.5228 137.465 34.1057 137.528 34.6728 137.528C34.9406 137.694 35.2242 137.837 35.5471 137.947C36.4687 138.248 37.4769 138.209 38.4378 137.987C38.5245 138.011 38.6111 138.027 38.6978 138.042C39.8084 138.834 41.108 139.261 42.4943 138.913C42.5415 138.897 42.5888 138.881 42.6361 138.865C43.1953 138.865 43.7545 138.786 44.3059 138.652C44.747 138.818 45.2275 138.921 45.7394 138.921C46.7555 138.921 47.748 138.549 48.6459 138.011C48.9689 138.019 49.2997 137.995 49.6384 137.924C50.2921 137.773 50.8986 137.457 51.4421 137.053C52.6472 137.568 53.9626 137.718 55.2229 137.148C55.853 136.863 56.3965 136.428 56.877 135.914C58.0033 136.127 59.1455 136.009 60.1615 135.336C60.8704 134.869 61.4218 134.18 61.8471 133.421C62.9814 133.626 64.1944 133.381 65.2971 132.97C65.9902 132.708 66.6519 132.368 67.2663 131.98C69.1724 133.025 71.5669 133.603 73.4415 132.424C73.922 132.526 74.4025 132.566 74.8751 132.534C75.6942 133.104 76.6867 133.516 77.8603 133.706C78.8449 133.864 79.7507 133.801 80.6014 133.563C80.8455 133.658 81.0976 133.745 81.3575 133.816C81.7829 134.157 82.2633 134.465 82.8068 134.734C83.5078 135.083 84.2089 135.265 84.902 135.344C85.3116 135.811 85.8157 136.198 86.4458 136.444C87.6037 136.895 88.9348 136.792 90.1478 136.475C90.2817 136.444 90.4077 136.396 90.5416 136.357C91.1088 137.219 91.8964 137.884 92.9598 138.161C93.5978 138.327 94.2673 138.319 94.9289 138.216C95.244 138.351 95.5827 138.446 95.9529 138.493C97.0162 138.628 98.1111 138.311 99.0878 137.829C100.057 137.718 101.01 137.393 101.908 136.934C102.498 137.196 103.144 137.393 103.869 137.488C104.877 137.623 105.799 137.52 106.649 137.235C107.366 137.219 108.075 137.124 108.737 136.911C110.154 137.109 111.58 136.871 112.683 135.85C113.628 134.972 114.132 133.682 114.384 132.408C114.4 132.329 114.408 132.249 114.424 132.17C115.747 132.352 117.07 132.147 118.126 131.221C118.882 130.564 119.362 129.638 119.685 128.664C120.615 127.683 121.229 126.464 121.119 125.048C121.316 124.866 121.497 124.668 121.662 124.438C122.395 123.417 122.631 122.072 122.631 120.798C122.631 120.695 122.623 120.592 122.615 120.489C123.529 119.896 124.254 119.065 124.553 117.933C124.766 117.134 124.718 116.279 124.537 115.456C124.584 114.791 124.49 114.111 124.191 113.446C124.128 113.311 124.057 113.177 123.986 113.05C124.269 112.314 124.49 111.523 124.577 110.731C124.695 110.407 124.789 110.075 124.86 109.742C124.923 109.529 124.978 109.299 125.01 109.062C125.049 108.745 125.041 108.421 125.01 108.096C124.97 107.384 124.789 106.695 124.411 106.062C124.395 106.039 124.387 106.007 124.372 105.983C124.537 105.31 124.592 104.598 124.584 103.902C124.569 103.063 124.458 102.232 124.261 101.433C124.458 100.135 124.403 98.821 124.159 97.5627C124.159 97.3174 124.159 97.072 124.159 96.8267C125.522 95.8691 126.561 94.5079 126.53 92.7748C126.514 91.9992 126.278 91.2474 125.916 90.5431C127.27 89.3718 128.373 87.7811 128.31 86.0242C129.98 85.2882 131.563 84.0774 132.059 82.3522C133.146 81.8615 134.06 81.0859 134.533 79.8988C134.816 79.1866 134.895 78.411 134.848 77.6355C135.084 77.0578 135.234 76.4405 135.32 75.8232C135.911 75.6332 136.47 75.3246 136.951 74.8419C137.856 73.9476 138.313 72.6576 138.526 71.3914C138.636 70.7583 138.676 70.1252 138.668 69.5C139.928 68.7877 140.928 67.7193 141.149 66.2236C141.228 65.7013 141.196 65.179 141.102 64.6566C141.629 64.2214 142.063 63.6832 142.338 62.9947C142.464 62.6861 142.551 62.3695 142.598 62.0371C142.961 61.2299 143.11 60.3515 142.921 59.4176V59.3939Z" fill="#B7FF8D"/>
<path d="M61.1461 68.9379C64.1314 67.8854 64.6591 63.5723 62.4064 61.483C59.2794 58.4995 55.0496 61.7917 55.9003 65.7091C56.2941 68.0516 58.7989 69.8164 61.091 68.9617L61.1461 68.9379Z" fill="#135000"/>
<path d="M76.3874 69.0252C79.3411 69.0411 81.0818 65.2345 79.7034 62.5754C77.8209 58.7925 73.1028 60.4307 72.7011 64.3244C72.3545 66.6115 74.048 69.0648 76.3322 69.0252H76.3874Z" fill="#135000"/>
<path d="M60.7366 75.7995C62.5325 79.0047 65.4153 80.4371 69.0464 80.0256C72.2128 79.6615 74.1662 78.0867 75.7967 75.4592C76.923 73.639 74.0638 71.9692 72.9375 73.7815C70.7714 77.2715 65.8564 78.1737 63.5879 74.1218C62.5403 72.2541 59.6811 73.9319 60.7287 75.7995H60.7366Z" fill="#135000"/>
</g>
<defs>
<clipPath id="clip0_814_4557">
<rect width="143" height="139" fill="white"/>
</clipPath>
</defs>
</svg>
